<?xml version="1.0" encoding="UTF-8" standalone="no"?>
<svg
   class="ionicon"
   viewBox="0 0 1428.9139 511.99999"
   version="1.1"
   id="svg2"
   sodipodi:docname="app_logo_text.svg"
   inkscape:version="1.3.2 (091e20e, 2023-11-25, custom)"
   width="1428.9139"
   height="512"
   inkscape:export-filename="app_logo.png"
   inkscape:export-xdpi="96"
   inkscape:export-ydpi="96"
   xmlns:inkscape="http://www.inkscape.org/namespaces/inkscape"
   xmlns:sodipodi="http://sodipodi.sourceforge.net/DTD/sodipodi-0.dtd"
   xmlns:xlink="http://www.w3.org/1999/xlink"
   xmlns="http://www.w3.org/2000/svg"
   xmlns:svg="http://www.w3.org/2000/svg">
  <defs
     id="defs2">
    <color-profile
       name="sRGB-IEC61966-2.1"
       xlink:href="../../../WINDOWS/system32/spool/drivers/color/sRGB%20Color%20Space%20Profile.icm"
       id="color-profile2" />
  </defs>
  <sodipodi:namedview
     id="namedview2"
     pagecolor="#ffffff"
     bordercolor="#000000"
     borderopacity="0.25"
     inkscape:showpageshadow="2"
     inkscape:pageopacity="0.0"
     inkscape:pagecheckerboard="0"
     inkscape:deskcolor="#d1d1d1"
     showguides="false"
     inkscape:zoom="0.18989684"
     inkscape:cx="-608.22497"
     inkscape:cy="-342.29111"
     inkscape:window-width="1902"
     inkscape:window-height="1030"
     inkscape:window-x="0"
     inkscape:window-y="0"
     inkscape:window-maximized="0"
     inkscape:current-layer="svg2"
     inkscape:document-units="mm" />
  <path
     d="m -1532.6536,1220.6094 q -32.563,0 -54.8431,-22.28 -22.2799,-22.28 -22.2799,-54.8431 V 120.31977 q 0,-46.2739 32.563,-78.836955 32.5631,-34.2769354 78.8369,-34.2769354 h 56.557 q 34.2769,0 63.4123,20.5661614 29.1354,20.566161 41.1323,51.415402 L -948.23196,1049.2248 -559.18882,79.187443 q 13.71077,-30.849241 41.13231,-51.415402 29.13535,-20.5661614 63.41228,-20.5661614 h 56.55696 q 46.27381,0 78.83693,34.2769354 32.56304,32.563055 32.56304,78.836955 V 1143.4863 q 0,32.5631 -22.27997,54.8431 -22.28003,22.28 -54.84308,22.28 -32.56311,0 -56.55696,-22.28 -22.27997,-22.28 -22.27997,-54.8431 V 170.02129 L -838.5458,1148.6279 q -13.71077,32.563 -42.84613,53.1292 -29.13542,18.8523 -66.84003,18.8523 -37.70462,0 -66.84004,-18.8523 -29.1354,-20.5662 -42.8461,-53.1292 l -395.8986,-978.60661 v 973.46501 q 0,32.5631 -23.9938,54.8431 -22.28,22.28 -54.8431,22.28 z m 1823.53101,8.5692 q -97.68921,0 -166.24306,-44.56 Q 56.080501,1138.3448 20.089695,1061.2217 -15.901043,984.09853 -15.901043,893.26468 V 406.53221 q 0,-32.56313 22.2799681,-54.8431 23.9938479,-22.28004 56.5569609,-22.28004 32.563046,0 54.843084,22.28004 22.27997,22.27997 22.27997,54.8431 v 469.59401 q 0,97.68923 44.56,154.24618 44.56,54.8431 143.96309,54.8431 92.5477,0 161.10162,-49.7016 68.55385,-51.41537 119.96924,-114.82767 V 406.53221 q 0,-32.56313 22.27996,-54.8431 23.99385,-22.28004 56.55697,-22.28004 32.56304,0 54.84308,22.28004 22.27997,22.27997 22.27997,54.8431 v 735.24029 q 0,32.5631 -22.27997,56.5569 -22.28004,22.28 -54.84308,22.28 -32.56312,0 -56.55697,-22.28 -22.27996,-23.9938 -22.27996,-56.5569 v -70.2678 q -53.12927,58.2708 -128.53851,107.9724 -75.40924,49.7015 -190.23697,49.7015 z m 1028.30659,0 q -94.2616,0 -171.3846,-20.5661 -75.4093,-20.5662 -140.5354,-56.5569 -29.13546,-20.5662 -29.13546,-56.557 0,-25.7077 18.85235,-46.2738 18.85231,-22.2801 47.98771,-22.2801 15.4246,0 30.8492,6.8554 46.2738,20.5662 101.1169,35.9908 56.557,15.4246 131.9662,15.4246 99.4031,0 143.9631,-30.8492 46.2739,-32.5631 46.2739,-90.83393 0,-37.70463 -37.7046,-58.27079 -35.9908,-20.56616 -95.9755,-34.27694 -58.2708,-15.42458 -123.3969,-30.84924 -65.1262,-17.13847 -125.1108,-44.56001 -58.2707,-29.13537 -95.9754,-77.12307 -35.99077,-49.70159 -35.99077,-126.82466 0,-116.54158 83.97847,-193.66472 83.9785,-77.12307 250.2216,-77.12307 70.2677,0 131.9661,11.99689 63.4124,11.99696 116.5416,30.84924 23.9939,6.85539 35.9908,27.42155 13.7107,18.85235 13.7107,37.70463 0,27.42155 -20.5661,47.98771 -18.8523,20.56616 -47.9877,20.56616 -6.8554,0 -11.9969,0 -5.1416,-1.71381 -10.2831,-3.42769 -41.1323,-13.71078 -90.8339,-22.27998 -47.9877,-8.56926 -104.5446,-8.56926 -94.2615,0 -145.6769,34.27693 -51.4154,34.27694 -51.4154,85.69234 0,44.56001 35.9907,68.55387 37.7046,23.99385 95.9754,39.41851 59.9847,13.71077 125.1108,29.13536 66.8401,15.42465 125.1108,44.56001 59.9846,27.42155 95.9754,77.12314 37.7047,49.70152 37.7047,133.68005 0,104.54467 -83.9785,179.95397 -82.2647,73.6953 -246.7939,73.6953 z M 1932.7404,159.73821 q -35.9908,0 -61.6984,-25.70767 -25.7078,-25.70774 -25.7078,-61.698484 v -6.855387 q 0,-35.990815 25.7078,-61.6984829 25.7076,-25.7077341 61.6984,-25.7077341 h 10.2831 q 35.9907,0 61.6985,25.7077341 25.7076,25.7076679 25.7076,61.6984829 v 6.855387 q 0,35.990744 -25.7076,61.698484 -25.7078,25.70767 -61.6985,25.70767 z m 3.4277,1060.87119 q -32.5631,0 -54.8431,-22.28 -22.28,-22.28 -22.28,-54.8431 V 408.24602 q 0,-34.27694 22.28,-56.55691 22.28,-22.28004 54.8431,-22.28004 34.2769,0 56.5569,22.28004 22.2801,22.27997 22.2801,56.55691 v 735.24028 q 0,32.5631 -22.2801,54.8431 -22.28,22.28 -56.5569,22.28 z m 754.0931,8.5692 q -121.6831,0 -226.2278,-53.1292 -104.5445,-54.8431 -167.9569,-155.9601 -63.4123,-102.83076 -63.4123,-245.08007 0,-143.96313 63.4123,-245.08006 63.4124,-101.11699 167.9569,-154.24621 104.5447,-54.84309 226.2278,-54.84309 101.1168,0 167.9568,27.42155 68.5539,25.70766 111.3999,54.84309 34.2769,22.27998 34.2769,59.98461 0,23.99385 -18.852,46.27389 -18.8526,22.27998 -46.2736,22.27998 -18.8526,0 -37.7052,-10.28308 -44.5598,-23.99386 -87.4058,-39.41845 -42.846,-15.42465 -109.6863,-15.42465 -149.1046,0 -233.0831,85.69234 -82.2646,85.69234 -82.2646,222.80008 0,137.10774 82.2646,222.80007 83.9785,85.6924 233.0831,85.6924 66.8403,0 109.6863,-15.4246 42.846,-17.1385 87.4058,-39.4186 18.8526,-10.283 37.7052,-10.283 27.421,0 46.2736,22.28 18.852,22.28 18.852,46.2739 0,37.7046 -34.2769,59.9846 -42.846,27.4216 -111.3999,54.8431 -66.84,27.4215 -167.9568,27.4215 z"
     id="text4"
     style="font-size:258.105px;font-family:'Varela Round';-inkscape-font-specification:'Varela Round';fill:#ffffff;stroke-width:21.6202;stroke-linecap:square"
     inkscape:label="text4"
     aria-label="Music"
     transform="matrix(0.27268306,0,0,0.27268306,524.38076,91.401819)" />
</svg>
