<svg viewBox="0 0 108 108" fill="none" stroke-linecap="square" stroke-miterlimit="10" xmlns="http://www.w3.org/2000/svg"><clipPath id="a"><path d="M0 0h108v108H0z"/></clipPath><g clip-path="url(#a)"><path d="M0 0h108v108H0z"/><defs><linearGradient id="b" gradientUnits="userSpaceOnUse" gradientTransform="rotate(41.086)scale(9.37503)" spreadMethod="pad" x1="4.556" y1="4.119" x2="11.622" y2="4.119"><stop offset="0" stop-color="#f468b9"/><stop offset="1" stop-color="#2314c1"/></linearGradient></defs><path fill="url(#b)" d="M28.58 32.22a32.35 32.35 0 0 1 46.236-3.622c6.62 5.773 10.728 13.983 11.419 22.825.69 8.842-2.091 17.592-7.734 24.325-11.75 14.02-32.45 15.642-46.236 3.622S16.83 46.24 28.58 32.22m4.86 4.237C23.975 47.75 25.304 64.75 36.405 74.43a26.05 26.05 0 0 0 37.236-2.918c9.463-11.291 8.135-28.292-2.967-37.971a26.05 26.05 0 0 0-37.236 2.917" fill-rule="evenodd"/></g></svg>