<svg viewBox="0 0 108 108" fill="none" stroke-linecap="square" stroke-miterlimit="10" xmlns="http://www.w3.org/2000/svg"><clipPath id="a"><path d="M0 0h108v108H0z"/></clipPath><g clip-path="url(#a)"><path d="M0 0h108v108H0z"/><path fill="#000" d="M53.818 26.85c-14.61 0-26.453 12.082-26.453 26.986s11.843 26.987 26.453 26.987S80.27 68.741 80.27 53.836 68.428 26.85 53.818 26.85" fill-rule="evenodd"/><path d="M32.375 30.69h43.37v45.7h-43.37z"/><defs><linearGradient id="b" gradientUnits="userSpaceOnUse" gradientTransform="rotate(45.306)scale(6.29957)" spreadMethod="pad" x1="9.911" y1="2.182" x2="14.389" y2="2.182"><stop offset="0" stop-color="#f468b9"/><stop offset="1" stop-color="#2314c1"/></linearGradient></defs><path fill="url(#b)" d="M64.009 44.13a13.924 13.924 0 0 0-19.84 0c-5.479 5.538-5.479 14.516 0 20.054a13.924 13.924 0 0 0 19.84 0c5.478-5.538 5.478-14.516 0-20.054" fill-rule="evenodd"/><path d="M54.547 37.385 70.516 53.73 54.2 70.456 38.232 54.109z"/><path fill="#fff" d="M45.038 40.219c1.403 0 2.54 1.183 2.54 2.643v22.853c0 1.46-1.137 2.643-2.54 2.643-1.402 0-2.54-1.183-2.54-2.643V42.862c0-1.46 1.138-2.643 2.54-2.643" fill-rule="evenodd"/><path d="M42.499 39.71h4.976v28.598H42.5z"/><path fill="#fff" d="M64.2 40.9a2.684 2.684 0 0 1 .119 3.733L53.807 56.114a2.54 2.54 0 0 1-3.647.121 2.684 2.684 0 0 1-.12-3.732L60.552 41.02a2.54 2.54 0 0 1 3.648-.12" fill-rule="evenodd"/><path d="m62.657 38.723 3.765 3.61-14.382 15.71-3.766-3.61z"/><path fill="#fff" d="M50.162 52.41a2.544 2.544 0 0 1 3.65.127l10.5 11.494a2.68 2.68 0 0 1-.127 3.73 2.544 2.544 0 0 1-3.65-.127l-10.5-11.494a2.68 2.68 0 0 1 .127-3.73" fill-rule="evenodd"/><path d="m47.933 53.839 3.776-3.602 14.366 15.726-3.776 3.602z"/><path fill="#fff" d="M62.442 40.23c.679 0 1.33.276 1.81.767s.75 1.158.75 1.852v23.003a2.65 2.65 0 0 1-.75 1.852 2.53 2.53 0 0 1-1.81.768 2.53 2.53 0 0 1-1.811-.768 2.65 2.65 0 0 1-.75-1.852V42.85c0-.694.27-1.36.75-1.852a2.53 2.53 0 0 1 1.81-.767" fill-rule="evenodd"/><path d="M59.88 39.72h5.126v28.75h-5.125z"/><path fill="#fff" d="M58.087 47.603c1.116 0 2.187.454 2.976 1.261a4.36 4.36 0 0 1 1.233 3.044v4.505a4.36 4.36 0 0 1-1.233 3.044 4.16 4.16 0 0 1-2.976 1.261 4.16 4.16 0 0 1-2.976-1.26 4.36 4.36 0 0 1-1.232-3.045v-4.505c0-1.142.443-2.237 1.232-3.044a4.16 4.16 0 0 1 2.976-1.26" fill-rule="evenodd"/><path d="M53.879 47.094h8.414v13.624h-8.414z"/><defs><linearGradient id="c" gradientUnits="userSpaceOnUse" gradientTransform="scale(2.78885)" spreadMethod="pad" x1="11.125" y1="18.413" x2="13.914" y2="18.413"><stop offset="0" stop-color="#f368b9"/><stop offset="1" stop-color="#df60ba"/></linearGradient></defs><path fill="url(#c)" d="M31.025 51.252a23.72 23.72 0 0 1 7.12-14.37l.658.687a22.77 22.77 0 0 0-6.833 13.783z" fill-rule="evenodd"/><defs><linearGradient id="d" gradientUnits="userSpaceOnUse" gradientTransform="scale(2.69699)" spreadMethod="pad" x1="25.883" y1="26.134" x2="28.58" y2="26.134"><stop offset="0" stop-color="#2615c1"/><stop offset="1" stop-color="#3b1dc0"/></linearGradient></defs><path fill="url(#d)" d="M77.079 55.593a23.7 23.7 0 0 1-6.59 14.89l-.684-.663a22.75 22.75 0 0 0 6.323-14.28z" fill-rule="evenodd"/><defs><linearGradient id="e" gradientUnits="userSpaceOnUse" gradientTransform="scale(2.41622)" spreadMethod="pad" x1="27.726" y1="27.835" x2="30.142" y2="27.835"><stop offset="0" stop-color="#2414c0"/><stop offset="1" stop-color="#3a1ec1"/></linearGradient></defs><path fill="url(#e)" d="M72.83 55.444a19.2 19.2 0 0 1-5.25 11.812l-.589-.562a18.38 18.38 0 0 0 5.027-11.31z" fill-rule="evenodd"/><defs><linearGradient id="f" gradientUnits="userSpaceOnUse" gradientTransform="scale(2.50381)" spreadMethod="pad" x1="13.967" y1="20.798" x2="16.471" y2="20.798"><stop offset="0" stop-color="#f267b9"/><stop offset="1" stop-color="#f267b9"/></linearGradient></defs><path fill="url(#f)" d="M34.972 51.984a19.2 19.2 0 0 1 5.574-11.861l.695.697a18.2 18.2 0 0 0-5.29 11.253z" fill-rule="evenodd"/></g></svg>