<?xml version="1.0" encoding="UTF-8" standalone="no"?>
<!DOCTYPE svg PUBLIC "-//W3C//DTD SVG 20010904//EN"
              "http://www.w3.org/TR/2001/REC-SVG-20010904/DTD/svg10.dtd">

<svg xmlns="http://www.w3.org/2000/svg"
     width="3.6in" height="3.6in"
     viewBox="0 0 1080 1080">
  <path id="Selection"
        fill="white" stroke="none" stroke-width="1"
        d="M 503.00,0.21
           C 503.00,0.21 570.00,0.21 570.00,0.21
             570.00,0.21 611.00,3.85 611.00,3.85
             647.60,8.22 688.40,18.29 723.00,30.95
             767.46,47.21 806.96,67.12 846.00,94.02
             956.63,170.27 1033.95,284.54 1064.88,415.00
             1071.95,444.80 1076.00,474.52 1078.09,505.00
             1078.09,505.00 1079.00,515.00 1079.00,515.00
             1079.00,515.00 1079.00,563.00 1079.00,563.00
             1079.00,563.00 1077.96,575.00 1077.96,575.00
             1077.96,575.00 1077.96,584.00 1077.96,584.00
             1074.65,617.34 1069.56,650.67 1060.58,683.00
             1026.80,804.50 953.48,910.64 850.00,983.28
             807.39,1013.19 762.14,1035.66 713.00,1052.66
             681.98,1063.38 649.45,1070.59 617.00,1075.27
             617.00,1075.27 581.00,1079.09 581.00,1079.09
             581.00,1079.09 569.00,1080.00 569.00,1080.00
             569.00,1080.00 508.00,1080.00 508.00,1080.00
             508.00,1080.00 498.00,1079.09 498.00,1079.09
             498.00,1079.09 469.00,1076.15 469.00,1076.15
             432.67,1071.81 391.35,1061.62 357.00,1049.05
             288.55,1024.02 230.13,988.80 176.00,939.83
             176.00,939.83 152.96,917.00 152.96,917.00
             152.96,917.00 141.17,905.00 141.17,905.00
             73.30,829.98 27.38,737.58 9.42,638.00
             5.64,617.01 3.36,596.23 1.91,575.00
             1.91,575.00 1.00,563.00 1.00,563.00
             1.00,563.00 1.00,514.00 1.00,514.00
             1.00,514.00 1.91,504.00 1.91,504.00
             1.91,504.00 4.85,472.00 4.85,472.00
             10.04,428.56 20.87,385.88 36.42,345.00
             77.45,237.15 154.63,143.72 252.00,82.05
             286.77,60.03 324.26,42.48 363.00,28.69
             394.50,17.48 431.85,8.75 465.00,4.28
             465.00,4.28 492.00,1.17 492.00,1.17
             492.00,1.17 503.00,0.21 503.00,0.21 Z
           M 713.00,245.14
           C 693.04,248.60 686.18,255.76 672.91,270.00
             672.91,270.00 659.83,284.00 659.83,284.00
             659.83,284.00 623.09,323.00 623.09,323.00
             623.09,323.00 598.00,350.00 598.00,350.00
             598.00,350.00 573.91,376.00 573.91,376.00
             573.91,376.00 524.09,429.00 524.09,429.00
             524.09,429.00 487.99,468.00 487.99,468.00
             487.99,468.00 462.83,495.00 462.83,495.00
             455.21,503.43 450.25,507.93 446.06,519.00
             442.83,527.55 442.90,533.12 443.00,542.00
             443.24,562.18 454.10,573.25 466.91,587.00
             466.91,587.00 495.58,618.00 495.58,618.00
             495.58,618.00 519.91,644.00 519.91,644.00
             519.91,644.00 571.91,700.00 571.91,700.00
             571.91,700.00 623.91,756.00 623.91,756.00
             623.91,756.00 648.00,782.00 648.00,782.00
             659.94,794.15 681.12,820.59 695.00,827.63
             705.33,832.87 712.83,833.13 724.00,833.00
             753.26,832.65 774.96,806.12 775.00,778.00
             775.00,778.00 775.00,364.00 775.00,364.00
             775.00,364.00 775.00,320.00 775.00,320.00
             775.00,320.00 775.00,299.00 775.00,299.00
             774.96,275.59 761.00,256.10 739.00,248.05
             731.82,245.43 727.52,244.99 720.00,245.14
             720.00,245.14 713.00,245.14 713.00,245.14 Z
           M 344.00,246.15
           C 322.63,250.28 305.62,264.67 299.92,286.00
             297.18,296.28 298.00,309.25 298.00,320.00
             298.00,320.00 298.00,374.00 298.00,374.00
             298.00,374.00 298.00,774.00 298.00,774.00
             298.01,782.37 299.64,791.44 303.37,799.00
             319.37,831.44 361.62,840.25 389.00,816.70
             394.53,811.94 399.40,805.56 402.63,799.00
             406.49,791.17 407.99,781.66 408.00,773.00
             408.00,773.00 408.00,364.00 408.00,364.00
             408.00,364.00 408.00,322.00 408.00,322.00
             408.00,311.08 408.79,298.58 406.55,288.00
             402.83,270.43 389.55,255.71 373.00,249.20
             366.31,246.57 362.11,246.01 355.00,246.15
             355.00,246.15 344.00,246.15 344.00,246.15 Z" />
</svg>
