<?xml version="1.0" encoding="UTF-8" standalone="no"?>
<!-- Created with Inkscape (http://www.inkscape.org/) -->

<svg width="108" height="108" viewBox="0 0 108 108" version="1.1" id="svg1" xml:space="preserve"
        xmlns:xlink="http://www.w3.org/1999/xlink" xmlns="http://www.w3.org/2000/svg"><defs
     id="defs1"><linearGradient
       id="linearGradient27"><stop
         style="stop-color:#f468b9;stop-opacity:1;"
         offset="0"
         id="stop27" /><stop
         style="stop-color:#2314c1;stop-opacity:1;"
         offset="1"
         id="stop28" /></linearGradient><linearGradient
       xlink:href="#linearGradient27"
       id="linearGradient28"
       x1="32.361782"
       y1="25.433466"
       x2="54.097103"
       y2="40.652702"
       gradientUnits="userSpaceOnUse"
       gradientTransform="translate(10.588057,20.793417)" /></defs><g
     id="layer1"
     transform="matrix(1.0794128,0,0,1.0794128,-4.2882912,-4.2882912)"><g
       id="g26"
       style="display:inline;fill:none;stroke-linecap:square;stroke-miterlimit:10"
       transform="matrix(0.97987752,0,0,0.97987752,1.0866139,1.0866139)"><circle
         style="fill:#000000;fill-opacity:1;fill-rule:evenodd;stroke:none;stroke-width:0.978898;stroke-linecap:round;stroke-linejoin:round;stroke-dasharray:none;stroke-opacity:1"
         id="path26"
         cx="54"
         cy="54"
         r="26" /><circle
         style="fill:url(#linearGradient28);fill-rule:evenodd;stroke:none;stroke-width:0.999;stroke-linecap:round;stroke-linejoin:round;stroke-dasharray:none;stroke-opacity:1"
         id="path27"
         cx="54"
         cy="54"
         r="14" /></g><g
       id="g13"
       style="display:inline;fill:none;stroke-linecap:square;stroke-miterlimit:10"><path
         d="M 77.08,55.59 A 23.7,23.7 0 0 1 70.49,70.48 L 69.81,69.82 A 22.75,22.75 0 0 0 76.13,55.54 Z"
         fill-rule="evenodd"
         id="path19"
         style="display:inline;fill:#2615c1;fill-opacity:1" /><path
         d="M 72.83,55.44 A 19.2,19.2 0 0 1 67.58,67.25 L 66.99,66.69 A 18.38,18.38 0 0 0 72.02,55.38 Z"
         fill-rule="evenodd"
         id="path21"
         style="display:inline;fill:#2414c0;fill-opacity:1" /><path
         d="m 34.97,51.98 a 19.2,19.2 0 0 1 5.57,-11.86 l 0.69,0.7 a 18.2,18.2 0 0 0 -5.29,11.25 z"
         fill-rule="evenodd"
         id="path23"
         style="display:inline;fill:#f267b9;fill-opacity:1" /><path
         d="m 31.02,51.25 a 23.72,23.72 0 0 1 7.12,-14.37 l 0.66,0.69 a 22.77,22.77 0 0 0 -6.83,13.78 z"
         fill-rule="evenodd"
         id="path17"
         style="display:inline;fill:#f368b9;fill-opacity:1;stroke-linecap:square;stroke-miterlimit:10" /></g><g
       style="display:inline;fill:none;stroke-linecap:square;stroke-miterlimit:10"
       id="g12"
       transform="translate(0.13724767,0.09551535)"><path
         fill="#ffffff"
         d="m 43.55,37.2 c 1.89,-0.05 3.25,1.86 3.01,3.64 -0.01,8.96 0.02,17.91 -0.02,26.87 -0.09,2.08 -2.62,3.55 -4.43,2.43 -1.4,-0.72 -1.68,-2.36 -1.57,-3.78 0.01,-8.78 -0.02,-17.57 0.02,-26.35 0.12,-1.51 1.45,-2.84 2.99,-2.81 z"
         fill-rule="evenodd"
         id="path7"
         style="display:inline;fill:#ffffff;fill-opacity:1;stroke-width:1.18299;stroke-linecap:square;stroke-miterlimit:10;stroke-dasharray:none" /><path
         id="path9"
         style="display:inline;fill:#ffffff;fill-opacity:1;stroke-width:1.18417;stroke-linecap:square;stroke-miterlimit:10"
         d="m 64.05,37.16 c -1.78,0.03 -2.67,1.72 -3.81,2.82 -3.63,3.97 -7.28,7.93 -10.9,11.92 -1.13,1.37 -0.79,3.48 0.53,4.6 4.07,4.45 8.13,8.92 12.22,13.36 1.5,1.5 4.36,0.76 4.93,-1.29 0.33,-1.39 0.11,-2.85 0.17,-4.27 0,-8.13 0.01,-16.27 -0.01,-24.4 -0.16,-1.53 -1.57,-2.82 -3.13,-2.74 z" /></g></g></svg>
