<?xml version="1.0" encoding="UTF-8" standalone="no"?>
<!-- Created with Inkscape (http://www.inkscape.org/) -->

<svg width="108" height="108" viewBox="0 0 108 108" version="1.1" id="svg1" xml:space="preserve"
        xmlns="http://www.w3.org/2000/svg"><defs
     id="defs1" /><path
     id="path28"
     style="fill:#ffffff;fill-opacity:1;fill-rule:evenodd;stroke:none;stroke-width:1.06789;stroke-linecap:round;stroke-linejoin:round;stroke-dasharray:none;stroke-opacity:1"
     d="M 54,18 A 36,36 0 0 0 18,54 36,36 0 0 0 54,90 36,36 0 0 0 90,54 36,36 0 0 0 54,18 Z m 11.35,18 c 1.64,-0.11 3.16,1.31 3.38,2.95 0,8.84 0,17.78 0,26.62 0,1.53 0.22,3.16 -0.22,4.69 -0.55,2.18 -3.71,2.94 -5.35,1.3 C 58.69,66.76 54.33,61.85 49.85,57.05 48.44,55.85 48,53.56 49.31,52.04 53.24,47.67 57.16,43.31 61.2,39.05 62.4,37.85 63.38,36 65.35,36 Z m -22.36,0 c 2.07,-0.11 3.49,2.07 3.27,3.93 0,9.82 0,19.53 0,29.35 -0.11,2.28 -2.84,3.92 -4.91,2.61 -1.53,-0.76 -1.75,-2.51 -1.64,-4.04 0,-9.6 -0.11,-19.2 0,-28.8 C 39.82,37.42 41.24,36 42.98,36 Z" /></svg>
