<?xml version="1.0" encoding="UTF-8" standalone="no"?>
<!-- Created with Inkscape (http://www.inkscape.org/) -->

<svg width="512" height="512" viewBox="0 0 512 512" version="1.1" id="svg1" xml:space="preserve"
        xmlns="http://www.w3.org/2000/svg"><defs
     id="defs1" /><g
     id="layer1"
     transform="matrix(0.9880645,0,0,0.9880645,3.0554879,3.0554879)"><path
       id="path3"
       style="display:inline;fill:#ffffff;fill-rule:evenodd;stroke:none;stroke-width:5.91632;stroke-linecap:round;stroke-linejoin:round"
       d="M 256.48427,55.031405 A 200.36592,200.36592 0 0 0 56.118348,255.39733 200.36592,200.36592 0 0 0 256.48427,455.76326 200.36592,200.36592 0 0 0 456.8502,255.39733 200.36592,200.36592 0 0 0 256.48427,55.031405 Z m -54.48488,93.968915 a 20,20 0 0 1 20.00113,19.9996 v 172.99966 a 20,20 0 0 1 -20.00113,20.00113 20,20 0 0 1 -19.9996,-20.00113 V 168.99992 a 20,20 0 0 1 19.9996,-19.9996 z m 133.16251,0.0183 a 20,20 0 0 1 5.20206,0.46318 20,20 0 0 1 9.17356,4.79544 20,20 0 0 1 1.18472,28.26054 l -67.48011,73.38384 67.40214,72.45593 a 20,20 0 0 1 -1.02115,28.26665 20,20 0 0 1 -28.26818,-1.02115 l -79.99992,-85.99996 a 20.002,20.002 0 0 1 -0.078,-27.15989 l 79.99992,-86.99971 a 20,20 0 0 1 13.88492,-6.44487 z"
       transform="matrix(1.2930961,0,0,1.2930961,-75.658814,-74.253293)" /></g></svg>
