<!--

    @author Jaime López

    Copyright © 2024 Jaime López  
    https://jaim3.com
    

This work is licensed under the GNU General Public License v3.0 or later.
To view a copy of this license, visit https://www.gnu.org/licenses/gpl-3.0.html

-->

<svg xmlns="http://www.w3.org/2000/svg" viewBox="0 0 512 512"><defs><style>.a{fill:#58cc86;}</style></defs><path class="a" d="M255-.5C113.6-.5-1,114.1-1,255.5s114.6,256,256,256a256.51,256.51,0,0,0,81.9-13.4l-38.1-66a30.26,30.26,0,0,1-3.8-11.3,29.92,29.92,0,0,1,.9-11.9,29.59,29.59,0,0,1,5.4-10.6,30.62,30.62,0,0,1,9.1-7.7c14.4-8,32.6-2.5,40.9,11.7L391.5,472A255.46,255.46,0,0,0,511,255.5C511,114.1,396.4-.5,255-.5Zm55.4,358.3a34.23,34.23,0,0,1-53.8,7.1,34.48,34.48,0,0,1-9.7-19.7,33.9,33.9,0,0,1,4.3-21.6,34.75,34.75,0,0,1,16.5-14.5,34.31,34.31,0,0,1,40.2,10.8,34.19,34.19,0,0,1,7.1,20.8A35.31,35.31,0,0,1,310.4,357.8Zm116.4-75.5a57.29,57.29,0,0,1-21.4,21.2l-33.2,19.1a30.29,30.29,0,0,1-23,3.4,30.44,30.44,0,0,1-10.7-5.2,29,29,0,0,1-7.8-8.9,30.39,30.39,0,0,1-3.8-11.2,29.29,29.29,0,0,1,.9-11.8,31.32,31.32,0,0,1,5.4-10.6,33.18,33.18,0,0,1,9-7.7l11.6-6.7a12.48,12.48,0,0,0,4.7-4.7,14.72,14.72,0,0,0,1.8-6.5,13.41,13.41,0,0,0-1.7-6.5,12.73,12.73,0,0,0-4.7-4.8L208.3,154.3a13.62,13.62,0,0,0-6.5-1.9,13.79,13.79,0,0,0-6.6,1.7,12.31,12.31,0,0,0-4.8,4.8,12.85,12.85,0,0,0-1.8,6.6V390.6a30.1,30.1,0,1,1-60.2,0v-251a58.16,58.16,0,0,1,29.3-50.8l.4-.2a56.94,56.94,0,0,1,29.6-7.7,57.61,57.61,0,0,1,29.4,8.4L406.2,202.5a58.76,58.76,0,0,1,20.6,79.8Z"/></svg>