<!--

    @author Jaime López

    Copyright © 2024 Jaime López  
    https://jaim3.com
    

This work is licensed under the GNU General Public License v3.0 or later.
To view a copy of this license, visit https://www.gnu.org/licenses/gpl-3.0.html

-->

<svg xmlns="http://www.w3.org/2000/svg" viewBox="0 0 512 512"><defs><style>.a{fill:#58cc86;}</style></defs><path class="a" d="M292,305.38a31.73,31.73,0,1,0,18.61,28.95A33.24,33.24,0,0,0,304,315,31.93,31.93,0,0,0,292,305.38Z"/><path class="a" d="M414.53,226.3a53.83,53.83,0,0,0-19.52-20L220,101.55a53.81,53.81,0,0,0-54.67-.64l-.36.18a53.62,53.62,0,0,0-27.05,47V380.58a27.88,27.88,0,0,0,55.76,0V172.14a11.85,11.85,0,0,1,1.63-6.06,12,12,0,0,1,10.58-6,11.73,11.73,0,0,1,6.07,1.72l134.76,80.64A12,12,0,0,1,351,246.9a12.49,12.49,0,0,1,1.54,6,11.63,11.63,0,0,1-1.63,6,12.7,12.7,0,0,1-4.43,4.34l-10.75,6.25a28.3,28.3,0,0,0-13.3,16.92,27.82,27.82,0,0,0,19.8,34.41,27.34,27.34,0,0,0,21.26-3.09l30.78-17.74a54.26,54.26,0,0,0,19.82-19.64,54.76,54.76,0,0,0,.42-54Z"/><path class="a" d="M255-.5C113.84-.5-1,114.34-1,255.5s114.84,256,256,256,256-114.84,256-256S396.16-.5,255-.5ZM374.8,445.1,344,391.61c-7.61-13.23-24.44-18.28-37.83-10.86a27.74,27.74,0,0,0-8.42,7.16,27.65,27.65,0,0,0-2.26,31.15l28.8,49.85a223.49,223.49,0,0,1-69.26,11c-123.73,0-224.4-100.66-224.4-224.39S131.27,31.11,255,31.11,479.4,131.77,479.4,255.5C479.4,335.2,437.59,405.28,374.8,445.1Z"/></svg>