<!--

    @author Jaime López

    Copyright © 2024 Jaime López  
    https://jaim3.com
    

This work is licensed under the GNU General Public License v3.0 or later.
To view a copy of this license, visit https://www.gnu.org/licenses/gpl-3.0.html

-->

<svg width="500" height="250" viewBox="0 0 500 250" fill="none" xmlns="http://www.w3.org/2000/svg">
<path d="M305.807 87.7033C307.788 84.4886 308.762 80.6178 308.762 76.0201C308.762 71.5248 307.788 67.6225 305.872 64.3028C303.935 60.9931 301.064 58.3432 297.628 56.6925C294.092 54.9185 289.872 54 284.97 54H258V120H273.774V97.4314H281.854L293.798 120H311L297.467 94.8938C301.068 93.2825 303.86 90.8865 305.807 87.7033ZM273.774 66.9297H281.563C283.931 66.9297 285.913 67.2577 287.535 67.9453C289.048 68.5262 290.334 69.5857 291.202 70.9658C292.045 72.312 292.435 73.9863 292.435 76.0201C292.435 78.0539 292.014 79.7177 291.202 81.0298C290.315 82.3626 289.031 83.374 287.535 83.9165C285.944 84.5411 283.965 84.835 281.563 84.835H273.774V66.9297Z" fill="#4AD17F"/>
<path d="M333 78H317V120H333V78Z" fill="#4AD17F"/>
<path d="M325.003 70C323.42 70.0005 321.873 69.5318 320.557 68.653C319.241 67.7743 318.216 66.5251 317.61 65.0633C317.004 63.6015 316.845 61.9929 317.153 60.4409C317.462 58.8889 318.223 57.4632 319.342 56.3441C320.461 55.225 321.886 54.4628 323.438 54.1539C324.99 53.845 326.599 54.0033 328.061 54.6087C329.523 55.2141 330.772 56.2395 331.652 57.5552C332.531 58.8708 333 60.4176 333 62C332.998 64.1206 332.155 66.1539 330.655 67.6536C329.156 69.1534 327.123 69.9972 325.003 70Z" fill="#4AD17F"/>
<path d="M262.997 131.836C263.99 131.843 264.958 132.142 265.783 132.697C266.607 133.252 267.251 134.039 267.634 134.959L285.921 179.874C285.954 179.97 286.015 180.053 286.097 180.112C286.179 180.171 286.277 180.202 286.378 180.202C286.479 180.202 286.577 180.171 286.659 180.112C286.741 180.053 286.803 179.97 286.835 179.874L305.122 134.959C305.562 133.882 306.361 132.992 307.381 132.441C308.401 131.89 309.58 131.711 310.716 131.936C311.853 132.16 312.877 132.774 313.613 133.673C314.35 134.571 314.754 135.699 314.756 136.864V186.769C314.756 187.639 314.412 188.474 313.8 189.09C313.187 189.706 312.357 190.052 311.491 190.052C310.625 190.052 309.794 189.706 309.182 189.09C308.569 188.474 308.225 187.639 308.225 186.769V146.162C308.225 146.074 308.19 145.991 308.128 145.929C308.066 145.868 307.983 145.833 307.896 145.833C307.831 145.84 307.768 145.861 307.712 145.895C307.656 145.929 307.608 145.975 307.572 146.03L290.754 187.126C290.398 187.999 289.792 188.747 289.013 189.273C288.234 189.799 287.317 190.08 286.378 190.081C285.438 190.087 284.518 189.808 283.737 189.281C282.957 188.754 282.352 188.003 282.002 187.126L265.184 146.02C265.157 145.957 265.111 145.905 265.053 145.869C264.995 145.834 264.928 145.818 264.86 145.823C264.773 145.823 264.69 145.857 264.628 145.919C264.567 145.98 264.532 146.064 264.531 146.151V186.763C264.531 187.634 264.187 188.469 263.574 189.085C262.962 189.701 262.131 190.047 261.265 190.047C260.399 190.047 259.569 189.701 258.956 189.085C258.344 188.469 258 187.634 258 186.763V136.858C258.001 135.527 258.528 134.25 259.465 133.308C260.402 132.366 261.673 131.837 262.997 131.836ZM349.694 172.21V149.742C349.718 148.87 350.08 148.041 350.702 147.433C351.324 146.824 352.158 146.484 353.026 146.484C353.894 146.484 354.727 146.824 355.35 147.433C355.972 148.041 356.334 148.87 356.358 149.742V186.732C356.334 187.604 355.972 188.432 355.35 189.041C354.727 189.649 353.894 189.99 353.026 189.99C352.158 189.99 351.324 189.649 350.702 189.041C350.08 188.432 349.718 187.604 349.694 186.732V182.69H349.237C348.181 184.96 346.548 186.91 344.503 188.342C342.348 189.884 339.639 190.64 336.371 190.64C333.662 190.64 331.245 190.049 329.124 188.833C326.95 187.574 325.216 185.669 324.161 183.38C322.951 180.951 322.363 177.865 322.363 174.151V149.742C322.363 148.854 322.714 148.002 323.339 147.374C323.963 146.746 324.811 146.393 325.694 146.393C326.577 146.393 327.425 146.746 328.049 147.374C328.674 148.002 329.025 148.854 329.025 149.742V173.691C329.025 176.877 329.908 179.406 331.671 181.308C333.434 183.21 335.752 184.166 338.526 184.166C340.29 184.139 342.023 183.7 343.589 182.884C345.36 181.998 346.861 180.647 347.933 178.976C349.109 177.205 349.694 174.97 349.694 172.212V172.21ZM390.251 157.196C389.61 157.374 388.93 157.343 388.308 157.107C387.687 156.871 387.156 156.442 386.792 155.883C386.596 155.589 386.366 155.26 386.139 154.963C385.355 153.948 384.349 153.128 383.2 152.565C381.959 151.94 380.358 151.612 378.432 151.612C375.786 151.612 373.566 152.237 371.802 153.451C370.039 154.664 369.19 156.208 369.19 158.081C369.19 159.757 369.778 161.07 370.987 162.021C372.197 162.972 374.088 163.794 376.635 164.451L383.067 166.027C386.954 166.977 389.827 168.425 391.755 170.36C393.683 172.296 394.595 174.797 394.595 177.851C394.623 180.261 393.866 182.614 392.44 184.552C391.034 186.524 389.044 188.066 386.497 189.217C383.95 190.367 380.979 190.924 377.615 190.924C373.174 190.924 369.516 189.973 366.611 188.035C364.826 186.866 363.374 185.25 362.398 183.346C362.18 182.908 362.063 182.427 362.056 181.937C362.048 181.448 362.15 180.963 362.354 180.518C362.558 180.074 362.859 179.681 363.234 179.369C363.609 179.057 364.049 178.834 364.522 178.716L364.652 178.681C365.369 178.514 366.12 178.591 366.788 178.901C367.456 179.21 368.002 179.735 368.341 180.391C368.934 181.545 369.797 182.537 370.857 183.281C372.551 184.462 374.771 185.053 377.515 185.053C380.619 185.053 383.101 184.397 384.929 183.049C386.758 181.702 387.706 180.092 387.706 178.222C387.725 177.508 387.591 176.799 387.315 176.142C387.039 175.485 386.626 174.895 386.105 174.411C385.06 173.36 383.427 172.604 381.238 172.078L373.991 170.368C370.008 169.417 367.1 167.939 365.24 165.969C363.38 163.999 362.463 161.435 362.463 158.446C362.426 156.1 363.149 153.806 364.522 151.909C365.924 150.004 367.818 148.526 370.203 147.444C372.589 146.361 375.363 145.833 378.398 145.833C382.709 145.833 386.071 146.787 388.521 148.691C389.907 149.737 391.091 151.028 392.014 152.502C392.283 152.911 392.451 153.378 392.505 153.865C392.56 154.352 392.498 154.845 392.326 155.304C392.154 155.762 391.876 156.173 391.515 156.502C391.154 156.832 390.721 157.07 390.251 157.199V157.196ZM399.07 186.732V149.742C399.058 149.294 399.134 148.849 399.296 148.432C399.458 148.015 399.701 147.634 400.012 147.313C400.322 146.992 400.693 146.737 401.103 146.563C401.513 146.389 401.954 146.299 402.399 146.299C402.845 146.299 403.285 146.389 403.696 146.563C404.106 146.737 404.477 146.992 404.787 147.313C405.098 147.634 405.341 148.015 405.503 148.432C405.665 148.849 405.741 149.294 405.729 149.742V186.732C405.741 187.179 405.665 187.625 405.503 188.042C405.341 188.459 405.098 188.839 404.787 189.16C404.477 189.481 404.106 189.736 403.696 189.911C403.285 190.085 402.845 190.174 402.399 190.174C401.954 190.174 401.513 190.085 401.103 189.911C400.693 189.736 400.322 189.481 400.012 189.16C399.701 188.839 399.458 188.459 399.296 188.042C399.134 187.625 399.058 187.179 399.07 186.732ZM402.466 139.133C401.212 139.147 400.003 138.663 399.101 137.786C398.668 137.37 398.323 136.871 398.087 136.318C397.852 135.764 397.73 135.169 397.73 134.567C397.73 133.965 397.852 133.369 398.087 132.816C398.323 132.263 398.668 131.763 399.101 131.348C400.003 130.471 401.212 129.987 402.466 130.001C403.082 129.991 403.695 130.106 404.266 130.337C404.838 130.568 405.359 130.912 405.797 131.348C406.239 131.758 406.592 132.256 406.833 132.81C407.075 133.364 407.2 133.962 407.2 134.567C407.2 135.172 407.075 135.77 406.833 136.324C406.592 136.878 406.239 137.376 405.797 137.786C404.905 138.656 403.709 139.14 402.466 139.133ZM430.024 191C425.943 191 422.448 190.049 419.512 188.111C416.575 186.172 414.318 183.512 412.72 180.129C411.121 176.746 410.337 172.869 410.337 168.501C410.337 164.065 411.155 160.156 412.754 156.739C414.352 153.322 416.672 150.664 419.611 148.757C422.55 146.85 425.98 145.868 429.898 145.868C432.965 145.868 435.711 146.424 438.159 147.575C441.38 149.017 444.018 151.518 445.638 154.667C445.835 155.055 445.955 155.478 445.989 155.913C446.024 156.348 445.973 156.785 445.84 157.2C445.706 157.615 445.493 157.999 445.212 158.331C444.931 158.663 444.587 158.936 444.201 159.134C443.815 159.333 443.394 159.453 442.962 159.488C442.529 159.523 442.094 159.472 441.682 159.337C441.269 159.203 440.887 158.989 440.557 158.706C440.226 158.423 439.955 158.078 439.758 157.69C439.09 156.353 438.157 155.168 437.017 154.207C435.285 152.665 432.934 151.875 429.995 151.875C427.556 151.834 425.163 152.545 423.138 153.913C421.124 155.354 419.551 157.334 418.6 159.628C417.521 162.058 416.999 164.95 416.999 168.236C416.999 171.619 417.521 174.539 418.566 177.037C419.611 179.535 421.147 181.473 423.106 182.852C425.066 184.231 427.351 184.922 429.995 184.922C431.62 184.947 433.232 184.634 434.731 184.003C436.116 183.422 437.346 182.523 438.321 181.376C438.903 180.705 439.387 179.953 439.758 179.144C440.028 178.583 440.45 178.11 440.975 177.78C441.5 177.449 442.108 177.275 442.728 177.276C445.11 177.276 446.712 179.771 445.667 181.907C445.274 182.721 444.815 183.501 444.295 184.239C442.771 186.324 440.765 188.004 438.451 189.135C436.035 190.409 433.227 191 430.024 191Z" fill="#4AD17F"/>
<g clip-path="url(#clip0_33_545)">
<path d="M139 211C186.496 211 225 172.496 225 125C225 77.5039 186.496 39 139 39C91.5039 39 53 77.5039 53 125C53 172.496 91.5039 211 139 211Z" fill="url(#paint0_linear_33_545)"/>
<path d="M139 39C91.5177 39 53 77.485 53 125C53 172.515 91.485 211 139 211C148.345 211.008 157.629 209.488 166.484 206.502L153.678 184.34C153.009 183.174 152.574 181.889 152.397 180.556C152.231 179.226 152.332 177.876 152.693 176.585C153.06 175.297 153.674 174.092 154.499 173.038C155.334 171.977 156.372 171.095 157.554 170.442C162.413 167.751 168.52 169.582 171.279 174.383L184.774 197.796C208.909 182.56 224.935 155.666 224.935 125.029C225 77.485 186.482 39 139 39ZM159.162 153.602C159.163 155.621 158.629 157.603 157.614 159.348C156.475 161.317 154.779 162.904 152.739 163.909C150.7 164.914 148.408 165.292 146.153 164.995C144.277 164.747 142.491 164.04 140.954 162.937C139.416 161.834 138.174 160.369 137.338 158.672C136.501 156.974 136.096 155.096 136.159 153.205C136.221 151.314 136.749 149.467 137.695 147.828C138.641 146.189 139.977 144.809 141.584 143.81C143.191 142.81 145.02 142.223 146.908 142.099C148.797 141.975 150.686 142.318 152.41 143.099C154.134 143.879 155.639 145.073 156.792 146.574C158.301 148.609 159.13 151.068 159.162 153.602ZM199.387 124.212C199.385 127.652 198.467 131.029 196.728 133.997C194.993 136.958 192.514 139.415 189.537 141.123L178.371 147.56C177.224 148.25 175.952 148.708 174.628 148.908C173.302 149.095 171.951 149.017 170.655 148.679C169.358 148.341 168.142 147.75 167.076 146.939C166.009 146.129 165.118 145.111 164.456 143.948C163.78 142.788 163.344 141.504 163.175 140.173C163.006 138.841 163.106 137.489 163.47 136.197C164.207 133.594 165.942 131.387 168.298 130.057L172.196 127.792C172.855 127.407 173.408 126.865 173.806 126.214C174.195 125.559 174.399 124.81 174.396 124.047C174.394 123.289 174.203 122.544 173.839 121.88C173.463 121.215 172.919 120.66 172.261 120.272L123.37 91.0145C122.707 90.6098 121.946 90.394 121.169 90.3902C120.394 90.3794 119.63 90.5743 118.956 90.955C118.281 91.3357 117.719 91.8887 117.328 92.5574C116.938 93.2248 116.734 93.9843 116.736 94.7572V170.38C116.736 173.063 115.671 175.635 113.774 177.532C111.877 179.429 109.305 180.494 106.623 180.494C103.94 180.494 101.368 179.429 99.4713 177.532C97.5747 175.635 96.5091 173.063 96.5091 170.38V86.0231C96.4821 82.5666 97.3769 79.1655 99.1014 76.1698C100.826 73.1741 103.318 70.6922 106.32 68.9796L106.452 68.9142C109.477 67.1756 112.912 66.28 116.401 66.3205C119.889 66.361 123.303 67.3363 126.286 69.1447L189.798 107.169C192.753 108.917 195.195 111.412 196.879 114.404C198.562 117.397 199.427 120.779 199.387 124.212Z" fill="url(#paint1_linear_33_545)"/>
</g>
<defs>
<linearGradient id="paint0_linear_33_545" x1="106.569" y1="56.3313" x2="174.713" y2="202.466" gradientUnits="userSpaceOnUse">
<stop stop-color="white"/>
<stop offset="0.194293" stop-color="white"/>
<stop offset="0.953372" stop-color="#BDECCF"/>
</linearGradient>
<linearGradient id="paint1_linear_33_545" x1="108.014" y1="45.6962" x2="163.947" y2="211" gradientUnits="userSpaceOnUse">
<stop offset="0.02" stop-color="#5DEA95"/>
<stop offset="0.163177" stop-color="#69DF98"/>
<stop offset="0.65" stop-color="#5BCC87"/>
<stop offset="1" stop-color="#4EC57C"/>
</linearGradient>
<clipPath id="clip0_33_545">
<rect width="172" height="172" fill="white" transform="translate(53 39)"/>
</clipPath>
</defs>
</svg>
