<!--

    @author Jaime López

    Copyright © 2024 Jaime López  
    https://jaim3.com
    

This work is licensed under the GNU General Public License v3.0 or later.
To view a copy of this license, visit https://www.gnu.org/licenses/gpl-3.0.html

-->

<svg width="1429" height="512" viewBox="0 0 1429 512" fill="none" xmlns="http://www.w3.org/2000/svg">
<path d="M112.964 95.2964C118.517 95.3304 123.937 97.0083 128.551 100.121C133.164 103.235 136.767 107.646 138.912 112.806L241.238 364.621C241.421 365.158 241.766 365.624 242.224 365.954C242.683 366.284 243.233 366.461 243.796 366.461C244.36 366.461 244.91 366.284 245.368 365.954C245.827 365.624 246.172 365.158 246.355 364.621L348.681 112.806C351.146 106.767 355.614 101.777 361.323 98.6854C367.031 95.5939 373.628 94.5925 379.987 95.8519C386.347 97.1113 392.076 100.554 396.198 105.592C400.32 110.63 402.58 116.953 402.593 123.482V403.276C402.593 408.158 400.668 412.84 397.241 416.292C393.814 419.745 389.166 421.684 384.32 421.684C379.474 421.684 374.826 419.745 371.399 416.292C367.973 412.84 366.048 408.158 366.048 403.276V175.612C366.044 175.123 365.848 174.654 365.503 174.31C365.158 173.965 364.692 173.771 364.206 173.771C363.841 173.806 363.488 173.924 363.174 174.115C362.86 174.306 362.593 174.566 362.393 174.876L268.282 405.279C266.292 410.176 262.902 414.366 258.542 417.316C254.181 420.266 249.049 421.843 243.796 421.846C238.536 421.881 233.386 420.319 229.019 417.364C224.652 414.409 221.269 410.198 219.311 405.279L125.2 174.817C125.049 174.466 124.793 174.171 124.469 173.973C124.144 173.775 123.766 173.684 123.387 173.712C122.901 173.712 122.435 173.906 122.09 174.251C121.745 174.595 121.549 175.064 121.545 175.553V403.247C121.545 408.129 119.62 412.811 116.193 416.263C112.767 419.715 108.119 421.654 103.273 421.654C98.4264 421.654 93.7787 419.715 90.3519 416.263C86.9251 412.811 85 408.129 85 403.247V123.453C85.0077 115.985 87.9569 108.826 93.2 103.547C98.4431 98.2675 105.552 95.3003 112.964 95.2964ZM598.095 321.65V195.684C598.231 190.793 600.255 186.149 603.737 182.738C607.219 179.327 611.884 177.419 616.741 177.419C621.597 177.419 626.262 179.327 629.744 182.738C633.226 186.149 635.25 190.793 635.386 195.684V403.07C635.25 407.961 633.226 412.605 629.744 416.016C626.262 419.426 621.597 421.335 616.741 421.335C611.884 421.335 607.219 419.426 603.737 416.016C600.255 412.605 598.231 407.961 598.095 403.07V380.407H595.537C589.632 393.136 580.494 404.068 569.049 412.097C556.989 420.741 541.83 424.983 523.543 424.983C508.384 424.983 494.862 421.669 482.992 414.851C470.825 407.791 461.123 397.113 455.218 384.28C448.45 370.658 445.161 353.355 445.161 332.533V195.684C445.161 190.704 447.124 185.928 450.62 182.407C454.115 178.886 458.856 176.908 463.799 176.908C468.742 176.908 473.483 178.886 476.978 182.407C480.473 185.928 482.437 190.704 482.437 195.684V329.955C482.437 347.818 487.378 361.999 497.245 372.661C507.112 383.323 520.078 388.683 535.603 388.683C545.471 388.532 555.17 386.071 563.933 381.497C573.845 376.528 582.243 368.958 588.243 359.584C594.821 349.659 598.095 337.127 598.095 321.665V321.65ZM825.041 237.476C821.457 238.474 817.651 238.298 814.172 236.975C810.693 235.651 807.722 233.249 805.687 230.113C804.59 228.464 803.304 226.623 802.032 224.959C797.646 219.266 792.019 214.666 785.587 211.514C778.643 208.009 769.682 206.169 758.909 206.169C744.101 206.169 731.675 209.673 721.808 216.477C711.941 223.28 707.19 231.939 707.19 242.439C707.19 251.834 710.479 259.197 717.247 264.528C724.015 269.859 734.599 274.468 748.852 278.149L784.841 286.985C806.593 292.316 822.673 300.43 833.461 311.283C844.249 322.136 849.351 336.155 849.351 353.282C849.506 366.794 845.271 379.986 837.291 390.848C829.427 401.907 818.288 410.551 804.035 417.001C789.782 423.451 773.161 426.573 754.333 426.573C729.483 426.573 709.017 421.242 692.762 410.374C682.772 403.822 674.646 394.763 669.183 384.088C667.966 381.633 667.312 378.933 667.27 376.189C667.228 373.445 667.798 370.726 668.939 368.234C670.08 365.741 671.762 363.539 673.861 361.79C675.961 360.04 678.423 358.788 681.067 358.126L681.798 357.935C685.807 356.995 690.012 357.428 693.75 359.164C697.488 360.9 700.545 363.84 702.439 367.522C705.759 373.991 710.59 379.55 716.516 383.72C725.999 390.347 738.419 393.66 753.778 393.66C771.144 393.66 785.031 389.979 795.264 382.424C805.497 374.87 810.803 365.843 810.803 355.358C810.906 351.359 810.16 347.384 808.615 343.699C807.07 340.014 804.76 336.704 801.842 333.99C795.995 328.1 786.859 323.859 774.609 320.914L734.058 311.327C711.765 305.996 695.496 297.706 685.087 286.661C674.679 275.617 669.548 261.244 669.548 244.486C669.343 231.333 673.386 218.47 681.067 207.833C688.917 197.156 699.515 188.866 712.862 182.798C726.208 176.731 741.733 173.771 758.719 173.771C782.839 173.771 801.652 179.117 815.364 189.793C823.118 195.655 829.742 202.897 834.908 211.161C836.412 213.453 837.354 216.071 837.658 218.802C837.961 221.532 837.618 224.296 836.654 226.866C835.691 229.436 834.136 231.74 832.117 233.587C830.098 235.434 827.673 236.772 825.041 237.491V237.476ZM874.392 403.07V195.684C874.322 193.175 874.752 190.677 875.657 188.339C876.562 186 877.923 183.868 879.66 182.069C881.397 180.269 883.475 178.839 885.77 177.862C888.065 176.885 890.531 176.382 893.023 176.382C895.514 176.382 897.98 176.885 900.275 177.862C902.57 178.839 904.648 180.269 906.385 182.069C908.122 183.868 909.483 186 910.388 188.339C911.293 190.677 911.723 193.175 911.653 195.684V403.07C911.723 405.579 911.293 408.077 910.388 410.415C909.483 412.754 908.122 414.886 906.385 416.685C904.648 418.485 902.57 419.915 900.275 420.892C897.98 421.868 895.514 422.372 893.023 422.372C890.531 422.372 888.065 421.868 885.77 420.892C883.475 419.915 881.397 418.485 879.66 416.685C877.923 414.886 876.562 412.754 875.657 410.415C874.752 408.077 874.322 405.579 874.392 403.07ZM893.395 136.205C886.377 136.283 879.611 133.569 874.567 128.651C872.142 126.323 870.212 123.523 868.893 120.42C867.574 117.318 866.894 113.979 866.894 110.604C866.894 107.229 867.574 103.89 868.893 100.788C870.212 97.6858 872.142 94.8857 874.567 92.5574C879.611 87.6396 886.377 84.9249 893.395 85.0029C896.844 84.9508 900.269 85.5921 903.47 86.8893C906.67 88.1864 909.581 90.1133 912.033 92.5574C914.508 94.8562 916.483 97.6466 917.834 100.753C919.185 103.859 919.882 107.213 919.882 110.604C919.882 113.995 919.185 117.35 917.834 120.456C916.483 123.562 914.508 126.352 912.033 128.651C907.042 133.53 900.35 136.243 893.395 136.205ZM1047.6 427C1024.77 427 1005.21 421.669 988.778 410.801C972.348 399.934 959.718 385.016 950.771 366.049C941.825 347.082 937.44 325.346 937.44 300.857C937.44 275.985 942.015 254.072 950.961 234.914C959.908 215.755 972.889 200.852 989.334 190.161C1005.78 179.47 1024.97 173.963 1046.9 173.963C1064.06 173.963 1079.43 177.085 1093.12 183.535C1111.15 191.617 1125.91 205.64 1134.97 223.295C1136.08 225.471 1136.75 227.846 1136.94 230.283C1137.13 232.719 1136.85 235.171 1136.1 237.497C1135.36 239.823 1134.16 241.978 1132.59 243.839C1131.02 245.7 1129.09 247.231 1126.93 248.344C1124.77 249.457 1122.42 250.13 1120 250.326C1117.58 250.521 1115.15 250.234 1112.84 249.482C1110.53 248.73 1108.39 247.527 1106.54 245.942C1104.69 244.357 1103.17 242.421 1102.07 240.245C1098.33 232.75 1093.11 226.105 1086.73 220.718C1077.04 212.074 1063.89 207.641 1047.44 207.641C1033.79 207.411 1020.4 211.399 1009.07 219.069C997.797 227.149 989.001 238.25 983.677 251.112C977.639 264.734 974.716 280.947 974.716 299.37C974.716 318.337 977.639 334.712 983.487 348.717C989.334 362.721 997.929 373.589 1008.89 381.32C1019.86 389.051 1032.65 392.924 1047.44 392.924C1056.53 393.063 1065.56 391.308 1073.94 387.77C1081.69 384.516 1088.57 379.472 1094.03 373.044C1097.29 369.279 1100 365.064 1102.07 360.527C1103.58 357.382 1105.94 354.731 1108.88 352.879C1111.82 351.027 1115.22 350.049 1118.69 350.057C1132.02 350.057 1140.98 364.046 1135.13 376.019C1132.93 380.581 1130.37 384.955 1127.46 389.095C1118.93 400.781 1107.71 410.202 1094.76 416.545C1081.24 423.687 1065.52 427 1047.6 427Z" fill="white"/>
</svg>
