<!--

    @author Jaime López

    Copyright © 2024 Jaime López  
    https://jaim3.com
    

This work is licensed under the GNU General Public License v3.0 or later.
To view a copy of this license, visit https://www.gnu.org/licenses/gpl-3.0.html

-->

<svg version="1.1" id="Capa_1" xmlns="http://www.w3.org/2000/svg" xmlns:xlink="http://www.w3.org/1999/xlink" x="0px" y="0px"
	 viewBox="0 0 512 512" style="enable-background:new 0 0 512 512;" xml:space="preserve">
<style type="text/css">
	.st0{fill:#FFFFFF;}
	.st1{fill:#58CC86;}
</style>
<circle class="st0" cx="255" cy="255.5" r="256"/>
<path class="st1" d="M255-0.5C113.6-0.5-1,114.1-1,255.5s114.6,256,256,256c27.8,0,55.5-4.5,81.9-13.4l-38.1-66
	c-2-3.5-3.3-7.3-3.8-11.3c-0.5-4-0.2-8,0.9-11.9c1.1-3.9,2.9-7.5,5.4-10.6c2.5-3.1,5.6-5.8,9.1-7.7c14.4-8,32.6-2.5,40.9,11.7
	l40.2,69.7C463.3,426.8,511,346.7,511,255.5C511,114.1,396.4-0.5,255-0.5z M310.4,357.8c-3,5.2-7.3,9.5-12.5,12.5
	c-6.5,3.8-14.1,5.3-21.6,4.3c-7.5-1-14.4-4.4-19.7-9.7c-5.3-5.3-8.7-12.3-9.7-19.7c-1-7.5,0.5-15.1,4.3-21.6
	c3.8-6.5,9.6-11.6,16.5-14.5c7-2.9,14.7-3.4,21.9-1.4c7.3,1.9,13.7,6.2,18.3,12.2c4.6,6,7.1,13.3,7.1,20.8
	C314.9,346.7,313.4,352.6,310.4,357.8z M426.8,282.3c-5.1,8.8-12.5,16.2-21.4,21.2l-33.2,19.1c-3.4,2.1-7.2,3.4-11.2,4
	c-4,0.6-8,0.4-11.8-0.6c-3.9-1-7.5-2.8-10.7-5.2c-3.2-2.4-5.8-5.4-7.8-8.9c-2-3.5-3.3-7.3-3.8-11.2c-0.5-4-0.2-8,0.9-11.8
	c1.1-3.8,2.9-7.4,5.4-10.6c2.5-3.1,5.6-5.7,9-7.7l11.6-6.7c2-1.1,3.6-2.8,4.7-4.7c1.1-2,1.7-4.2,1.8-6.5c0-2.3-0.6-4.5-1.7-6.5
	c-1.1-2-2.7-3.6-4.7-4.8l-145.6-87.1c-2-1.2-4.2-1.8-6.5-1.9c-2.3,0-4.6,0.6-6.6,1.7c-2,1.1-3.7,2.8-4.8,4.8c-1.2,2-1.8,4.3-1.8,6.6
	v225.1c0,8-3.2,15.7-8.8,21.3c-5.7,5.6-13.3,8.8-21.3,8.8c-8,0-15.7-3.2-21.3-8.8c-5.6-5.6-8.8-13.3-8.8-21.3v-251
	c-0.1-10.3,2.6-20.4,7.8-29.4c5.1-8.9,12.6-16.3,21.5-21.4l0.4-0.2c9-5.2,19.2-7.9,29.6-7.7c10.4,0.1,20.5,3,29.4,8.4l189.1,113.2
	c8.8,5.2,16.1,12.6,21.1,21.6c5,8.9,7.6,19,7.4,29.2C434.7,263.4,432,273.4,426.8,282.3z"/>
</svg>
