<!--

    @author Jaime López

    Copyright © 2024 Jaime López  
    https://jaim3.com
    

This work is licensed under the GNU General Public License v3.0 or later.
To view a copy of this license, visit https://www.gnu.org/licenses/gpl-3.0.html

-->

<svg width="640" height="360" viewBox="0 0 640 360" fill="none" xmlns="http://www.w3.org/2000/svg">
<path d="M389.533 133.874C392 129.88 393.213 125.071 393.213 119.358C393.213 113.773 392 108.925 389.614 104.8C387.202 100.688 383.627 97.396 379.348 95.3452C374.944 93.1412 369.69 92 363.585 92H330V174H349.643V145.96H359.705L374.579 174H396L379.148 142.807C383.632 140.805 387.108 137.829 389.533 133.874ZM349.643 108.064H359.343C362.292 108.064 364.759 108.472 366.78 109.326C368.663 110.048 370.265 111.364 371.345 113.079C372.396 114.751 372.881 116.831 372.881 119.358C372.881 121.885 372.357 123.952 371.345 125.583C370.242 127.238 368.642 128.495 366.78 129.169C364.798 129.945 362.334 130.31 359.343 130.31H349.643V108.064Z" fill="#4AD17F"/>
<path d="M423 122H403V174H423V122Z" fill="#4AD17F"/>
<path d="M413.003 112C411.025 112.001 409.092 111.415 407.447 110.316C405.802 109.218 404.52 107.656 403.762 105.829C403.005 104.002 402.806 101.991 403.192 100.051C403.577 98.1111 404.529 96.329 405.928 94.9301C407.326 93.5312 409.108 92.5785 411.048 92.1924C412.988 91.8063 414.999 92.0041 416.826 92.7609C418.654 93.5177 420.216 94.7994 421.314 96.444C422.413 98.0885 423 100.022 423 102C422.997 104.651 421.943 107.192 420.069 109.067C418.195 110.942 415.654 111.997 413.003 112Z" fill="#4AD17F"/>
<path d="M336.22 188.288C337.455 188.296 338.661 188.669 339.687 189.36C340.713 190.052 341.515 191.032 341.992 192.179L364.753 248.138C364.793 248.257 364.87 248.361 364.972 248.434C365.074 248.508 365.196 248.547 365.322 248.547C365.447 248.547 365.569 248.508 365.671 248.434C365.773 248.361 365.85 248.257 365.891 248.138L388.652 192.179C389.2 190.837 390.194 189.728 391.463 189.041C392.733 188.354 394.2 188.132 395.615 188.412C397.03 188.691 398.304 189.456 399.221 190.576C400.138 191.696 400.64 193.101 400.643 194.552V256.728C400.643 257.813 400.215 258.853 399.453 259.621C398.691 260.388 397.657 260.819 396.579 260.819C395.501 260.819 394.467 260.388 393.705 259.621C392.943 258.853 392.514 257.813 392.514 256.728V206.136C392.514 206.027 392.47 205.923 392.393 205.847C392.316 205.77 392.213 205.727 392.105 205.727C392.023 205.735 391.945 205.761 391.875 205.803C391.805 205.846 391.746 205.904 391.701 205.972L370.768 257.173C370.325 258.261 369.571 259.192 368.601 259.848C367.632 260.504 366.49 260.854 365.322 260.855C364.151 260.862 363.006 260.515 362.035 259.859C361.063 259.202 360.311 258.266 359.875 257.173L338.942 205.959C338.908 205.881 338.851 205.816 338.779 205.772C338.707 205.728 338.623 205.708 338.539 205.714C338.43 205.714 338.327 205.757 338.25 205.833C338.173 205.91 338.13 206.014 338.129 206.123V256.722C338.129 257.806 337.701 258.847 336.938 259.614C336.176 260.381 335.142 260.812 334.064 260.812C332.986 260.812 331.953 260.381 331.19 259.614C330.428 258.847 330 257.806 330 256.722V194.545C330.002 192.886 330.658 191.295 331.824 190.121C332.99 188.948 334.571 188.289 336.22 188.288ZM444.13 238.589V210.596C444.16 209.51 444.61 208.478 445.384 207.72C446.159 206.962 447.197 206.538 448.277 206.538C449.357 206.538 450.395 206.962 451.169 207.72C451.944 208.478 452.394 209.51 452.424 210.596V256.682C452.394 257.769 451.944 258.801 451.169 259.559C450.395 260.317 449.357 260.741 448.277 260.741C447.197 260.741 446.159 260.317 445.384 259.559C444.61 258.801 444.16 257.769 444.13 256.682V251.646H443.561C442.247 254.475 440.214 256.904 437.669 258.688C434.986 260.609 431.614 261.552 427.547 261.552C424.175 261.552 421.167 260.815 418.527 259.3C415.82 257.731 413.662 255.358 412.349 252.507C410.843 249.48 410.112 245.634 410.112 241.007V210.596C410.112 209.49 410.549 208.429 411.326 207.646C412.104 206.864 413.158 206.424 414.258 206.424C415.357 206.424 416.412 206.864 417.189 207.646C417.966 208.429 418.403 209.49 418.403 210.596V240.435C418.403 244.404 419.502 247.555 421.697 249.925C423.892 252.294 426.776 253.485 430.229 253.485C432.424 253.451 434.582 252.905 436.531 251.888C438.735 250.784 440.603 249.102 441.938 247.019C443.401 244.813 444.13 242.028 444.13 238.592V238.589ZM494.61 219.884C493.813 220.105 492.966 220.066 492.192 219.772C491.418 219.478 490.757 218.944 490.305 218.247C490.061 217.881 489.775 217.472 489.492 217.102C488.516 215.837 487.265 214.815 485.834 214.114C484.289 213.335 482.296 212.926 479.9 212.926C476.606 212.926 473.842 213.705 471.647 215.217C469.453 216.729 468.396 218.653 468.396 220.986C468.396 223.074 469.127 224.71 470.633 225.895C472.138 227.08 474.493 228.104 477.663 228.922L485.668 230.886C490.506 232.07 494.083 233.873 496.483 236.285C498.882 238.697 500.017 241.812 500.017 245.618C500.052 248.621 499.11 251.552 497.335 253.966C495.585 256.424 493.108 258.345 489.937 259.778C486.767 261.211 483.07 261.905 478.882 261.905C473.354 261.905 468.802 260.72 465.187 258.305C462.964 256.849 461.157 254.836 459.942 252.464C459.671 251.918 459.526 251.318 459.516 250.709C459.507 250.099 459.634 249.495 459.888 248.941C460.141 248.387 460.516 247.898 460.982 247.509C461.449 247.12 461.997 246.842 462.585 246.695L462.748 246.652C463.64 246.443 464.575 246.539 465.406 246.925C466.238 247.311 466.918 247.965 467.339 248.783C468.077 250.22 469.152 251.456 470.47 252.382C472.58 253.855 475.342 254.591 478.759 254.591C482.621 254.591 485.71 253.773 487.986 252.094C490.263 250.416 491.443 248.41 491.443 246.08C491.466 245.191 491.3 244.307 490.956 243.489C490.612 242.67 490.099 241.934 489.45 241.331C488.149 240.022 486.117 239.08 483.392 238.425L474.372 236.295C469.414 235.11 465.795 233.268 463.48 230.814C461.164 228.359 460.023 225.165 460.023 221.441C459.978 218.519 460.877 215.66 462.585 213.296C464.331 210.924 466.689 209.081 469.657 207.733C472.626 206.385 476.079 205.727 479.858 205.727C485.223 205.727 489.407 206.915 492.457 209.287C494.182 210.59 495.655 212.199 496.805 214.036C497.139 214.545 497.349 215.127 497.416 215.734C497.484 216.34 497.407 216.955 497.193 217.526C496.979 218.097 496.633 218.609 496.184 219.019C495.735 219.43 495.195 219.727 494.61 219.887V219.884ZM505.587 256.682V210.596C505.572 210.039 505.667 209.484 505.869 208.964C506.07 208.444 506.373 207.971 506.759 207.571C507.145 207.171 507.607 206.853 508.118 206.636C508.628 206.419 509.177 206.307 509.731 206.307C510.285 206.307 510.834 206.419 511.345 206.636C511.855 206.853 512.317 207.171 512.703 207.571C513.09 207.971 513.393 208.444 513.594 208.964C513.795 209.484 513.891 210.039 513.875 210.596V256.682C513.891 257.24 513.795 257.795 513.594 258.315C513.393 258.834 513.09 259.308 512.703 259.708C512.317 260.108 511.855 260.426 511.345 260.643C510.834 260.86 510.285 260.971 509.731 260.971C509.177 260.971 508.628 260.86 508.118 260.643C507.607 260.426 507.145 260.108 506.759 259.708C506.373 259.308 506.07 258.834 505.869 258.315C505.667 257.795 505.572 257.24 505.587 256.682ZM509.814 197.379C508.253 197.396 506.748 196.793 505.626 195.7C505.087 195.183 504.657 194.561 504.364 193.871C504.071 193.182 503.919 192.44 503.919 191.69C503.919 190.94 504.071 190.198 504.364 189.508C504.657 188.819 505.087 188.197 505.626 187.679C506.748 186.587 508.253 185.983 509.814 186.001C510.581 185.989 511.343 186.132 512.055 186.42C512.767 186.708 513.414 187.136 513.96 187.679C514.51 188.19 514.95 188.81 515.25 189.501C515.551 190.191 515.706 190.936 515.706 191.69C515.706 192.443 515.551 193.189 515.25 193.879C514.95 194.569 514.51 195.189 513.96 195.7C512.85 196.784 511.361 197.387 509.814 197.379ZM544.115 262C539.036 262 534.685 260.815 531.031 258.4C527.376 255.985 524.566 252.67 522.577 248.455C520.587 244.24 519.611 239.41 519.611 233.968C519.611 228.441 520.629 223.572 522.619 219.314C524.609 215.057 527.496 211.745 531.154 209.369C534.812 206.993 539.081 205.77 543.959 205.77C547.776 205.77 551.193 206.463 554.24 207.897C558.25 209.693 561.533 212.809 563.549 216.732C563.795 217.216 563.944 217.744 563.987 218.285C564.03 218.827 563.967 219.371 563.801 219.888C563.635 220.405 563.369 220.884 563.019 221.298C562.669 221.711 562.242 222.051 561.761 222.299C561.28 222.546 560.756 222.696 560.218 222.739C559.68 222.782 559.139 222.719 558.625 222.552C558.112 222.384 557.636 222.117 557.225 221.765C556.814 221.413 556.476 220.982 556.23 220.499C555.399 218.833 554.238 217.357 552.819 216.16C550.663 214.239 547.737 213.254 544.079 213.254C541.043 213.202 538.064 214.089 535.544 215.793C533.037 217.589 531.08 220.056 529.896 222.914C528.553 225.941 527.903 229.544 527.903 233.638C527.903 237.853 528.553 241.492 529.853 244.604C531.154 247.716 533.066 250.131 535.505 251.849C537.943 253.567 540.788 254.428 544.079 254.428C546.101 254.458 548.108 254.068 549.974 253.282C551.698 252.559 553.228 251.438 554.442 250.01C555.167 249.173 555.769 248.237 556.23 247.228C556.566 246.529 557.091 245.94 557.745 245.529C558.4 245.117 559.156 244.9 559.927 244.901C562.893 244.901 564.886 248.01 563.585 250.671C563.096 251.685 562.525 252.657 561.878 253.577C559.981 256.174 557.485 258.267 554.604 259.677C551.597 261.264 548.101 262 544.115 262Z" fill="white"/>
<g filter="url(#filter0_d_33_555)">
<path d="M182 287C241.094 287 289 239.094 289 180C289 120.906 241.094 73 182 73C122.906 73 75 120.906 75 180C75 239.094 122.906 287 182 287Z" fill="url(#paint0_linear_33_555)"/>
<path d="M182 73C122.923 73 75 120.883 75 180C75 239.118 122.882 287 182 287C193.627 287.009 205.178 285.119 216.195 281.404L200.263 253.83C199.43 252.38 198.888 250.78 198.668 249.122C198.462 247.467 198.587 245.787 199.037 244.181C199.494 242.579 200.257 241.08 201.284 239.768C202.322 238.449 203.614 237.351 205.084 236.539C211.13 233.19 218.729 235.469 222.161 241.442L238.952 270.571C268.98 251.615 288.919 218.154 288.919 180.036C289 120.883 241.077 73 182 73ZM207.085 215.586C207.086 218.098 206.422 220.565 205.159 222.736C203.743 225.185 201.632 227.159 199.094 228.41C196.557 229.66 193.705 230.131 190.9 229.761C188.566 229.453 186.344 228.573 184.431 227.201C182.518 225.829 180.972 224.006 179.932 221.894C178.891 219.782 178.387 217.446 178.465 215.092C178.542 212.739 179.199 210.441 180.376 208.402C181.554 206.363 183.216 204.646 185.215 203.403C187.215 202.16 189.49 201.428 191.839 201.274C194.189 201.12 196.54 201.547 198.685 202.518C200.83 203.49 202.702 204.975 204.136 206.842C206.014 209.374 207.046 212.434 207.085 215.586ZM257.133 179.02C257.13 183.3 255.988 187.501 253.825 191.194C251.665 194.879 248.581 197.935 244.877 200.06L230.985 208.068C229.557 208.927 227.975 209.497 226.328 209.746C224.677 209.979 222.997 209.882 221.384 209.461C219.771 209.041 218.258 208.305 216.931 207.296C215.605 206.288 214.496 205.022 213.672 203.574C212.831 202.132 212.289 200.534 212.078 198.878C211.867 197.221 211.992 195.539 212.446 193.931C213.362 190.692 215.521 187.947 218.453 186.292L223.302 183.473C224.121 182.994 224.81 182.32 225.305 181.511C225.789 180.695 226.043 179.763 226.039 178.814C226.037 177.872 225.799 176.945 225.346 176.118C224.879 175.29 224.202 174.6 223.383 174.117L162.554 137.716C161.728 137.212 160.781 136.944 159.815 136.939C158.851 136.925 157.901 137.168 157.061 137.642C156.222 138.115 155.523 138.803 155.036 139.635C154.551 140.466 154.297 141.411 154.3 142.372V236.462C154.3 239.799 152.974 243 150.614 245.359C148.254 247.719 145.054 249.045 141.717 249.045C138.379 249.045 135.179 247.719 132.819 245.359C130.459 243 129.133 239.799 129.133 236.462V131.505C129.1 127.205 130.213 122.973 132.359 119.246C134.504 115.519 137.604 112.431 141.34 110.3L141.505 110.219C145.268 108.056 149.542 106.941 153.882 106.992C158.222 107.042 162.469 108.256 166.181 110.506L245.203 157.815C248.879 159.989 251.918 163.094 254.012 166.817C256.106 170.54 257.183 174.749 257.133 179.02Z" fill="url(#paint1_linear_33_555)"/>
</g>
<defs>
<filter id="filter0_d_33_555" x="53.1" y="68.1" width="257.8" height="257.8" filterUnits="userSpaceOnUse" color-interpolation-filters="sRGB">
<feFlood flood-opacity="0" result="BackgroundImageFix"/>
<feColorMatrix in="SourceAlpha" type="matrix" values="0 0 0 0 0 0 0 0 0 0 0 0 0 0 0 0 0 0 127 0" result="hardAlpha"/>
<feOffset dy="17"/>
<feGaussianBlur stdDeviation="10.95"/>
<feComposite in2="hardAlpha" operator="out"/>
<feColorMatrix type="matrix" values="0 0 0 0 0 0 0 0 0 0 0 0 0 0 0 0 0 0 0.1 0"/>
<feBlend mode="normal" in2="BackgroundImageFix" result="effect1_dropShadow_33_555"/>
<feBlend mode="normal" in="SourceGraphic" in2="effect1_dropShadow_33_555" result="shape"/>
</filter>
<linearGradient id="paint0_linear_33_555" x1="141.65" y1="94.5634" x2="226.434" y2="276.382" gradientUnits="userSpaceOnUse">
<stop stop-color="white"/>
<stop offset="0.194293" stop-color="white"/>
<stop offset="0.953372" stop-color="#BDECCF"/>
</linearGradient>
<linearGradient id="paint1_linear_33_555" x1="143.447" y1="81.3313" x2="213.038" y2="287" gradientUnits="userSpaceOnUse">
<stop offset="0.02" stop-color="#5DEA95"/>
<stop offset="0.163177" stop-color="#69DF98"/>
<stop offset="0.65" stop-color="#5BCC87"/>
<stop offset="1" stop-color="#4EC57C"/>
</linearGradient>
</defs>
</svg>
