<!--

    @author Jaime López

    Copyright © 2024 Jaime López  
    https://jaim3.com
    

This work is licensed under the GNU General Public License v3.0 or later.
To view a copy of this license, visit https://www.gnu.org/licenses/gpl-3.0.html

-->

<svg width="1024" height="500" viewBox="0 0 1024 500" fill="none" xmlns="http://www.w3.org/2000/svg">
<g clip-path="url(#clip0_33_446)">
<path d="M1024 0H0V500H1024V0Z" fill="url(#paint0_radial_33_446)"/>
<path d="M1024 0H0V500H1024V0Z" fill="url(#paint1_radial_33_446)"/>
<path d="M1024 0H0V500H1024V0Z" fill="url(#paint2_linear_33_446)" fill-opacity="0.13" style="mix-blend-mode:lighten"/>
<path d="M1024 0H0V500H1024V0Z" fill="url(#paint3_linear_33_446)" fill-opacity="0.22"/>
<g filter="url(#filter0_d_33_446)">
<path d="M307.297 409.594C395.273 409.594 466.594 338.273 466.594 250.297C466.594 162.32 395.273 91 307.297 91C219.32 91 148 162.32 148 250.297C148 338.273 219.32 409.594 307.297 409.594Z" fill="url(#paint4_linear_33_446)"/>
<path d="M307.297 91C219.346 91 148 162.285 148 250.297C148 338.308 219.285 409.593 307.297 409.593C324.607 409.607 341.802 406.793 358.205 401.262L334.486 360.211C333.245 358.052 332.439 355.671 332.112 353.202C331.805 350.738 331.991 348.238 332.66 345.846C333.34 343.461 334.476 341.23 336.005 339.277C337.551 337.313 339.475 335.678 341.663 334.469C350.664 329.483 361.977 332.876 367.087 341.768L392.084 385.135C436.789 356.914 466.472 307.099 466.472 250.351C466.593 162.285 395.248 91 307.297 91ZM344.642 303.276C344.644 307.015 343.654 310.687 341.775 313.92C339.666 317.566 336.524 320.505 332.746 322.367C328.968 324.229 324.723 324.929 320.547 324.379C317.072 323.92 313.764 322.61 310.916 320.567C308.067 318.524 305.767 315.81 304.217 312.666C302.668 309.522 301.918 306.044 302.034 302.541C302.149 299.037 303.127 295.616 304.88 292.581C306.633 289.545 309.107 286.989 312.084 285.138C315.06 283.287 318.447 282.198 321.945 281.969C325.443 281.739 328.943 282.375 332.137 283.821C335.33 285.267 338.117 287.478 340.252 290.258C343.048 294.028 344.584 298.583 344.642 303.276ZM419.152 248.838C419.146 255.209 417.446 261.465 414.226 266.962C411.012 272.447 406.42 276.997 400.906 280.162L380.223 292.083C378.098 293.362 375.742 294.21 373.29 294.581C370.833 294.928 368.332 294.783 365.93 294.157C363.529 293.531 361.276 292.435 359.301 290.933C357.326 289.433 355.675 287.548 354.449 285.393C353.196 283.245 352.389 280.867 352.076 278.401C351.762 275.934 351.948 273.43 352.623 271.037C353.988 266.215 357.202 262.127 361.566 259.663L368.785 255.468C370.005 254.755 371.03 253.751 371.767 252.546C372.488 251.331 372.866 249.944 372.86 248.532C372.857 247.128 372.502 245.748 371.828 244.517C371.132 243.285 370.125 242.258 368.906 241.539L278.346 187.346C277.117 186.596 275.707 186.196 274.268 186.189C272.833 186.169 271.419 186.53 270.169 187.236C268.919 187.941 267.879 188.965 267.154 190.204C266.432 191.44 266.054 192.847 266.058 194.278V334.354C266.058 339.323 264.084 344.088 260.571 347.601C257.058 351.114 252.293 353.088 247.325 353.088C242.356 353.088 237.591 351.114 234.078 347.601C230.565 344.088 228.591 339.323 228.591 334.354V178.1C228.541 171.698 230.199 165.398 233.393 159.849C236.587 154.3 241.203 149.703 246.764 146.531L247.009 146.41C252.611 143.189 258.975 141.53 265.436 141.605C271.897 141.68 278.22 143.487 283.746 146.837L401.39 217.268C406.863 220.506 411.387 225.129 414.505 230.671C417.623 236.213 419.226 242.479 419.152 248.838Z" fill="url(#paint5_linear_33_446)"/>
</g>
<g opacity="0.2" filter="url(#filter1_f_33_446)">
<path d="M505 249.5C505 359.128 416.128 448 306.5 448C196.872 448 108 359.128 108 249.5C108 139.872 196.872 51 306.5 51C416.128 51 505 139.872 505 249.5Z" stroke="#00FF66" stroke-width="8"/>
</g>
<g opacity="0.09" filter="url(#filter2_f_33_446)">
<path d="M561 249.5C561 390.055 447.055 504 306.5 504C165.945 504 52 390.055 52 249.5C52 108.945 165.945 -5 306.5 -5C447.055 -5 561 108.945 561 249.5Z" stroke="#00FF66" stroke-width="8"/>
</g>
<g opacity="0.05" filter="url(#filter3_f_33_446)">
<path d="M617 249.5C617 420.983 477.983 560 306.5 560C135.017 560 -4 420.983 -4 249.5C-4 78.0171 135.017 -61 306.5 -61C477.983 -61 617 78.0171 617 249.5Z" stroke="#00FF66" stroke-width="8"/>
</g>
<g style="mix-blend-mode:plus-lighter" opacity="0.14" filter="url(#filter4_f_33_446)">
<path d="M461.094 250.297C461.094 335.236 392.236 404.094 307.297 404.094C222.358 404.094 153.5 335.236 153.5 250.297C153.5 165.358 222.358 96.5 307.297 96.5C392.236 96.5 461.094 165.358 461.094 250.297Z" stroke="url(#paint6_linear_33_446)" stroke-width="11"/>
</g>
<path fill-rule="evenodd" clip-rule="evenodd" d="M651.203 148.775C648.258 148.776 645.379 147.904 642.931 146.268C640.482 144.633 638.573 142.308 637.445 139.588C636.318 136.868 636.022 133.874 636.596 130.986C637.17 128.098 638.587 125.445 640.669 123.362C642.751 121.28 645.404 119.861 648.292 119.286C651.18 118.712 654.174 119.006 656.894 120.133C659.615 121.259 661.94 123.168 663.576 125.616C665.212 128.064 666.086 130.943 666.086 133.888C666.082 137.834 664.513 141.618 661.723 144.409C658.933 147.2 655.149 148.77 651.203 148.775ZM616.261 181.627C619.934 175.681 621.739 168.521 621.739 160.017C621.739 151.702 619.934 144.484 616.382 138.344C612.79 132.222 607.469 127.32 601.098 124.267C594.542 120.986 586.719 119.287 577.631 119.287H527.631V241.365H556.874V199.621H571.855L593.998 241.365H625.889L600.8 194.927C607.476 191.947 612.651 187.515 616.261 181.627ZM556.874 143.203H571.315C575.706 143.203 579.378 143.809 582.387 145.081C585.191 146.156 587.575 148.115 589.184 150.668C590.748 153.158 591.471 156.255 591.471 160.017C591.471 163.779 590.691 166.856 589.184 169.283C587.541 171.748 585.159 173.619 582.387 174.623C579.436 175.778 575.768 176.322 571.315 176.322H556.874V143.203ZM636.311 163.949H666.086V241.364H636.311V163.949Z" fill="#63DA92"/>
<path fill-rule="evenodd" clip-rule="evenodd" d="M651.203 148.775C648.258 148.776 645.379 147.904 642.931 146.268C640.482 144.633 638.573 142.308 637.445 139.588C636.318 136.868 636.022 133.874 636.596 130.986C637.17 128.098 638.587 125.445 640.669 123.362C642.751 121.28 645.404 119.861 648.292 119.286C651.18 118.712 654.174 119.006 656.894 120.133C659.615 121.259 661.94 123.168 663.576 125.616C665.212 128.064 666.086 130.943 666.086 133.888C666.082 137.834 664.513 141.618 661.723 144.409C658.933 147.2 655.149 148.77 651.203 148.775ZM616.261 181.627C619.934 175.681 621.739 168.521 621.739 160.017C621.739 151.702 619.934 144.484 616.382 138.344C612.79 132.222 607.469 127.32 601.098 124.267C594.542 120.986 586.719 119.287 577.631 119.287H527.631V241.365H556.874V199.621H571.855L593.998 241.365H625.889L600.8 194.927C607.476 191.947 612.651 187.515 616.261 181.627ZM556.874 143.203H571.315C575.706 143.203 579.378 143.809 582.387 145.081C585.191 146.156 587.575 148.115 589.184 150.668C590.748 153.158 591.471 156.255 591.471 160.017C591.471 163.779 590.691 166.856 589.184 169.283C587.541 171.748 585.159 173.619 582.387 174.623C579.436 175.778 575.768 176.322 571.315 176.322H556.874V143.203ZM636.311 163.949H666.086V241.364H636.311V163.949Z" fill="url(#paint7_linear_33_446)"/>
<path d="M536.891 262.639C538.73 262.65 540.525 263.205 542.053 264.235C543.58 265.265 544.774 266.724 545.484 268.431L579.369 351.741C579.429 351.918 579.544 352.072 579.696 352.182C579.847 352.291 580.029 352.35 580.216 352.35C580.403 352.35 580.585 352.291 580.737 352.182C580.889 352.072 581.003 351.918 581.063 351.741L614.949 268.431C615.765 266.434 617.244 264.783 619.135 263.76C621.025 262.737 623.21 262.406 625.316 262.823C627.421 263.239 629.319 264.378 630.684 266.045C632.049 267.712 632.797 269.804 632.801 271.964V364.529C632.801 366.144 632.164 367.693 631.029 368.835C629.894 369.977 628.355 370.619 626.75 370.619C625.146 370.619 623.606 369.977 622.472 368.835C621.337 367.693 620.699 366.144 620.699 364.529V289.21C620.698 289.048 620.633 288.893 620.519 288.779C620.405 288.665 620.25 288.601 620.089 288.601C619.969 288.613 619.852 288.652 619.748 288.715C619.644 288.778 619.556 288.864 619.489 288.966L588.324 365.192C587.666 366.812 586.543 368.198 585.099 369.174C583.655 370.15 581.955 370.672 580.216 370.673C578.474 370.684 576.769 370.167 575.323 369.19C573.876 368.212 572.756 366.819 572.108 365.192L540.943 288.947C540.893 288.831 540.808 288.733 540.701 288.668C540.593 288.602 540.468 288.572 540.343 288.582C540.182 288.582 540.027 288.646 539.913 288.76C539.799 288.874 539.734 289.029 539.733 289.191V364.519C539.733 366.135 539.095 367.684 537.961 368.826C536.826 369.968 535.287 370.609 533.682 370.609C532.077 370.609 530.538 369.968 529.403 368.826C528.268 367.684 527.631 366.135 527.631 364.519V271.954C527.633 269.483 528.61 267.115 530.346 265.368C532.083 263.622 534.436 262.64 536.891 262.639ZM697.542 337.524V295.85C697.587 294.232 698.257 292.696 699.41 291.568C700.563 290.439 702.108 289.808 703.716 289.808C705.324 289.808 706.869 290.439 708.022 291.568C709.175 292.696 709.846 294.232 709.891 295.85V364.461C709.846 366.079 709.175 367.615 708.022 368.744C706.869 369.872 705.324 370.503 703.716 370.503C702.108 370.503 700.563 369.872 699.41 368.744C698.257 367.615 697.587 366.079 697.542 364.461V356.963H696.695C694.739 361.174 691.713 364.791 687.923 367.447C683.929 370.307 678.91 371.71 672.854 371.71C667.834 371.71 663.356 370.614 659.426 368.358C655.396 366.023 652.184 362.49 650.228 358.244C647.987 353.738 646.898 348.014 646.898 341.125V295.85C646.898 294.203 647.548 292.623 648.705 291.458C649.863 290.293 651.433 289.639 653.07 289.639C654.707 289.639 656.276 290.293 657.434 291.458C658.591 292.623 659.242 294.203 659.242 295.85V340.272C659.242 346.182 660.878 350.873 664.145 354.401C667.413 357.928 671.707 359.701 676.847 359.701C680.115 359.651 683.327 358.837 686.229 357.324C689.511 355.68 692.292 353.175 694.279 350.074C696.457 346.791 697.542 342.645 697.542 337.529V337.524ZM772.695 309.677C771.508 310.007 770.247 309.949 769.095 309.511C767.943 309.073 766.959 308.278 766.285 307.241C765.922 306.695 765.496 306.086 765.075 305.536C763.623 303.652 761.76 302.13 759.629 301.088C757.33 299.928 754.363 299.319 750.795 299.319C745.891 299.319 741.777 300.479 738.509 302.729C735.242 304.98 733.668 307.845 733.668 311.319C733.668 314.427 734.758 316.863 736.999 318.626C739.24 320.39 742.745 321.915 747.465 323.133L759.382 326.056C766.586 327.82 771.91 330.504 775.483 334.095C779.055 337.685 780.745 342.323 780.745 347.989C780.796 352.459 779.394 356.824 776.751 360.417C774.147 364.076 770.458 366.936 765.738 369.07C761.019 371.204 755.515 372.237 749.28 372.237C741.051 372.237 734.273 370.473 728.891 366.877C725.582 364.71 722.891 361.713 721.082 358.181C720.679 357.369 720.463 356.476 720.449 355.568C720.435 354.66 720.624 353.76 721.002 352.936C721.379 352.111 721.936 351.383 722.632 350.804C723.327 350.225 724.142 349.811 725.018 349.592L725.26 349.529C726.587 349.218 727.98 349.361 729.218 349.935C730.456 350.51 731.468 351.482 732.095 352.7C733.194 354.841 734.794 356.68 736.757 358.059C739.897 360.252 744.01 361.348 749.096 361.348C754.847 361.348 759.445 360.13 762.834 357.631C766.223 355.131 767.98 352.145 767.98 348.676C768.014 347.353 767.767 346.038 767.255 344.819C766.743 343.6 765.979 342.505 765.012 341.607C763.076 339.658 760.051 338.255 755.994 337.281L742.566 334.109C735.184 332.346 729.796 329.603 726.349 325.949C722.902 322.295 721.203 317.54 721.203 311.996C721.135 307.645 722.474 303.389 725.018 299.87C727.617 296.338 731.127 293.595 735.547 291.587C739.966 289.58 745.107 288.601 750.732 288.601C758.719 288.601 764.949 290.37 769.49 293.902C772.058 295.841 774.251 298.237 775.962 300.971C776.46 301.729 776.772 302.595 776.873 303.499C776.973 304.402 776.859 305.316 776.54 306.167C776.221 307.017 775.706 307.779 775.038 308.39C774.369 309.001 773.566 309.444 772.695 309.682V309.677ZM789.037 364.461V295.85C789.014 295.02 789.156 294.194 789.456 293.42C789.756 292.647 790.206 291.941 790.782 291.346C791.357 290.751 792.045 290.278 792.805 289.954C793.565 289.631 794.382 289.465 795.207 289.465C796.032 289.465 796.848 289.631 797.608 289.954C798.368 290.278 799.056 290.751 799.632 291.346C800.207 291.941 800.657 292.647 800.957 293.42C801.257 294.194 801.399 295.02 801.376 295.85V364.461C801.399 365.291 801.257 366.117 800.957 366.891C800.657 367.665 800.207 368.37 799.632 368.965C799.056 369.561 798.368 370.034 797.608 370.357C796.848 370.68 796.032 370.847 795.207 370.847C794.382 370.847 793.565 370.68 792.805 370.357C792.045 370.034 791.357 369.561 790.782 368.965C790.206 368.37 789.756 367.665 789.456 366.891C789.156 366.117 789.014 365.291 789.037 364.461ZM795.33 276.173C793.006 276.199 790.765 275.301 789.095 273.674C788.292 272.903 787.653 271.977 787.216 270.951C786.779 269.924 786.554 268.82 786.554 267.703C786.554 266.587 786.779 265.482 787.216 264.456C787.653 263.429 788.292 262.503 789.095 261.733C790.765 260.106 793.006 259.208 795.33 259.233C796.472 259.216 797.606 259.428 798.666 259.857C799.726 260.287 800.69 260.924 801.502 261.733C802.321 262.493 802.976 263.416 803.423 264.444C803.87 265.472 804.101 266.581 804.101 267.703C804.101 268.825 803.87 269.935 803.423 270.962C802.976 271.99 802.321 272.913 801.502 273.674C799.849 275.288 797.633 276.185 795.33 276.173ZM846.395 372.378C838.834 372.378 832.357 370.614 826.916 367.019C821.475 363.423 817.293 358.488 814.33 352.213C811.367 345.938 809.915 338.747 809.915 330.645C809.915 322.417 811.43 315.167 814.393 308.829C817.356 302.491 821.654 297.56 827.1 294.023C832.546 290.486 838.902 288.664 846.163 288.664C851.846 288.664 856.934 289.697 861.469 291.831C867.439 294.505 872.327 299.144 875.329 304.985C875.694 305.705 875.916 306.491 875.98 307.297C876.044 308.103 875.95 308.914 875.703 309.684C875.455 310.453 875.06 311.166 874.539 311.782C874.018 312.398 873.382 312.904 872.666 313.272C871.951 313.64 871.17 313.863 870.369 313.928C869.568 313.992 868.762 313.898 867.998 313.649C867.233 313.4 866.525 313.002 865.913 312.478C865.301 311.953 864.798 311.313 864.432 310.593C863.195 308.113 861.467 305.915 859.354 304.133C856.145 301.273 851.788 299.806 846.342 299.806C841.822 299.73 837.387 301.05 833.635 303.587C829.903 306.26 826.99 309.933 825.227 314.188C823.227 318.695 822.259 324.059 822.259 330.153C822.259 336.428 823.227 341.846 825.164 346.479C827.1 351.112 829.946 354.707 833.577 357.265C837.207 359.823 841.443 361.104 846.342 361.104C849.353 361.15 852.341 360.57 855.118 359.399C857.684 358.323 859.963 356.654 861.77 354.527C862.849 353.282 863.745 351.887 864.432 350.386C864.932 349.346 865.714 348.469 866.688 347.856C867.662 347.243 868.788 346.92 869.936 346.922C874.351 346.922 877.318 351.551 875.382 355.511C874.653 357.021 873.803 358.468 872.84 359.838C870.016 363.704 866.299 366.82 862.012 368.919C857.534 371.282 852.33 372.378 846.395 372.378Z" fill="url(#paint8_linear_33_446)"/>
</g>
<defs>
<filter id="filter0_d_33_446" x="126.1" y="86.1" width="362.394" height="362.394" filterUnits="userSpaceOnUse" color-interpolation-filters="sRGB">
<feFlood flood-opacity="0" result="BackgroundImageFix"/>
<feColorMatrix in="SourceAlpha" type="matrix" values="0 0 0 0 0 0 0 0 0 0 0 0 0 0 0 0 0 0 127 0" result="hardAlpha"/>
<feOffset dy="17"/>
<feGaussianBlur stdDeviation="10.95"/>
<feComposite in2="hardAlpha" operator="out"/>
<feColorMatrix type="matrix" values="0 0 0 0 0 0 0 0 0 0 0 0 0 0 0 0 0 0 0.1 0"/>
<feBlend mode="normal" in2="BackgroundImageFix" result="effect1_dropShadow_33_446"/>
<feBlend mode="normal" in="SourceGraphic" in2="effect1_dropShadow_33_446" result="shape"/>
</filter>
<filter id="filter1_f_33_446" x="77.1" y="20.1" width="458.8" height="458.8" filterUnits="userSpaceOnUse" color-interpolation-filters="sRGB">
<feFlood flood-opacity="0" result="BackgroundImageFix"/>
<feBlend mode="normal" in="SourceGraphic" in2="BackgroundImageFix" result="shape"/>
<feGaussianBlur stdDeviation="13.45" result="effect1_foregroundBlur_33_446"/>
</filter>
<filter id="filter2_f_33_446" x="21.1" y="-35.9" width="570.8" height="570.8" filterUnits="userSpaceOnUse" color-interpolation-filters="sRGB">
<feFlood flood-opacity="0" result="BackgroundImageFix"/>
<feBlend mode="normal" in="SourceGraphic" in2="BackgroundImageFix" result="shape"/>
<feGaussianBlur stdDeviation="13.45" result="effect1_foregroundBlur_33_446"/>
</filter>
<filter id="filter3_f_33_446" x="-34.9" y="-91.9" width="682.8" height="682.8" filterUnits="userSpaceOnUse" color-interpolation-filters="sRGB">
<feFlood flood-opacity="0" result="BackgroundImageFix"/>
<feBlend mode="normal" in="SourceGraphic" in2="BackgroundImageFix" result="shape"/>
<feGaussianBlur stdDeviation="13.45" result="effect1_foregroundBlur_33_446"/>
</filter>
<filter id="filter4_f_33_446" x="123.1" y="66.1" width="368.394" height="368.394" filterUnits="userSpaceOnUse" color-interpolation-filters="sRGB">
<feFlood flood-opacity="0" result="BackgroundImageFix"/>
<feBlend mode="normal" in="SourceGraphic" in2="BackgroundImageFix" result="shape"/>
<feGaussianBlur stdDeviation="12.45" result="effect1_foregroundBlur_33_446"/>
</filter>
<radialGradient id="paint0_radial_33_446" cx="0" cy="0" r="1" gradientUnits="userSpaceOnUse" gradientTransform="translate(512 250) rotate(90) scale(250 512)">
<stop stop-color="#0A344B"/>
<stop offset="1" stop-color="#031D35"/>
</radialGradient>
<radialGradient id="paint1_radial_33_446" cx="0" cy="0" r="1" gradientUnits="userSpaceOnUse" gradientTransform="translate(512 250) rotate(90) scale(250 512)">
<stop stop-color="#04314A"/>
<stop offset="1" stop-color="#05213A"/>
</radialGradient>
<linearGradient id="paint2_linear_33_446" x1="1196.5" y1="528.5" x2="-55.5" y2="81.5001" gradientUnits="userSpaceOnUse">
<stop offset="0.631197" stop-color="#66E298" stop-opacity="0"/>
<stop offset="1" stop-color="#66E298"/>
</linearGradient>
<linearGradient id="paint3_linear_33_446" x1="1107.5" y1="514.5" x2="437.5" y2="11.5" gradientUnits="userSpaceOnUse">
<stop offset="0.029522" stop-color="#5FFF51"/>
<stop offset="0.714876" stop-color="#00FFD1" stop-opacity="0"/>
<stop offset="0.983938" stop-color="#00FFD1" stop-opacity="0"/>
</linearGradient>
<linearGradient id="paint4_linear_33_446" x1="247.226" y1="123.103" x2="373.447" y2="393.785" gradientUnits="userSpaceOnUse">
<stop stop-color="white"/>
<stop offset="0.194293" stop-color="white"/>
<stop offset="0.953372" stop-color="#BDECCF"/>
</linearGradient>
<linearGradient id="paint5_linear_33_446" x1="249.901" y1="103.403" x2="353.505" y2="409.593" gradientUnits="userSpaceOnUse">
<stop offset="0.02" stop-color="#5DEA95"/>
<stop offset="0.163177" stop-color="#69DF98"/>
<stop offset="0.65" stop-color="#5BCC87"/>
<stop offset="1" stop-color="#4EC57C"/>
</linearGradient>
<linearGradient id="paint6_linear_33_446" x1="307.297" y1="91" x2="307.297" y2="409.594" gradientUnits="userSpaceOnUse">
<stop stop-color="white"/>
<stop offset="1" stop-color="white" stop-opacity="0"/>
</linearGradient>
<linearGradient id="paint7_linear_33_446" x1="538.5" y1="175.5" x2="840" y2="311.5" gradientUnits="userSpaceOnUse">
<stop stop-color="#63DA92"/>
<stop offset="1" stop-color="#339ABB"/>
</linearGradient>
<linearGradient id="paint8_linear_33_446" x1="527.631" y1="315.805" x2="889" y2="355.5" gradientUnits="userSpaceOnUse">
<stop offset="0.12234" stop-color="white"/>
<stop offset="1" stop-color="#8CC5D7"/>
</linearGradient>
<clipPath id="clip0_33_446">
<rect width="1024" height="500" fill="white"/>
</clipPath>
</defs>
</svg>
