<!--

    @author Jaime López

    Copyright © 2024 Jaime López  
    https://jaim3.com
    

This work is licensed under the GNU General Public License v3.0 or later.
To view a copy of this license, visit https://www.gnu.org/licenses/gpl-3.0.html

-->

<svg width="108" height="108" viewBox="0 0 108 108" fill="none" xmlns="http://www.w3.org/2000/svg">
<g clip-path="url(#clip0_33_489)">
<path d="M53.9996 79C67.8072 79 79 67.8075 79 54C79 40.1925 67.8072 29 53.9996 29C40.1921 29 29 40.1925 29 54C29 67.8075 40.1928 79 53.9996 79Z" fill="white"/>
<path d="M53.9996 29C40.1966 29 29 40.1849 29 54C29 67.8151 40.1875 79 53.9996 79C56.7165 79.0022 59.4154 78.5606 61.9897 77.6925L58.2669 71.2498C58.0726 70.9116 57.9461 70.5388 57.8942 70.1522C57.8464 69.7654 57.8757 69.3729 57.9805 68.9974C58.0872 68.6234 58.2657 68.2737 58.5059 67.9678C58.7481 67.6589 59.0499 67.4017 59.3933 67.2114C60.806 66.4283 62.5815 66.9633 63.3834 68.3563L67.3062 75.1623C74.3226 70.7354 78.9809 62.9149 78.9809 54.0092C79 40.1849 67.8034 29 53.9996 29ZM59.8614 62.3142C59.8617 62.901 59.7068 63.4774 59.4124 63.985C59.0819 64.5573 58.589 65.0188 57.9961 65.3111C57.4031 65.6033 56.7368 65.7132 56.0813 65.6268C55.3519 65.5293 54.675 65.1942 54.1553 64.6734C53.6356 64.1526 53.3022 63.4751 53.2065 62.7458C53.1109 62.0165 53.2584 61.276 53.6262 60.6389C53.994 60.0018 54.5617 59.5036 55.2413 59.2215C55.9209 58.938 56.6752 58.8873 57.3866 59.0773C58.0981 59.2673 58.7266 59.6873 59.1741 60.2717C59.6123 60.8635 59.8527 61.5781 59.8614 62.3142ZM71.5544 53.771C71.5537 54.771 71.287 55.7527 70.7816 56.6157C70.2769 57.4763 69.5562 58.1903 68.6907 58.6872L65.4452 60.558C65.1114 60.758 64.7418 60.891 64.357 60.9495C63.9713 61.0036 63.5787 60.9808 63.2019 60.8824C62.8251 60.784 62.4715 60.612 62.1615 60.3763C61.8508 60.1414 61.591 59.8459 61.3979 59.5077C61.2017 59.1706 61.0752 58.7975 61.026 58.4106C60.9769 58.0236 61.0059 57.6308 61.1115 57.2553C61.325 56.4983 61.8296 55.8564 62.5151 55.47L63.6506 54.8113C63.8418 54.6996 64.0024 54.5422 64.118 54.3534C64.2312 54.1626 64.2906 53.9447 64.2898 53.7229C64.2892 53.5028 64.2335 53.2864 64.1279 53.0932C64.0189 52.8998 63.8609 52.7384 63.6697 52.6254L49.4567 44.1203C49.2638 44.0029 49.0426 43.9401 48.8167 43.9386C48.5915 43.9359 48.3696 43.9928 48.1735 44.1035C47.9774 44.2142 47.8141 44.3749 47.7003 44.5691C47.587 44.7632 47.5276 44.984 47.5284 45.2087V67.1908C47.5284 67.9701 47.2187 68.7175 46.6673 69.2686C46.116 69.8197 45.3681 70.1293 44.5884 70.1293C43.8086 70.1293 43.0608 69.8197 42.5095 69.2686C41.9581 68.7175 41.6483 67.9701 41.6483 67.1908V42.6693C41.6405 41.6645 41.9008 40.6758 42.4024 39.805C42.904 38.9342 43.6288 38.2127 44.5021 37.715L44.5403 37.6959C45.4194 37.1904 46.4181 36.93 47.4322 36.9418C48.4464 36.9536 49.4388 37.2372 50.3058 37.763L68.7671 48.8167C69.6262 49.3249 70.3362 50.0504 70.8255 50.9202C71.3149 51.79 71.5663 52.7732 71.5544 53.771Z" fill="#58CC86"/>
</g>
<defs>
<clipPath id="clip0_33_489">
<rect width="50" height="50" fill="white" transform="translate(29 29)"/>
</clipPath>
</defs>
</svg>
