<!--

    @author Jaime López

    Copyright © 2024 Jaime López  
    https://jaim3.com
    

This work is licensed under the GNU General Public License v3.0 or later.
To view a copy of this license, visit https://www.gnu.org/licenses/gpl-3.0.html

-->

<svg width="108" height="108" viewBox="0 0 108 108" fill="none" xmlns="http://www.w3.org/2000/svg">
<path d="M54.0114 24C37.4415 24 24 37.425 24 54C24 70.575 37.4301 84 54.0114 84C57.2725 84.0026 60.5122 83.4726 63.6024 82.431L59.1337 74.7C58.9001 74.2933 58.7482 73.8449 58.6866 73.38C58.6288 72.9159 58.6639 72.445 58.7898 71.9946C58.918 71.5454 59.132 71.1253 59.42 70.7574C59.7114 70.3875 60.0738 70.0796 60.486 69.852C62.1817 68.913 64.3131 69.552 65.2759 71.2266L69.9853 79.3938C78.4076 74.079 84 64.6974 84 54.0102C84.0228 37.425 70.5813 24 54.0114 24ZM61.0473 63.9774C61.0476 64.6816 60.8612 65.3732 60.5071 65.982C60.1098 66.6686 59.5179 67.2222 58.8061 67.5728C58.0942 67.9234 57.2945 68.0553 56.5077 67.9518C55.853 67.8652 55.2298 67.6187 54.6932 67.2339C54.1566 66.8491 53.7231 66.338 53.4312 65.7459C53.1394 65.1537 52.9981 64.4987 53.0198 63.839C53.0416 63.1792 53.2257 62.5349 53.556 61.9633C53.8863 61.3916 54.3524 60.9102 54.9132 60.5616C55.474 60.2129 56.1122 60.0079 56.7711 59.9647C57.4301 59.9214 58.0896 60.0412 58.6912 60.3135C59.2928 60.5858 59.8179 61.0022 60.2201 61.5258C60.7468 62.2357 61.0363 63.0936 61.0473 63.9774ZM75.0848 53.7252C75.0838 54.9251 74.7635 56.1032 74.1568 57.1386C73.5512 58.1715 72.6861 59.0284 71.6473 59.6244L67.7506 61.8696C67.3502 62.1103 66.9065 62.2701 66.4445 62.34C65.9816 62.4052 65.5103 62.3781 65.0579 62.2602C64.6056 62.1422 64.181 61.9359 63.8089 61.653C63.4369 61.3704 63.1259 61.0155 62.8948 60.6096C62.6588 60.2051 62.5068 59.7573 62.4477 59.2928C62.3886 58.8283 62.4237 58.3566 62.5508 57.906C62.8079 56.9979 63.4135 56.228 64.2357 55.764L65.5958 54.9738C65.8256 54.8396 66.0186 54.6505 66.1576 54.4236C66.2934 54.1948 66.3645 53.9336 66.3635 53.6676C66.3629 53.4033 66.296 53.1434 66.169 52.9116C66.038 52.6795 65.8482 52.486 65.6186 52.3506L48.5571 42.1446C48.3256 42.0034 48.06 41.9281 47.7888 41.9268C47.5185 41.923 47.252 41.991 47.0165 42.1238C46.7811 42.2566 46.5851 42.4495 46.4485 42.6828C46.3125 42.9156 46.2412 43.1806 46.242 43.4502V69.8304C46.242 70.7661 45.8702 71.6634 45.2083 72.3251C44.5464 72.9867 43.6487 73.3584 42.7127 73.3584C41.7767 73.3584 40.879 72.9867 40.2171 72.3251C39.5552 71.6634 39.1834 70.7661 39.1834 69.8304V40.4034C39.1739 39.1977 39.4862 38.0112 40.088 36.9662C40.6897 35.9212 41.5593 35.0554 42.6071 34.458L42.6533 34.4352C43.7087 33.8287 44.9076 33.5163 46.1249 33.5304C47.3422 33.5445 48.5334 33.8848 49.5745 34.5156L71.7385 47.7798C72.7697 48.3895 73.6219 49.2601 74.2094 50.3039C74.7968 51.3476 75.0988 52.5277 75.0848 53.7252Z" fill="white"/>
</svg>
