<!--

    @author Jaime López

    Copyright © 2024 Jaime López  
    https://jaim3.com
    

This work is licensed under the GNU General Public License v3.0 or later.
To view a copy of this license, visit https://www.gnu.org/licenses/gpl-3.0.html

-->
<svg version="1.1" id="Capa_1" xmlns="http://www.w3.org/2000/svg" xmlns:xlink="http://www.w3.org/1999/xlink" x="0px" y="0px"
	 viewBox="0 0 192 192" style="enable-background:new 0 0 192 192;" xml:space="preserve">
<style type="text/css">
	.st1{fill:url(#SVGID_2_);}
	.st3{fill:none;stroke:url(#SVGID_4_);stroke-width:8;stroke-miterlimit:10;}
</style>

<rect class="st0" width="192" height="192"/>
<g>
	<linearGradient id="SVGID_2_" gradientUnits="userSpaceOnUse" x1="68.8674" y1="155.166" x2="128.295" y2="27.7236" gradientTransform="matrix(1 0 0 -1 0 192)">
		<stop  offset="0" style="stop-color:#FFFFFF"/>
		<stop  offset="0.1943" style="stop-color:#FFFFFF"/>
		<stop  offset="0.9534" style="stop-color:#BDECCF"/>
	</linearGradient>
	<path class="st1" d="M96.9,171.9c41.4,0,75-33.6,75-75c0-41.4-33.6-75-75-75c-41.4,0-75,33.6-75,75
		C21.9,138.3,55.4,171.9,96.9,171.9z"/>
	

	<path class="st2" d="M96.9,21.9c-41.4,0-75,33.6-75,75c0,41.4,33.6,75,75,75c8.2,0,16.2-1.3,24-3.9l-11.2-19.3
		c-0.6-1-1-2.1-1.1-3.3c-0.1-1.2-0.1-2.3,0.3-3.5c0.3-1.1,0.9-2.2,1.6-3.1c0.7-0.9,1.6-1.7,2.7-2.3c4.2-2.3,9.6-0.7,12,3.4
		l11.8,20.4c21-13.3,35-36.7,35-63.5C171.9,55.4,138.3,21.9,96.9,21.9z M114.4,121.8c0,1.8-0.5,3.5-1.3,5c-1,1.7-2.5,3.1-4.3,4
		c-1.8,0.9-3.8,1.2-5.7,0.9c-1.6-0.2-3.2-0.8-4.5-1.8c-1.3-1-2.4-2.2-3.2-3.7c-0.7-1.5-1.1-3.1-1-4.8c0.1-1.6,0.5-3.3,1.3-4.7
		c0.8-1.4,2-2.6,3.4-3.5c1.4-0.9,3-1.4,4.6-1.5c1.6-0.1,3.3,0.2,4.8,0.9c1.5,0.7,2.8,1.7,3.8,3C113.7,117.4,114.4,119.6,114.4,121.8
		z M149.5,96.2c0,3-0.8,5.9-2.3,8.5c-1.5,2.6-3.7,4.7-6.3,6.2l-9.7,5.6c-1,0.6-2.1,1-3.3,1.2c-1.2,0.2-2.3,0.1-3.5-0.2
		c-1.1-0.3-2.2-0.8-3.1-1.5c-0.9-0.7-1.7-1.6-2.3-2.6c-0.6-1-1-2.1-1.1-3.3c-0.1-1.2-0.1-2.3,0.3-3.5c0.6-2.3,2.2-4.2,4.2-5.4l3.4-2
		c0.6-0.3,1.1-0.8,1.4-1.4c0.3-0.6,0.5-1.2,0.5-1.9c0-0.7-0.2-1.3-0.5-1.9c-0.3-0.6-0.8-1.1-1.4-1.4L83.2,67.2
		c-0.6-0.4-1.2-0.5-1.9-0.5c-0.7,0-1.3,0.2-1.9,0.5c-0.6,0.3-1.1,0.8-1.4,1.4c-0.3,0.6-0.5,1.2-0.5,1.9v66c0,2.3-0.9,4.6-2.6,6.2
		c-1.7,1.7-3.9,2.6-6.2,2.6c-2.3,0-4.6-0.9-6.2-2.6c-1.7-1.7-2.6-3.9-2.6-6.2V62.9c0-3,0.8-6,2.3-8.6c1.5-2.6,3.7-4.8,6.3-6.3
		l0.1-0.1c2.6-1.5,5.6-2.3,8.7-2.3c3,0,6,0.9,8.6,2.5l55.4,33.2c2.6,1.5,4.7,3.7,6.2,6.3C148.8,90.2,149.6,93.2,149.5,96.2z"/>
</g>
<linearGradient id="SVGID_4_" gradientUnits="userSpaceOnUse" x1="63.462" y1="25.242" x2="130.2509" y2="168.4708">
	<stop  offset="0" style="stop-color:#FFFFFF"/>
	<stop  offset="0.1943" style="stop-color:#FFFFFF"/>
	<stop  offset="0.9534" style="stop-color:#FFFFFF"/>
</linearGradient>
<path class="st3" d="M96.9,171.9c41.4,0,75-33.6,75-75c0-41.4-33.6-75-75-75c-41.4,0-75,33.6-75,75
	C21.9,138.3,55.4,171.9,96.9,171.9z"/>
</svg>
