<!--

    @author Jaime López

    Copyright © 2024 Jaime López  
    https://jaim3.com
    

This work is licensed under the GNU General Public License v3.0 or later.
To view a copy of this license, visit https://www.gnu.org/licenses/gpl-3.0.html

-->

<svg width="192" height="192" viewBox="0 0 192 192" fill="none" xmlns="http://www.w3.org/2000/svg">
<rect width="192" height="192" fill="url(#paint0_linear_33_528)"/>
<g filter="url(#filter0_d_33_528)">
<path d="M96.8563 178.285C141.828 178.285 178.285 141.828 178.285 96.8563C178.285 51.8849 141.828 15.4277 96.8563 15.4277C51.8849 15.4277 15.4277 51.8849 15.4277 96.8563C15.4277 141.828 51.8849 178.285 96.8563 178.285Z" fill="url(#paint1_linear_33_528)"/>
<path d="M96.8563 15.4277C51.898 15.4277 15.4277 51.867 15.4277 96.8563C15.4277 141.846 51.867 178.285 96.8563 178.285C105.705 178.292 114.495 176.853 122.879 174.026L110.755 153.042C110.121 151.938 109.708 150.721 109.541 149.459C109.384 148.2 109.48 146.921 109.821 145.699C110.169 144.48 110.75 143.339 111.531 142.341C112.322 141.337 113.305 140.501 114.424 139.883C119.024 137.334 124.807 139.069 127.42 143.614L140.197 165.782C163.05 151.356 178.223 125.892 178.223 96.884C178.285 51.867 141.815 15.4277 96.8563 15.4277ZM115.946 123.938C115.947 125.849 115.441 127.727 114.481 129.379C113.403 131.243 111.797 132.745 109.865 133.697C107.934 134.648 105.764 135.006 103.63 134.725C101.853 134.491 100.162 133.821 98.7062 132.777C97.2502 131.733 96.0742 130.345 95.2822 128.738C94.4903 127.131 94.1068 125.353 94.1659 123.562C94.2249 121.771 94.7246 120.023 95.6207 118.471C96.5168 116.919 97.7816 115.612 99.3032 114.666C100.825 113.72 102.556 113.164 104.344 113.046C106.132 112.929 107.921 113.254 109.554 113.993C111.186 114.732 112.611 115.862 113.702 117.283C115.131 119.21 115.917 121.539 115.946 123.938ZM154.034 96.1104C154.031 99.3674 153.162 102.565 151.516 105.375C149.873 108.179 147.526 110.505 144.707 112.123L134.134 118.217C133.048 118.87 131.844 119.304 130.591 119.493C129.334 119.67 128.056 119.597 126.828 119.277C125.601 118.957 124.449 118.397 123.439 117.629C122.43 116.862 121.586 115.898 120.959 114.797C120.319 113.699 119.906 112.483 119.746 111.222C119.586 109.962 119.681 108.681 120.026 107.458C120.724 104.993 122.367 102.904 124.597 101.644L128.288 99.4995C128.911 99.1351 129.435 98.6221 129.812 98.0061C130.18 97.3852 130.373 96.676 130.371 95.9541C130.369 95.2367 130.188 94.5312 129.843 93.9021C129.488 93.2722 128.972 92.747 128.35 92.3794L82.0575 64.6774C81.4294 64.2942 80.7086 64.0898 79.9729 64.0862C79.2394 64.076 78.5163 64.2605 77.8774 64.621C77.2385 64.9815 76.7067 65.505 76.3363 66.1382C75.9673 66.7702 75.7739 67.4893 75.7761 68.2211V139.825C75.7761 142.364 74.7672 144.8 72.9713 146.596C71.1755 148.392 68.7398 149.401 66.2001 149.401C63.6604 149.401 61.2247 148.392 59.4288 146.596C57.633 144.8 56.6241 142.364 56.6241 139.825V59.9512C56.5985 56.6785 57.4457 53.4581 59.0785 50.6217C60.7113 47.7853 63.0706 45.4353 65.9134 43.8137L66.0388 43.7518C68.9025 42.1057 72.1553 41.2576 75.4582 41.296C78.7611 41.3344 81.9932 42.2578 84.8179 43.9701L144.955 79.9729C147.752 81.6279 150.065 83.9909 151.659 86.8239C153.252 89.657 154.072 92.86 154.034 96.1104Z" fill="url(#paint2_linear_33_528)"/>
</g>
<defs>
<filter id="filter0_d_33_528" x="7.32773" y="11.3277" width="179.057" height="179.057" filterUnits="userSpaceOnUse" color-interpolation-filters="sRGB">
<feFlood flood-opacity="0" result="BackgroundImageFix"/>
<feColorMatrix in="SourceAlpha" type="matrix" values="0 0 0 0 0 0 0 0 0 0 0 0 0 0 0 0 0 0 127 0" result="hardAlpha"/>
<feOffset dy="4"/>
<feGaussianBlur stdDeviation="4.05"/>
<feComposite in2="hardAlpha" operator="out"/>
<feColorMatrix type="matrix" values="0 0 0 0 0.155556 0 0 0 0 0.466667 0 0 0 0 0.278363 0 0 0 0.15 0"/>
<feBlend mode="normal" in2="BackgroundImageFix" result="effect1_dropShadow_33_528"/>
<feBlend mode="normal" in="SourceGraphic" in2="effect1_dropShadow_33_528" result="shape"/>
</filter>
<linearGradient id="paint0_linear_33_528" x1="96" y1="24" x2="152.889" y2="203.111" gradientUnits="userSpaceOnUse">
<stop stop-color="white"/>
<stop offset="1" stop-color="#E8FFF1"/>
</linearGradient>
<linearGradient id="paint1_linear_33_528" x1="66.1496" y1="31.8378" x2="130.671" y2="170.204" gradientUnits="userSpaceOnUse">
<stop stop-color="white"/>
<stop offset="0.194293" stop-color="white"/>
<stop offset="0.953372" stop-color="#BDECCF"/>
</linearGradient>
<linearGradient id="paint2_linear_33_528" x1="67.5171" y1="21.768" x2="120.477" y2="178.285" gradientUnits="userSpaceOnUse">
<stop offset="0.02" stop-color="#5DEA95"/>
<stop offset="0.163177" stop-color="#69DF98"/>
<stop offset="0.65" stop-color="#5BCC87"/>
<stop offset="1" stop-color="#4EC57C"/>
</linearGradient>
</defs>
</svg>
