<?xml version="1.0" encoding="UTF-8" standalone="no"?>
<svg
   version="1.1"
   id="svg1"
   width="529.98065"
   height="529.99707"
   viewBox="0 0 529.98066 529.99707"
   xmlns="http://www.w3.org/2000/svg"
   xmlns:svg="http://www.w3.org/2000/svg">
  <defs
     id="defs1" />
  <g
     id="g1"
     transform="translate(-159.56229,540.40727)">
    <path
       id="rect45-2"
       style="fill:#fff;fill-rule:nonzero;stroke:none"
       d="m 421.14844,-540.38505 c -145.89904,1.87981 -262.8293,121.34813 -261.57617,267.2539 0.84488,69.38739 28.87299,135.67505 78.0625,184.6211 -0.7621,0.58462 -50.94135,52.01259 -54.77735,57.60547 -7.41725,10.19445 -4.52273,20.12392 20.98633,20.45507 v 0.0293 c 73.95248,0.036 147.90495,-0.0555 221.85742,0.01 145.90906,-0.62696 263.86133,-119.09636 263.8418,-267.27333 0.0195,-148.17696 -122.49629,-264.58112 -268.39457,-262.70128 z m 99.60547,77.59375 c 21.70094,-0.006 42.16265,14.47781 45.8164,38.2207 3.93799,25.58912 -15.62141,49.82376 -43.16413,50.88679 -29.85828,1.15239 -45.58795,-28.60491 -43.35735,-33.13093 0.13586,-0.50772 1.88253,-1.58889 2.29297,-1.93945 -29.25121,4.88624 -46.77628,27.02228 -47.98828,49.70703 -0.0405,1.3664 -0.27996,3.00897 -0.92579,4.29101 1.6663,-1.2858 2.92357,-1.22994 13.77539,-0.17773 39.36157,3.81649 64.30048,15.16014 83.04647,24.72454 8.31096,4.24034 8.31096,4.24034 12.83867,1.51374 35.65103,-21.46915 83.71964,-4.70675 94.06994,36.86719 8.45503,33.96124 -10.57159,61.29064 -33.3287,73.04485 -5.74001,84.66212 -97.67261,134.09613 -186.76114,131.23054 -40.08676,-1.28942 -159.38685,-20.77987 -171.68555,-131.18945 -40.78046,-23.0247 -47.40555,-70.98313 -16.91797,-101.09571 24.94239,-24.63564 57.36544,-22.06134 80.11524,-7.43164 2.41838,1.55519 2.77832,1.46155 9.66992,-2.51172 21.90921,-12.63159 53.45846,-22.13079 83.56055,-25.1582 8.59395,-0.90554 11.36227,-1.28065 12.98828,0.39844 -1.14552,-2.00034 -0.92241,-3.0495 -0.27735,-9.53516 3.92549,-39.47031 37.57873,-61.68749 66.88282,-63.37105 -0.61127,-0.49801 -2.30402,-1.2749 -2.16797,-2.03906 5.72353,-21.36329 22.97175,-33.29959 41.37316,-33.30469 z m -181.82422,187.41406 c -13.09641,1.37894 -25.69549,12.49603 -29.24414,29.34766 -5.88674,27.95388 11.03116,46.29395 37.98828,41.18164 15.67791,-2.97324 23.89453,-13.7894 23.89453,-31.45117 0,-23.53206 -14.38826,-41.0004 -32.63867,-39.07813 z m 161.18554,0.99216 c -10.03148,2.91626 -17.92666,12.59076 -21.03515,25.77539 -5.30518,22.50192 3.29103,39.89817 21.62695,43.76758 24.30169,5.12839 46.57647,-11.78227 38.31055,-43.52539 -5.35951,-20.58183 -23.62821,-30.4581 -38.90235,-26.01758 z m -139.29687,92.17384 c -3.17761,2.01834 -2.79934,4.84187 1.73828,13.02343 26.89393,48.49096 100.0652,48.21216 125.45898,-2.3457 5.29472,-10.54159 3.71216,-11.68015 -18.44726,-13.27344 -33.24565,-2.39039 -103.16368,-0.95263 -108.75,2.59571 z" />
  </g>
</svg>
