<?xml version="1.0" encoding="UTF-8" standalone="no"?>
<svg
   width="110.00001mm"
   height="110.00002mm"
   viewBox="0 0 110.00001 110.00002"
   version="1.1"
   id="svg1"
   xml:space="preserve"
   xmlns="http://www.w3.org/2000/svg"
   xmlns:svg="http://www.w3.org/2000/svg"><defs
     id="defs1" /><g
     id="layer1"
     transform="translate(-11.274122,-6.417669)"><path
       id="path4"
       style="fill:#ffffff;fill-opacity:1;stroke-width:0.768846;stroke-miterlimit:23;stroke-opacity:0.396512"
       d="M 65.565386,6.4223283 C 35.284477,6.8125873 11.016032,31.607953 11.276194,61.89026 c 0.260208,30.282139 24.950859,54.65678 55.233837,54.52691 30.2834,-0.12989 54.764239,-24.716071 54.764099,-54.999749 l -0.008,-0.944645 C 120.74554,30.193872 95.846251,6.0321713 65.565386,6.4223283 Z M 93.645841,31.98976 c 0.37343,0.01858 0.7009,0.06826 1.02113,0.256832 0.63831,0.375886 0.83195,0.68799 0.91725,1.655713 -0.003,0.698647 -0.1883,2.103643 -0.41289,3.12229 -0.1969,0.893055 -8.91992,45.010124 -9.63197,48.383094 -0.66893,3.48848 -1.03226,4.23992 -2.38073,4.92786 -1.96157,1.00073 -3.19619,0.62875 -6.37222,-1.92133 -6.481265,-5.18901 -13.07339,-10.21956 -19.506824,-15.46985 l -2.723348,-2.14871 8.147306,-7.331851 c 4.480926,-4.032238 8.692926,-7.82061 9.360156,-8.418608 4.43769,-3.977208 8.45709,-7.620078 10.77298,-9.764262 0.77364,-0.716287 1.1121,-1.232635 1.0573,-1.612304 -0.15699,-1.088075 -0.69239,-0.841905 -6.82594,3.137793 -9.932695,6.41167 -20.057626,12.525964 -29.942356,19.013822 -0.825029,0.53348 -1.630999,0.96997 -1.790588,0.96997 -0.34925,0 -14.031055,-4.56258 -15.396993,-5.13457 -1.197559,-0.501469 -2.347144,-1.834071 -2.347144,-2.721281 0,-0.944629 1.483013,-2.197972 3.497461,-2.955891 1.547758,-0.582338 4.633033,-1.781863 12.112956,-4.709274 14.112406,-5.540067 28.234114,-11.051237 42.333334,-16.623791 5.251,-2.079227 6.99085,-2.711402 8.11113,-2.655652 z m -39.27662,39.529269 c 0.09463,-0.12607 9.248014,7.12513 9.248014,7.32617 0,0.0986 -1.934719,1.82742 -4.408567,4.06032 -2.473847,2.23289 -4.62401,4.21566 -4.778519,4.40593 -0.39372,0.48488 -1.607309,0.75089 -1.824178,0.39997 -0.098,-0.15861 -0.116225,-0.49543 -0.04082,-0.74879 0.07543,-0.25336 0.262959,-1.71111 0.417029,-3.23908 0.3617,-3.58705 1.308646,-12.10004 1.387046,-12.20452 z" /></g></svg>