<?xml version="1.0" encoding="UTF-8" standalone="no"?>
<svg
   width="512"
   height="512"
   viewBox="0 0 512 512"
   version="1.1"
   id="svg1"
   sodipodi:docname="album.svg"
   inkscape:version="1.3 (0e150ed6c4, 2023-07-21)"
   xmlns:inkscape="http://www.inkscape.org/namespaces/inkscape"
   xmlns:sodipodi="http://sodipodi.sourceforge.net/DTD/sodipodi-0.dtd"
   xmlns="http://www.w3.org/2000/svg"
   xmlns:svg="http://www.w3.org/2000/svg">
  <defs
     id="defs1" />
  <sodipodi:namedview
     id="namedview1"
     pagecolor="#ffffff"
     bordercolor="#000000"
     borderopacity="0.25"
     inkscape:showpageshadow="2"
     inkscape:pageopacity="0.0"
     inkscape:pagecheckerboard="0"
     inkscape:deskcolor="#d1d1d1"
     inkscape:zoom="0.33056641"
     inkscape:cx="-225.37075"
     inkscape:cy="777.45347"
     inkscape:window-width="2560"
     inkscape:window-height="1351"
     inkscape:window-x="2551"
     inkscape:window-y="-9"
     inkscape:window-maximized="1"
     inkscape:current-layer="svg1" />
  <g
     id="g1"
     transform="matrix(0.65358967,0,0,0.65358967,27.594356,88.631602)">
    <path
       id="path1"
       d="M 83.09269,31.220501 C 54.456816,31.250285 31.250283,54.456819 31.2205,83.092693 V 428.90731 c 0.02978,28.63587 23.236316,51.84241 51.87219,51.87219 H 428.90731 V 31.220501 Z M 337.65395,134.97544 c 2.88691,0.11822 5.66619,1.12846 7.95518,2.89164 3.48074,2.6466 5.5142,6.77605 5.48989,11.14863 v 171.78232 c -0.0666,11.06325 -7.16777,20.85703 -17.66221,24.35941 l -11.80084,4.29524 -0.19629,0.0654 c -9.09418,3.14847 -19.15224,1.66603 -26.95135,-3.97231 -7.96638,-5.71136 -12.65029,-14.94609 -12.55223,-24.74778 -0.11223,-11.55061 7.26344,-21.84581 18.23631,-25.45486 l 27.498,-9.78514 0.13509,-0.0485 c 3.7067,-1.24278 6.00279,-4.2847 6.00279,-7.93195 V 200.8879 c -0.003,-1.41081 -1.33566,-2.44017 -2.70168,-2.08746 l -94.35816,25.20157 -0.11398,0.0338 c -3.99308,1.00502 -6.57057,4.20397 -6.57057,8.14302 V 346.7299 c -0.0665,11.06426 -7.16734,20.85935 -17.66221,24.36363 l -11.80083,4.28892 -0.20686,0.0718 c -3.09036,1.04276 -6.3294,1.57737 -9.59095,1.58301 -6.23422,-0.01 -12.30611,-1.98819 -17.34983,-5.65241 -7.94868,-5.68446 -12.63186,-14.8831 -12.55224,-24.65491 0,-11.83874 6.95928,-21.81942 17.70654,-25.41264 l 28.09744,-9.72604 0.0654,-0.0274 c 3.64727,-1.22656 6.00279,-4.3703 6.00279,-8.01216 V 181.43583 c -0.0781,-7.95907 5.2387,-14.96271 12.92584,-17.02689 l 107.6998,-28.95016 c 1.38512,-0.3788 2.82035,-0.54183 4.25514,-0.48334 z"
       style="stroke-width:1.08067"
       sodipodi:nodetypes="cccccccscccccccccccsccccsccccccccccscccss" />
    <path
       id="path3"
       d="M 451.55274,32 A 224,224 0 0 0 443,32.300781 V 148.86914 a 112,112 0 0 1 112.37891,107.73242 112.12,112.12 0 0 1 -112,112 A 112,112 0 0 1 443,368.48633 V 480.92968 A 224,224 0 0 0 601.76953,98.21094 224,224 0 0 0 451.55274,32 Z m -8.17383,144.60156 A 80,80 0 0 0 443,176.64846 v 52.90039 a 32,32 0 0 1 32.37891,27.05271 32,32 0 0 1 -32,32 A 32,32 0 0 1 443,288.34765 v 47.69141 a 80,80 0 0 0 80.37891,-79.4375 80.09,80.09 0 0 0 -80,-80 z" />
  </g>
</svg>
