<?xml version="1.0" encoding="UTF-8" standalone="no"?>
<svg
   width="512"
   height="512"
   viewBox="0 0 512 512"
   version="1.1"
   id="svg1"
   sodipodi:docname="album.svg"
   inkscape:version="1.3 (0e150ed6c4, 2023-07-21)"
   xmlns:inkscape="http://www.inkscape.org/namespaces/inkscape"
   xmlns:sodipodi="http://sodipodi.sourceforge.net/DTD/sodipodi-0.dtd"
   xmlns="http://www.w3.org/2000/svg"
   xmlns:svg="http://www.w3.org/2000/svg">
  <defs
     id="defs1" />
  <sodipodi:namedview
     id="namedview1"
     pagecolor="#ffffff"
     bordercolor="#000000"
     borderopacity="0.25"
     inkscape:showpageshadow="2"
     inkscape:pageopacity="0.0"
     inkscape:pagecheckerboard="0"
     inkscape:deskcolor="#d1d1d1"
     inkscape:zoom="0.33056641"
     inkscape:cx="-225.37075"
     inkscape:cy="777.45346"
     inkscape:window-width="2560"
     inkscape:window-height="1351"
     inkscape:window-x="2551"
     inkscape:window-y="-9"
     inkscape:window-maximized="1"
     inkscape:current-layer="svg1" />
  <path
     id="path3"
     d="m 322.72456,109.54647 a 146.40409,146.40409 0 0 0 -5.58998,0.19659 v 76.18787 a 73.202043,73.202043 0 0 1 73.44969,70.4128 73.280474,73.280474 0 0 1 -73.20204,73.20204 73.202043,73.202043 0 0 1 -0.24765,-0.0753 v 73.49181 A 146.40409,146.40409 0 0 0 420.9047,152.82126 146.40409,146.40409 0 0 0 322.72456,109.54647 Z m -5.34233,94.51009 a 52.287174,52.287174 0 0 0 -0.24765,0.0307 v 34.57515 a 20.914869,20.914869 0 0 1 21.16252,17.68137 20.914869,20.914869 0 0 1 -20.91487,20.91487 20.914869,20.914869 0 0 1 -0.24765,-0.16595 v 31.17061 a 52.287174,52.287174 0 0 0 52.53483,-51.91953 52.345997,52.345997 0 0 0 -52.28718,-52.28717 z M 81.90288,109.037 c -18.716112,0.0195 -33.883662,15.18702 -33.903128,33.90313 v 226.02086 c 0.01946,18.71611 15.187016,33.88366 33.903128,33.90313 H 307.92374 V 109.037 Z m 166.37861,67.81316 c 1.88685,0.0773 3.70336,0.73755 5.19942,1.88994 2.27498,1.72979 3.60403,4.42876 3.58814,7.28663 v 112.27515 c -0.0435,7.23083 -4.68478,13.63194 -11.54384,15.92106 l -7.71291,2.80732 -0.12829,0.0428 c -5.94386,2.05781 -12.51771,1.0889 -17.61512,-2.59626 -5.20675,-3.73289 -8.2681,-9.76861 -8.20401,-16.1749 -0.0734,-7.54935 4.74731,-14.27819 11.91906,-16.63703 l 17.97241,-6.39547 0.0883,-0.0317 c 2.42267,-0.81227 3.92337,-2.80044 3.92337,-5.18425 V 219.9299 c -0.002,-0.92209 -0.87298,-1.59487 -1.76579,-1.36434 l -61.67152,16.47148 -0.0745,0.0221 c -2.60983,0.65687 -4.29446,2.74767 -4.29446,5.3222 v 74.86939 c -0.0435,7.23149 -4.68449,13.63346 -11.54383,15.92382 l -7.7129,2.80319 -0.13521,0.0469 c -2.01982,0.68154 -4.13683,1.03095 -6.26854,1.03464 -4.07462,-0.007 -8.04315,-1.29946 -11.33967,-3.69436 -5.19518,-3.7153 -8.25605,-9.72744 -8.20402,-16.11419 0,-7.73768 4.54852,-14.26095 11.57282,-16.60944 l 18.36419,-6.35684 0.0427,-0.0179 c 2.38382,-0.80166 3.92336,-2.85638 3.92336,-5.23666 v -79.81367 c -0.051,-5.20197 3.42396,-9.77948 8.44819,-11.1286 l 70.39148,-18.92153 c 0.9053,-0.24758 1.84335,-0.35413 2.78112,-0.3159 z"
     style="stroke-width:0.65359" />
</svg>
