<?xml version="1.0" encoding="UTF-8" standalone="no"?>
<svg
   width="512"
   height="512"
   viewBox="0 0 512 512"
   version="1.1"
   id="svg2"
   sodipodi:docname="alternative-version.svg"
   inkscape:version="1.3.2 (091e20e, 2023-11-25, custom)"
   xmlns:inkscape="http://www.inkscape.org/namespaces/inkscape"
   xmlns:sodipodi="http://sodipodi.sourceforge.net/DTD/sodipodi-0.dtd"
   xmlns="http://www.w3.org/2000/svg"
   xmlns:svg="http://www.w3.org/2000/svg">
  <defs
     id="defs2" />
  <sodipodi:namedview
     id="namedview2"
     pagecolor="#ffffff"
     bordercolor="#000000"
     borderopacity="0.25"
     inkscape:showpageshadow="2"
     inkscape:pageopacity="0.0"
     inkscape:pagecheckerboard="0"
     inkscape:deskcolor="#d1d1d1"
     inkscape:zoom="0.34181431"
     inkscape:cx="1607.598"
     inkscape:cy="-299.87041"
     inkscape:window-width="2119"
     inkscape:window-height="1258"
     inkscape:window-x="2835"
     inkscape:window-y="75"
     inkscape:window-maximized="0"
     inkscape:current-layer="svg2" />
  <path
     id="path2-9"
     style="fill:#000000"
     d="M 327.99952 31.999992 C 358.49963 32.036812 380.50342 51.167263 383.98072 59.999993 L 140.1001 59.999993 C 95.91736 59.999993 59.999995 95.816528 59.999995 139.99926 L 59.999995 384.99927 C 50.391508 378.41895 32.036794 358.49962 31.999994 327.99951 L 31.999994 103.99951 C 31.999994 64.235046 64.235048 31.999992 103.99951 31.999992 L 327.99952 31.999992 z M 368.00001 72.000482 C 398.50012 72.037302 420.5022 91.167753 423.9795 100.00048 L 180.10059 100.00048 C 135.91785 100.00048 100.00048 135.81702 100.00048 179.99975 L 100.00048 424.99976 C 90.391998 418.41944 72.037283 398.50011 72.000483 368 L 72.000483 144 C 72.000483 104.23554 104.23554 72.000482 144 72.000482 L 368.00001 72.000482 z M 408.0005 111.99926 A 72 72 0 0 1 480.00001 184.00049 L 480.00001 408.00049 A 72 72 0 0 1 408.0005 480.00001 L 184.00049 480.00001 A 72 72 0 0 1 111.99926 408.00049 L 111.99926 184.00049 A 72 72 0 0 1 184.00049 111.99926 L 408.0005 111.99926 z M 290.88721 155.49463 A 140.12992 140.12992 0 0 0 196.91357 196.91357 A 140.12992 140.12992 0 1 0 395.0857 395.0857 A 140.12992 140.12992 0 0 0 290.88721 155.49463 z M 309.66895 227.28052 A 70.064958 70.064958 0 0 1 296.00049 366.06543 A 70.140027 70.140027 0 0 1 225.93555 296.00049 A 70.064958 70.064958 0 0 1 309.66895 227.28052 z M 296.00049 245.95288 A 50.102701 50.102701 0 0 0 245.95288 296.00049 A 50.046398 50.046398 0 1 0 296.00049 245.95288 z M 288.33911 277.50586 A 20.018559 20.018559 0 1 1 296.00049 316.01782 A 20.018559 20.018559 0 0 1 275.98145 296.00049 A 20.018559 20.018559 0 0 1 288.33911 277.50586 z "
     transform="matrix(-1.1428571,0,0,1.1428571,548.57142,-36.571418)" />
</svg>
