<?xml version="1.0" encoding="UTF-8" standalone="no"?>
<svg
   width="512"
   height="512"
   viewBox="0 0 512 512"
   version="1.1"
   id="svg1"
   sodipodi:docname="artists-edit.svg"
   inkscape:version="1.3 (0e150ed6c4, 2023-07-21)"
   xmlns:inkscape="http://www.inkscape.org/namespaces/inkscape"
   xmlns:sodipodi="http://sodipodi.sourceforge.net/DTD/sodipodi-0.dtd"
   xmlns="http://www.w3.org/2000/svg"
   xmlns:svg="http://www.w3.org/2000/svg">
  <defs
     id="defs1" />
  <sodipodi:namedview
     id="namedview1"
     pagecolor="#ffffff"
     bordercolor="#000000"
     borderopacity="0.25"
     inkscape:showpageshadow="2"
     inkscape:pageopacity="0.0"
     inkscape:pagecheckerboard="0"
     inkscape:deskcolor="#d1d1d1"
     inkscape:zoom="0.5"
     inkscape:cx="179"
     inkscape:cy="560"
     inkscape:window-width="2560"
     inkscape:window-height="1351"
     inkscape:window-x="2551"
     inkscape:window-y="-9"
     inkscape:window-maximized="1"
     inkscape:current-layer="svg1" />
  <path
     id="path1-1"
     style="color:#000000;fill:#000000;stroke-width:0.549637;stroke-linecap:round;stroke-linejoin:round;-inkscape-stroke:none"
     d="m 490.49842,43.887173 c -5.44268,0 -10.8844,2.041445 -14.96686,6.124369 l 0.003,-0.0043 -6.4797,6.474333 a 12.093215,12.093215 0 0 0 -0.003,17.104217 l 13.24603,13.246028 a 12.093215,12.093215 0 0 0 17.09992,0 l 6.48078,-6.479699 a 12.093215,12.093215 0 0 0 0.003,-0.0033 c 8.15762,-8.163675 8.15762,-21.759314 0,-29.92299 a 12.093215,12.093215 0 0 0 -0.003,-0.0032 l -0.41223,-0.411154 c -4.08246,-4.082831 -9.52525,-6.124276 -14.96794,-6.124276 z m -33.21973,32.914858 a 12.093215,12.093215 0 0 0 -11.68515,3.141091 L 296.02046,229.88441 a 12.093215,12.093215 0 0 0 -2.61507,3.92368 l -9.06364,21.94145 a 12.093215,12.093215 0 0 0 15.7924,15.79239 l 21.94145,-9.06364 a 12.093215,12.093215 0 0 0 3.92367,-2.61507 l 149.9413,-149.57308 a 12.093215,12.093215 0 0 0 0.01,-17.110653 L 462.70421,79.933459 A 12.093215,12.093215 0 0 0 457.2787,76.802031 Z M 167.65516,296.35786 c -9.13758,-4.4675 -20.99723,-6.70124 -34.10361,-6.70124 -15.30376,0 -30.16597,3.98957 -41.854186,11.23107 -13.251832,8.2233 -22.166042,20.19723 -25.766008,34.65425 a 14.228448,14.228448 0 0 0 2.488287,12.13496 13.153133,13.153133 0 0 0 10.436275,5.07008 h 57.661842 a 4.1558083,4.1558083 0 0 0 4.08828,-3.41296 c 0.0571,-0.32726 0.12987,-0.65453 0.21298,-0.97661 4.40516,-17.69336 14.72715,-32.64387 29.97897,-43.54248 a 4.1558083,4.1558083 0 0 0 -0.32727,-6.95578 c -0.81558,-0.47792 -1.75064,-0.98181 -2.81556,-1.50129 z m -34.1088,-16.33752 c -18.28036,0 -34.352953,-16.99726 -35.843848,-37.88539 -0.737656,-10.70121 2.597388,-20.59722 9.350568,-27.8543 6.68046,-7.18436 16.10376,-11.14276 26.49328,-11.14276 10.38952,0 19.74009,3.97918 26.45692,11.2051 6.80513,7.31421 10.12978,17.18946 9.35056,27.80235 -1.49089,20.88294 -17.55829,37.875 -35.80748,37.875 z m 166.6635,89.34988 H 163.25 a 14.394681,14.394681 0 0 1 -11.42847,-5.54281 15.698566,15.698566 0 0 1 -2.73245,-13.39729 c 4.37399,-17.56348 15.21026,-32.12959 31.3348,-42.11912 14.31156,-8.86226 32.52959,-13.74533 51.30345,-13.74533 19.14269,0 36.8828,4.67528 51.27748,13.53235 16.1609,9.93757 27.01275,24.5868 31.36596,42.36327 a 15.724539,15.724539 0 0 1 -2.76361,13.39209 14.379097,14.379097 0 0 1 -11.3973,5.51684 z m -68.48253,-91.42779 c -10.68043,0 -21.00761,-4.76879 -29.09066,-13.42326 -7.85967,-8.44148 -12.65963,-19.69853 -13.50637,-31.68804 -0.90389,-12.7895 2.99737,-24.55043 10.98172,-33.12178 7.98435,-8.57136 19.14789,-13.1947 31.61531,-13.1947 12.37911,0 23.57382,4.70645 31.5322,13.25703 8.03629,8.63369 11.94794,20.37385 11.04406,33.05426 v 0 c -0.86753,12.00509 -5.66229,23.25694 -13.50638,31.68804 -8.06227,8.65966 -18.38426,13.42845 -29.06988,13.42845 z m 34.28542,-45.71388 z M 43.844588,87.772267 C 19.828381,87.839526 0.06747775,107.60043 2.132247e-4,131.61664 a 14.629945,14.629945 0 0 0 0,0.0411 v 292.56967 a 14.629945,14.629945 0 0 0 0,0.0411 C 0.06747775,448.28465 19.828343,468.0456 43.844588,468.11281 a 14.629945,14.629945 0 0 0 0.04106,0 H 336.4553 a 14.629945,14.629945 0 0 0 0.0411,0 c 24.01622,-0.0673 43.77718,-19.82812 43.84439,-43.84438 a 14.629945,14.629945 0 0 0 0,-0.041 v -146.2849 a 14.628483,14.628483 0 0 0 -14.62848,-14.62848 14.628483,14.628483 0 0 0 -14.62848,14.62848 v 146.24376 c -0.0231,8.26254 -6.40698,14.64641 -14.66955,14.66955 H 43.926731 c -8.26255,-0.0231 -14.646414,-6.40696 -14.669554,-14.66955 V 131.69878 c 0.02314,-8.2626 6.40696,-14.64642 14.669554,-14.66956 H 365.71229 A 14.628483,14.628483 0 0 0 380.34076,102.40074 14.628483,14.628483 0 0 0 365.71229,87.772267 H 43.885662 a 14.629945,14.629945 0 0 0 -0.04106,0 z" />
</svg>
