<?xml version="1.0" encoding="UTF-8" standalone="no"?>
<svg
   width="512"
   height="512"
   viewBox="0 0 512 512"
   version="1.1"
   id="svg2"
   sodipodi:docname="artist.svg"
   inkscape:version="1.3 (0e150ed6c4, 2023-07-21)"
   xmlns:inkscape="http://www.inkscape.org/namespaces/inkscape"
   xmlns:sodipodi="http://sodipodi.sourceforge.net/DTD/sodipodi-0.dtd"
   xmlns="http://www.w3.org/2000/svg"
   xmlns:svg="http://www.w3.org/2000/svg">
  <defs
     id="defs2">
    <clipPath
       clipPathUnits="userSpaceOnUse"
       id="clipPath10">
      <path
         id="path11"
         style="fill:#ff0000;fill-opacity:1;fill-rule:nonzero;stroke:none"
         d="M 47.994141,288 V 480.00195 H 387.19922 V 441.375 c -0.39957,1.55957 -0.92447,3.08076 -1.6836,4.51758 -0.76886,1.3799 -1.61908,2.70806 -2.68945,3.83789 -0.21954,0.74372 -0.50483,1.43015 -0.85351,1.58008 -0.42798,0.18404 -0.88945,0.22156 -1.35938,0.21679 -0.60417,0.37428 -1.14232,0.71536 -1.80859,1.03321 -0.20222,0.0965 -0.41232,0.17259 -0.61914,0.25781 -1.05103,1.1017 -2.74273,2.97278 -4.30274,3.24414 -1.17011,0.20354 -2.35009,-0.34267 -3.52539,-0.51367 -0.51792,-0.5441 -1.08143,-1.04749 -1.55469,-1.63086 -0.3011,-0.37116 -0.56494,-0.77088 -0.82617,-1.17188 -2.44819,-0.41953 -4.95259,-0.90419 -6.87304,-2.59765 -1.75123,-1.58034 -3.16776,-3.01265 -3.83399,-5.35938 -0.15406,-0.65932 -0.24196,-1.06456 -0.31641,-1.55859 -0.0669,-0.15729 -0.13416,-0.31739 -0.20312,-0.47266 -0.93618,-2.31762 -1.75933,-4.6826 -2.46094,-7.08203 -0.49422,-1.98434 -0.88347,-3.99911 -0.85937,-6.05469 0.0415,-1.85978 0.19093,-3.7127 0.57422,-5.53711 0.43155,-2.24656 0.83756,-4.50157 1.42968,-6.71289 0.23893,-0.88135 0.50528,-1.75274 0.76563,-2.62695 -0.73177,-0.87495 -0.39686,-2.35602 -0.63867,-3.50976 0.55623,-1.53968 1.01548,-3.28554 1.99609,-4.63282 0.29279,-0.40226 0.54735,-0.93497 1.01953,-1.09179 0.24928,-0.0828 0.50768,-0.16079 0.77149,-0.22657 0.65088,-1.62418 1.38741,-3.21215 2.25781,-4.74023 0.83222,-1.50821 1.69385,-3.01255 2.63281,-4.46289 -0.25604,-0.25822 -0.47964,-0.54285 -0.6543,-0.85742 -0.66901,-1.20498 0.72455,-2.29076 1.41993,-2.93555 2.06268,-1.70989 4.24405,-3.266 6.41797,-4.83008 3.22803,-2.24641 6.53479,-4.41394 10.11718,-6.06055 0.88803,-0.34812 2.42042,-1.05466 3.42969,-1.03906 0.73842,0.0114 1.58465,-0.0175 2.17383,0.42774 0.0212,0.016 0.0359,0.0328 0.0566,0.0488 V 288 Z m 335.921879,94.77344 c -0.0894,0.0159 -0.15988,0.14607 -0.13868,0.23437 0.01,0.0399 0.0233,0.0792 0.0332,0.11914 0.032,-0.0479 0.0658,-0.0946 0.0977,-0.14257 0.002,-0.0703 0.077,-0.22324 0.008,-0.21094 z m 3.2832,3.88867 c -0.54109,0.75325 -1.10242,1.491 -1.73242,2.16797 0.66583,0.96338 0.81794,1.64823 0.60937,2.17383 0.0433,0.20313 0.0631,0.41108 0.0547,0.625 0.35598,-0.0226 0.71231,-0.0369 1.06836,-0.0566 z m 0,10.86328 c -0.0567,0.006 -0.11323,0.0134 -0.16992,0.0195 0.0134,0.0911 0.0253,0.16331 0.0371,0.24024 0.0471,0.0289 0.0876,0.0632 0.13281,0.0937 z" />
    </clipPath>
  </defs>
  <sodipodi:namedview
     id="namedview2"
     pagecolor="#ffffff"
     bordercolor="#000000"
     borderopacity="0.25"
     inkscape:showpageshadow="2"
     inkscape:pageopacity="0.0"
     inkscape:pagecheckerboard="0"
     inkscape:deskcolor="#d1d1d1"
     inkscape:zoom="0.4674915"
     inkscape:cx="-16.043072"
     inkscape:cy="530.49093"
     inkscape:window-width="2560"
     inkscape:window-height="1351"
     inkscape:window-x="2551"
     inkscape:window-y="-9"
     inkscape:window-maximized="1"
     inkscape:current-layer="svg2" />
  <path
     id="path12"
     style="display:inline;stroke-width:1.0174"
     d="m 340.60757,483.89535 c -11.79778,-0.0378 -25.31884,-7.85966 -34.86369,-14.79398 -14.98322,-10.82571 -19.79398,-30.21693 -19.80742,-48.70186 -0.0552,-21.96702 24.1001,-49.65388 44.9065,-56.69994 l 35.73603,-15.4537 c 0,0 -6.11921,-10.79387 -21.47262,-21.02949 -37.41978,-24.92617 -84.81955,-38.66104 -133.48155,-38.66104 -48.66199,0 -96.06176,13.72469 -133.481537,38.66104 C 36.023138,355.30665 9.2232107,395.32067 0.63639876,442.9551 -1.3373472,453.87174 1.3299036,464.6657 7.9429696,472.57086 14.027034,479.85877 23.0703,484.01837 32.563155,483.89535 Z m 8.47064,-16.82676 a 44.928201,44.928201 0 0 1 -26.33834,-8.58683 46.100241,46.100241 0 0 1 -19.10263,-37.33435 40.907453,40.907453 0 0 1 27.78712,-38.84825 l 41.3958,-13.93425 a 13.226146,13.226146 0 0 0 8.95308,-12.60757 V 151.26892 a 26.126726,26.126726 0 0 1 19.60726,-25.35351 l 88.22043,-22.90361 a 17.906167,17.906167 0 0 1 22.39898,17.32829 v 47.00367 a 26.118587,26.118587 0 0 1 -19.69678,25.38607 l -74.59546,18.82589 a 13.218007,13.218007 0 0 0 -9.88909,12.89244 v 197.04109 a 39.247063,39.247063 0 0 1 -26.68019,37.28552 l -17.47479,5.88462 a 45.579335,45.579335 0 0 1 -14.58539,2.4092 z M 289.59804,61.248755 C 269.79952,39.873268 242.1467,28.101998 211.62482,28.101998 c -30.68465,0 -58.42904,11.700052 -78.136,32.943278 -19.92061,21.477227 -29.62657,50.666314 -27.3476,82.185244 4.51724,62.18323 51.83632,112.76815 105.4836,112.76815 53.64729,0 100.88498,-50.57475 105.47343,-112.74781 2.30949,-31.23405 -7.45751,-60.362095 -27.50021,-82.002105 z" />
</svg>
