<?xml version="1.0" encoding="UTF-8" standalone="no"?>
<svg
   width="512"
   height="512"
   viewBox="0 0 512 512"
   version="1.1"
   id="svg1"
   sodipodi:docname="artists-edit.svg"
   inkscape:version="1.3 (0e150ed6c4, 2023-07-21)"
   xmlns:inkscape="http://www.inkscape.org/namespaces/inkscape"
   xmlns:sodipodi="http://sodipodi.sourceforge.net/DTD/sodipodi-0.dtd"
   xmlns="http://www.w3.org/2000/svg"
   xmlns:svg="http://www.w3.org/2000/svg">
  <defs
     id="defs1" />
  <sodipodi:namedview
     id="namedview1"
     pagecolor="#ffffff"
     bordercolor="#000000"
     borderopacity="0.25"
     inkscape:showpageshadow="2"
     inkscape:pageopacity="0.0"
     inkscape:pagecheckerboard="0"
     inkscape:deskcolor="#d1d1d1"
     inkscape:zoom="0.1767767"
     inkscape:cx="-76.36753"
     inkscape:cy="-910.75351"
     inkscape:window-width="2560"
     inkscape:window-height="1351"
     inkscape:window-x="2551"
     inkscape:window-y="-9"
     inkscape:window-maximized="1"
     inkscape:current-layer="svg1" />
  <path
     id="path12"
     style="display:inline;stroke-width:0.408159"
     d="m 202.11277,369.36955 c -4.73302,-0.0151 -10.1574,-3.15314 -13.9866,-5.93504 -6.01096,-4.34306 -7.94094,-12.12242 -7.94634,-19.5382 -0.0221,-8.81272 9.66848,-19.92013 18.01558,-22.74686 l 14.33657,-6.19971 c 0,0 -2.4549,-4.33029 -8.61438,-8.43661 -15.01205,-9.99987 -34.02788,-15.51002 -53.55008,-15.51002 -19.5222,0 -38.53803,5.50607 -53.550084,15.51002 -16.897746,11.26925 -27.649332,27.32206 -31.094187,46.43203 -0.791827,4.37953 0.27822,8.70985 2.931248,11.88123 2.440803,2.92377 6.068777,4.59251 9.877118,4.54316 z m 3.39825,-6.75056 a 18.024281,18.024281 0 0 1 -10.56641,-3.44485 18.49448,18.49448 0 0 1 -7.66358,-14.97779 16.411239,16.411239 0 0 1 11.14763,-15.58512 l 16.60715,-5.59014 a 5.306061,5.306061 0 0 0 3.5918,-5.0579 v -82.0366 a 10.481511,10.481511 0 0 1 7.86603,-10.17131 l 35.39224,-9.18847 a 7.1835903,7.1835903 0 0 1 8.98602,6.95176 v 18.85692 a 10.478246,10.478246 0 0 1 -7.90195,10.18437 l -29.92619,7.55257 a 5.3027958,5.3027958 0 0 0 -3.9673,5.17218 v 79.04888 a 15.745124,15.745124 0 0 1 -10.70355,14.9582 l -7.01053,2.36079 a 18.285503,18.285503 0 0 1 -5.85136,0.96651 z M 181.64879,199.81233 c -7.94277,-8.57541 -19.03652,-13.29781 -31.28127,-13.29781 -12.31006,0 -23.44055,4.69383 -31.34658,13.21618 -7.99174,8.61622 -11.88557,20.32629 -10.9713,32.97104 1.81222,24.94665 20.79568,45.2403 42.31788,45.2403 21.5222,0 40.473,-20.28956 42.31379,-45.23213 0.92652,-12.53047 -2.9918,-24.21605 -11.03252,-32.89758 z M 490.49787,43.887203 c -5.44268,0 -10.88441,2.041442 -14.96685,6.124366 l 0.004,-0.0043 -6.47968,6.474333 a 12.093215,12.093215 0 0 0 -0.004,17.104219 l 13.24605,13.246026 a 12.093215,12.093215 0 0 0 17.09992,0 l 6.48075,-6.479701 a 12.093215,12.093215 0 0 0 0.004,-0.0033 c 8.15762,-8.163673 8.15762,-21.759311 0,-29.922988 a 12.093215,12.093215 0 0 0 -0.004,-0.0033 l -0.4122,-0.411151 c -4.08249,-4.082834 -9.52528,-6.124276 -14.96795,-6.124276 z m -33.21974,32.914856 a 12.093215,12.093215 0 0 0 -11.68514,3.14109 L 296.01991,229.88444 a 12.093215,12.093215 0 0 0 -2.61507,3.92367 l -9.06364,21.94146 a 12.093215,12.093215 0 0 0 15.79239,15.79239 l 21.94145,-9.06364 a 12.093215,12.093215 0 0 0 3.92368,-2.61507 L 475.93999,110.29017 a 12.093215,12.093215 0 0 0 0.01,-17.110656 L 462.70378,79.933488 a 12.093215,12.093215 0 0 0 -5.42553,-3.131429 z M 43.844036,87.772295 C 19.827829,87.839555 0.06692732,107.60046 -3.3721177e-4,131.61666 a 14.629945,14.629945 0 0 0 0,0.0411 v 292.56967 a 14.629945,14.629945 0 0 0 0,0.0411 C 0.06692732,448.28468 19.827791,468.04564 43.844036,468.11285 a 14.629945,14.629945 0 0 0 0.04106,0 H 336.45474 a 14.629945,14.629945 0 0 0 0.0411,0 c 24.01622,-0.0673 43.77719,-19.82813 43.8444,-43.84439 a 14.629945,14.629945 0 0 0 0,-0.041 v -146.2849 a 14.628483,14.628483 0 0 0 -14.62848,-14.62848 14.628483,14.628483 0 0 0 -14.62849,14.62848 v 146.24376 c -0.0231,8.26254 -6.40698,14.64642 -14.66955,14.66956 H 43.926179 c -8.26255,-0.0231 -14.646414,-6.40697 -14.669553,-14.66956 V 131.69881 c 0.02314,-8.26259 6.40696,-14.64642 14.669553,-14.66956 H 365.71173 A 14.628483,14.628483 0 0 0 380.34021,102.40077 14.628483,14.628483 0 0 0 365.71173,87.772295 H 43.885111 a 14.629945,14.629945 0 0 0 -0.04106,0 z" />
</svg>
