<?xml version="1.0" encoding="UTF-8" standalone="no"?>
<svg
   width="512"
   height="512"
   viewBox="0 0 512 512"
   version="1.1"
   id="svg1"
   sodipodi:docname="cover-edit.svg"
   inkscape:version="1.3 (0e150ed6c4, 2023-07-21)"
   xmlns:inkscape="http://www.inkscape.org/namespaces/inkscape"
   xmlns:sodipodi="http://sodipodi.sourceforge.net/DTD/sodipodi-0.dtd"
   xmlns="http://www.w3.org/2000/svg"
   xmlns:svg="http://www.w3.org/2000/svg">
  <defs
     id="defs1" />
  <sodipodi:namedview
     id="namedview1"
     pagecolor="#ffffff"
     bordercolor="#000000"
     borderopacity="0.25"
     inkscape:showpageshadow="2"
     inkscape:pageopacity="0.0"
     inkscape:pagecheckerboard="0"
     inkscape:deskcolor="#d1d1d1"
     inkscape:zoom="0.5"
     inkscape:cx="385"
     inkscape:cy="428"
     inkscape:window-width="2560"
     inkscape:window-height="1351"
     inkscape:window-x="2551"
     inkscape:window-y="-9"
     inkscape:window-maximized="1"
     inkscape:current-layer="svg1" />
  <path
     id="path1-78"
     style="stroke-width:0.476187"
     d="M 240.76,186.51484 H 88.380191 A 30.509293,30.509293 0 0 0 57.904225,216.9908 V 338.89465 A 30.509293,30.509293 0 0 0 88.380191,369.3706 H 240.76 a 30.509293,30.509293 0 0 0 30.47597,-30.47595 V 216.9908 A 30.509293,30.509293 0 0 0 240.76,186.51484 Z m -38.09496,30.47596 a 22.85697,22.85697 0 1 1 -22.85697,22.85698 22.880779,22.880779 0 0 1 22.85697,-22.85698 z M 88.380191,354.13262 A 15.23798,15.23798 0 0 1 73.142213,338.89465 v -32.20453 l 45.161557,-40.14255 a 22.885542,22.885542 0 0 1 31.3331,0.90476 L 180.5652,298.314 124.74658,354.13262 Z M 255.99798,338.89465 A 15.23798,15.23798 0 0 1 240.76,354.13262 h -94.4612 l 57.81861,-57.81861 a 22.723637,22.723637 0 0 1 29.35218,-0.0762 l 22.52839,18.77129 z M 490.49787,43.887357 c -5.44268,0 -10.88441,2.041444 -14.96687,6.124369 l 0.004,-0.0043 -6.4797,6.474333 a 12.093215,12.093215 0 0 0 -0.004,17.104217 l 13.24602,13.246028 a 12.093215,12.093215 0 0 0 17.09993,0 l 6.48077,-6.479699 a 12.093215,12.093215 0 0 0 0.004,-0.0033 c 8.15762,-8.163675 8.15762,-21.759314 0,-29.92299 a 12.093215,12.093215 0 0 0 -0.004,-0.0032 l -0.41222,-0.411157 c -4.08247,-4.082832 -9.52526,-6.124276 -14.96794,-6.124276 z m -33.21974,32.914857 a 12.093215,12.093215 0 0 0 -11.68514,3.141091 L 296.0199,229.8846 a 12.093215,12.093215 0 0 0 -2.61506,3.92368 l -9.06364,21.94144 a 12.093215,12.093215 0 0 0 15.79239,15.79239 l 21.94145,-9.06363 a 12.093215,12.093215 0 0 0 3.92368,-2.61506 l 149.9413,-149.57309 a 12.093215,12.093215 0 0 0 0.01,-17.110659 L 462.70366,79.933643 a 12.093215,12.093215 0 0 0 -5.42551,-3.131429 z M 43.844158,87.77245 C 19.827951,87.839709 0.06704183,107.60062 -2.2267906e-4,131.61683 a 14.629946,14.629946 0 0 0 0,0.0411 v 292.56966 a 14.629946,14.629946 0 0 0 0,0.041 C 0.06704091,448.28483 19.827907,468.04579 43.844158,468.113 a 14.629946,14.629946 0 0 0 0.04106,0 H 336.45487 a 14.629946,14.629946 0 0 0 0.041,0 c 24.01621,-0.0673 43.77718,-19.82813 43.84439,-43.84439 a 14.629946,14.629946 0 0 0 0,-0.0411 V 277.94272 a 14.628483,14.628483 0 0 0 -14.62849,-14.62848 14.628483,14.628483 0 0 0 -14.62848,14.62848 v 146.24376 c -0.0231,8.26254 -6.40696,14.64641 -14.66954,14.66955 H 43.92629 c -8.26255,-0.0231 -14.646409,-6.40696 -14.669554,-14.66955 V 131.69897 c 0.02314,-8.2626 6.406966,-14.64642 14.669554,-14.66956 H 365.71184 A 14.628483,14.628483 0 0 0 380.34032,102.40093 14.628483,14.628483 0 0 0 365.71184,87.77245 H 43.885222 a 14.629946,14.629946 0 0 0 -0.04106,0 z" />
</svg>
