<?xml version="1.0" encoding="UTF-8" standalone="no"?>
<svg
   width="512"
   height="512"
   viewBox="0 0 512 512"
   version="1.1"
   id="svg2"
   sodipodi:docname="download-cover.svg"
   inkscape:version="1.3.2 (091e20e, 2023-11-25, custom)"
   xmlns:inkscape="http://www.inkscape.org/namespaces/inkscape"
   xmlns:sodipodi="http://sodipodi.sourceforge.net/DTD/sodipodi-0.dtd"
   xmlns="http://www.w3.org/2000/svg"
   xmlns:svg="http://www.w3.org/2000/svg">
  <defs
     id="defs2" />
  <sodipodi:namedview
     id="namedview2"
     pagecolor="#ffffff"
     bordercolor="#000000"
     borderopacity="0.25"
     inkscape:showpageshadow="2"
     inkscape:pageopacity="0.0"
     inkscape:pagecheckerboard="0"
     inkscape:deskcolor="#d1d1d1"
     inkscape:zoom="0.19749272"
     inkscape:cx="-1270.9329"
     inkscape:cy="293.68171"
     inkscape:window-width="2560"
     inkscape:window-height="1351"
     inkscape:window-x="2551"
     inkscape:window-y="-9"
     inkscape:window-maximized="1"
     inkscape:current-layer="svg2" />
  <path
     id="line1-9"
     style="color:#000000;fill:#000000;stroke-width:1.14286;stroke-linecap:round;stroke-linejoin:round;-inkscape-stroke:none"
     d="m 493.71426,270.85707 c -10.09893,0 -18.28572,8.18679 -18.28572,18.28572 v 166.8572 c 0,10.09893 8.18679,18.28572 18.28572,18.28572 10.09892,0 18.28572,-8.18679 18.28572,-18.28572 v -166.8572 c 0,-10.09893 -8.1868,-18.28572 -18.28572,-18.28572 z M 122.93289,-7.6479993e-6 c -10.09892,0 -18.28572,8.1867941479993 -18.28572,18.2857186479993 0,10.098925 8.1868,18.285721 18.28572,18.285721 h 103.85719 c 10.09893,0 18.28572,-8.186796 18.28572,-18.285721 C 245.0758,8.1867865 236.88901,-7.6479993e-6 226.79008,-7.6479993e-6 Z M 475.42854,308.57137 v 130.28576 c 0,20.57685 -15.99459,36.57144 -36.57144,36.57144 H 73.142696 c -20.576852,0 -36.57144,-15.99459 -36.57144,-36.57144 V 73.142872 c 0,-20.576852 15.994588,-36.57144 36.57144,-36.57144 H 213.57132 V -7.6479993e-6 H 73.142696 C 32.937872,-7.6479993e-6 -1.8426995e-4,32.938048 -1.8426995e-4,73.142872 V 438.85713 c 0,40.20482 32.93805626995,73.14288 73.14288026995,73.14288 H 438.8571 c 40.20482,0 73.14288,-32.93806 73.14288,-73.14288 V 308.57137 m -128.26344,15.30134 c -13.27356,0.61581 -26.32667,5.98078 -36.29019,15.96429 -174.08869,175.62721 -148.75095,151.7294 50.52008,145.83489 l 84.03574,-5.34375 c 7.75544,6.4683 19.28604,-40.28932 25.75448,-48.04465 6.4683,-7.75544 5.42497,-19.28604 -2.33036,-25.75448 l -84.05806,-70.10269 -0.0201,-0.0178 c -10.84507,-9.01814 -24.33807,-13.15151 -37.61162,-12.53572 z m -200.7255,-72.4085 c -13.55413,-0.40165 -27.25483,4.14148 -38.04242,13.71876 l -0.0114,0.009 L 6.1357159,388.62072 c -7.5467978,6.71015 -8.2253534,18.26757 -1.5156256,25.81474 6.7101487,7.5468 18.2675677,72.22537 25.8147397,65.51564 l 138.81281,11.43729 c 150.43606,0.15357 110.71429,-79.50688 154.52735,-120.57145 l -103.60048,-103.40628 -0.0114,-0.009 c -10.20027,-10.19255 -23.60223,-15.536 -37.15179,-15.9375 z m 186.36032,33.79302 c 78.76802,0 142.62862,-63.8606 142.62862,-142.62862 C 511.99998,63.860584 448.13938,-7.6479993e-6 369.37136,-7.6479993e-6 290.60334,-7.6479993e-6 226.74274,63.860584 226.74274,142.62861 c 0,78.76802 63.8606,142.62862 142.62862,142.62862 z M 306.72448,139.44004 a 10.971432,10.971432 0 0 1 15.51772,-0.0617 l 36.15773,35.87659 V 83.657164 a 10.971432,10.971432 0 0 1 21.94286,0 v 91.597746 l 36.15773,-35.87659 a 10.97764,10.97764 0 1 1 15.456,15.59315 l -54.85716,54.43888 a 10.971432,10.971432 0 0 1 -15.456,0 L 306.7862,154.97147 a 10.971432,10.971432 0 0 1 -0.0617,-15.53143 z" />
</svg>
