<?xml version="1.0" encoding="UTF-8" standalone="no"?>
<svg
   width="512"
   height="512"
   viewBox="0 0 512 512"
   version="1.1"
   id="svg1"
   sodipodi:docname="download-progress.svg"
   inkscape:version="1.3 (0e150ed6c4, 2023-07-21)"
   xmlns:inkscape="http://www.inkscape.org/namespaces/inkscape"
   xmlns:sodipodi="http://sodipodi.sourceforge.net/DTD/sodipodi-0.dtd"
   xmlns="http://www.w3.org/2000/svg"
   xmlns:svg="http://www.w3.org/2000/svg">
  <defs
     id="defs1" />
  <sodipodi:namedview
     id="namedview1"
     pagecolor="#ffffff"
     bordercolor="#000000"
     borderopacity="0.25"
     inkscape:showpageshadow="2"
     inkscape:pageopacity="0.0"
     inkscape:pagecheckerboard="0"
     inkscape:deskcolor="#d1d1d1"
     inkscape:zoom="0.33056642"
     inkscape:cx="-288.89806"
     inkscape:cy="441.66615"
     inkscape:window-width="2560"
     inkscape:window-height="1351"
     inkscape:window-x="2551"
     inkscape:window-y="-9"
     inkscape:window-maximized="1"
     inkscape:current-layer="svg1" />
  <path
     id="path2"
     style="stroke-width:0.688434"
     d="m 424.73195,279.57534 c -72.29839,0 -131.1195,58.82111 -131.11951,131.11951 0,72.2984 58.82113,131.11951 131.11951,131.11951 72.2984,0 131.11951,-58.82111 131.11951,-131.11951 0,-72.2984 -58.82112,-131.11951 -131.11951,-131.11951 z m -39.76726,50.43058 h 79.53059 c 10.29036,0 18.85461,8.74782 17.76496,19.00012 v 0.004 c -2.42258,23.24691 -12.21812,35.80747 -20.72972,43.89233 -4.25665,4.04323 -8.06022,7.09898 -10.40525,9.80442 -2.34504,2.70544 -3.34103,4.60358 -3.34103,7.98812 0,3.4032 0.99763,5.34721 3.32133,8.07874 2.32369,2.73154 6.08476,5.81389 10.30675,9.87139 8.444,8.11502 18.22368,20.63082 20.84596,43.69535 a 5.764066,5.764066 0 0 0 0,0.002 c 1.1683,10.29532 -7.46952,19.04149 -17.763,19.04149 h -79.53059 c -10.29254,0 -18.93303,-8.74825 -17.76102,-19.04345 2.62056,-23.06637 12.41605,-35.50731 20.8558,-43.57124 4.21988,-4.03197 7.96922,-7.09589 10.28508,-9.832 2.31585,-2.7361 3.33118,-4.72245 3.33118,-8.24224 0,-3.50146 -1.01387,-5.43978 -3.35088,-8.14966 -2.33699,-2.70989 -6.12884,-5.74737 -10.38358,-9.76502 -8.50946,-8.03525 -18.32319,-20.52667 -20.74351,-43.78399 -1.06883,-10.24112 7.47539,-18.99026 17.76693,-18.99026 z m 0,11.52614 c -3.97307,0 -6.64508,2.97974 -6.30186,6.26837 a 5.764066,5.764066 0 0 0 0,0.002 c 2.15083,20.66759 9.59152,29.41714 17.19368,36.59566 3.80108,3.58925 7.77997,6.65327 11.19913,10.618 3.41917,3.96472 6.1482,9.27427 6.1482,15.67879 0,6.38617 -2.6803,11.6939 -6.06152,15.68864 -3.3812,3.99478 -7.32971,7.09851 -11.11837,10.71847 -7.57731,7.23989 -15.03821,16.0402 -17.36703,36.53853 a 5.764066,5.764066 0 0 0 0,0.002 c -0.36782,3.22615 2.33664,6.21321 6.30777,6.21321 h 79.53059 c 3.97055,0 6.67698,-2.98651 6.31171,-6.21321 -2.33072,-20.50013 -9.80685,-29.40739 -17.38083,-36.68627 -3.78698,-3.63945 -7.72518,-6.74698 -11.09866,-10.71256 -3.37348,-3.96557 -6.0694,-9.22612 -6.0694,-15.54877 0,-6.34134 2.74499,-11.60354 6.15607,-15.53892 3.41114,-3.93539 7.37831,-7.0034 11.17748,-10.6121 7.59833,-7.21737 15.05449,-16.07222 17.20549,-36.74143 a 5.764066,5.764066 0 0 1 0.002,-0.0138 c 0.34888,-3.27594 -2.33075,-6.25655 -6.30383,-6.25655 z m 14.13829,28.81833 h 51.41554 c 3.02943,0 3.68449,2.67558 2.30485,4.59193 -8.34625,11.61704 -22.32932,17.03809 -22.32932,24.22441 v 36.74341 c 0,10.99745 20.06637,16.92984 28.96015,27.68954 3.58416,4.33703 2.3306,10.49388 -3.27799,10.49389 h -62.73879 c -5.6194,0 -7.20498,-6.4837 -3.2642,-10.50374 9.53856,-9.66825 28.79271,-16.59219 28.79271,-27.67969 v -36.74341 c 0,-7.15032 -13.68725,-12.60766 -22.15598,-24.20668 -1.39764,-1.91276 -1.25873,-4.60966 2.29303,-4.60966 z M 255.47511,29.81415 A 16.137786,16.137786 0 0 0 239.33733,45.951935 V 336.43208 a 16.137786,16.137786 0 0 0 16.13778,16.13778 16.137786,16.137786 0 0 0 16.13779,-16.13778 V 45.951935 A 16.137786,16.137786 0 0 0 255.47511,29.81415 Z M 170.6099,256.29276 a 16.137786,16.137786 0 0 0 -7.2356,4.17629 16.137786,16.137786 0 0 0 0,22.82377 l 80.68893,80.68893 a 16.139399,16.139399 0 0 0 22.82377,0 l 80.68893,-80.68893 a 16.137786,16.137786 0 0 0 0,-22.82377 16.137786,16.137786 0 0 0 -22.82377,0 l -69.27705,69.27703 -69.27704,-69.27703 a 16.137786,16.137786 0 0 0 -15.58817,-4.17629 z m -36.16818,-97.37632 c -31.00311,0 -56.482255,25.47914 -56.482255,56.48225 V 425.1899 c 0,31.00311 25.479145,56.48225 56.482255,56.48225 h 175.49841 a 16.137786,16.137786 0 0 0 16.13779,-16.13779 16.137786,16.137786 0 0 0 -16.13779,-16.13778 H 134.44172 c -13.56011,0 -24.20668,-10.64657 -24.20668,-24.20668 V 215.39869 c 0,-13.56011 10.64657,-24.20668 24.20668,-24.20668 h 40.34446 a 16.137786,16.137786 0 0 0 16.13779,-16.13779 16.137786,16.137786 0 0 0 -16.13779,-16.13778 z m 201.72231,0 a 16.137786,16.137786 0 0 0 -16.13778,16.13778 16.137786,16.137786 0 0 0 16.13778,16.13779 h 40.34448 c 13.56009,0 24.20666,10.64657 24.20666,24.20668 v 64.55114 a 16.137786,16.137786 0 0 0 16.13779,16.13778 16.137786,16.137786 0 0 0 16.13779,-16.13778 v -64.55114 c 0,-31.00311 -25.47915,-56.48225 -56.48225,-56.48225 z"
     transform="translate(-60.905465,-29.814255)" />
</svg>
