<?xml version="1.0" encoding="UTF-8" standalone="no"?>
<svg
   width="512"
   height="512"
   viewBox="0 0 512 512"
   version="1.1"
   id="svg1"
   sodipodi:docname="download.svg"
   inkscape:version="1.3 (0e150ed6c4, 2023-07-21)"
   xmlns:inkscape="http://www.inkscape.org/namespaces/inkscape"
   xmlns:sodipodi="http://sodipodi.sourceforge.net/DTD/sodipodi-0.dtd"
   xmlns="http://www.w3.org/2000/svg"
   xmlns:svg="http://www.w3.org/2000/svg">
  <defs
     id="defs1" />
  <sodipodi:namedview
     id="namedview1"
     pagecolor="#ffffff"
     bordercolor="#000000"
     borderopacity="0.25"
     inkscape:showpageshadow="2"
     inkscape:pageopacity="0.0"
     inkscape:pagecheckerboard="0"
     inkscape:deskcolor="#d1d1d1"
     inkscape:zoom="0.66113281"
     inkscape:cx="161.08715"
     inkscape:cy="266.20975"
     inkscape:window-width="2560"
     inkscape:window-height="1351"
     inkscape:window-x="2551"
     inkscape:window-y="-9"
     inkscape:window-maximized="1"
     inkscape:current-layer="g1" />
  <g
     id="g1"
     transform="translate(-41.810935,-27.62851)">
    <path
       id="path1-0"
       style="stroke-width:0.5"
       d="m 411.62187,327.25702 c -57.345,0 -104,46.655 -104,104 0,57.345 46.655,104 104,104 57.345,0 104,-46.655 104,-104 0,-57.345 -46.655,-104 -104,-104 z m 54.125,69.145 -67.2,80 a 8,8 0 0 1 -6,2.855 h -0.135 a 8,8 0 0 1 -5.945,-2.65 l -28.8,-32 a 8,8 0 1 1 11.89,-10.7 l 22.645,25.16 61.295,-72.955 a 8,8 0 0 1 12.25,10.29 z M 256,32 a 16,16 0 0 0 -16,16 v 288 a 16,16 0 0 0 16,16 16,16 0 0 0 16,-16 V 48 A 16,16 0 0 0 256,32 Z m -84.14063,224.54492 a 16,16 0 0 0 -7.17382,4.14063 16,16 0 0 0 0,22.6289 l 80,80 a 16.0016,16.0016 0 0 0 22.6289,0 l 80,-80 a 16,16 0 0 0 0,-22.6289 16,16 0 0 0 -22.6289,0 L 256,329.37109 187.31445,260.68555 a 16,16 0 0 0 -15.45508,-4.14063 z M 136,160 c -30.7384,0 -56,25.2616 -56,56 v 208 c 0,30.7384 25.2616,56 56,56 h 198 a 16,16 0 0 0 16,-16 16,16 0 0 0 -16,-16 H 136 c -13.44433,0 -24,-10.55567 -24,-24 V 216 c 0,-13.44433 10.55567,-24 24,-24 h 40 a 16,16 0 0 0 16,-16 16,16 0 0 0 -16,-16 z m 200,0 a 16,16 0 0 0 -16,16 16,16 0 0 0 16,16 h 40 c 13.44433,0 24,10.55567 24,24 v 138 a 16,16 0 0 0 16,16 16,16 0 0 0 16,-16 V 216 c 0,-30.7384 -25.2616,-56 -56,-56 z" />
  </g>
</svg>
