<?xml version="1.0" encoding="UTF-8" standalone="no"?>
<svg
   width="512"
   height="512"
   viewBox="0 0 512 512"
   version="1.1"
   id="svg1"
   sodipodi:docname="downloaded.svg"
   inkscape:version="1.3 (0e150ed6c4, 2023-07-21)"
   xmlns:inkscape="http://www.inkscape.org/namespaces/inkscape"
   xmlns:sodipodi="http://sodipodi.sourceforge.net/DTD/sodipodi-0.dtd"
   xmlns="http://www.w3.org/2000/svg"
   xmlns:svg="http://www.w3.org/2000/svg">
  <defs
     id="defs1" />
  <sodipodi:namedview
     id="namedview1"
     pagecolor="#ffffff"
     bordercolor="#000000"
     borderopacity="0.25"
     inkscape:showpageshadow="2"
     inkscape:pageopacity="0.0"
     inkscape:pagecheckerboard="0"
     inkscape:deskcolor="#d1d1d1"
     inkscape:zoom="0.23374575"
     inkscape:cx="-643.86197"
     inkscape:cy="-534.76908"
     inkscape:window-width="2560"
     inkscape:window-height="1351"
     inkscape:window-x="2551"
     inkscape:window-y="-9"
     inkscape:window-maximized="1"
     inkscape:current-layer="svg1" />
  <path
     id="path2"
     style="stroke-width:0.688434"
     d="m 424.73151,279.57524 c -72.29844,0 -131.11944,58.82102 -131.11945,131.11946 0,72.29844 58.82102,131.11945 131.11945,131.11945 72.29844,0 131.11947,-58.82101 131.11945,-131.11945 0,-72.29844 -58.82102,-131.11946 -131.11945,-131.11946 z m 62.81167,65.24257 a 11.01494,11.01494 0 0 1 10.35402,17.82602 l -92.52432,110.1494 a 11.01494,11.01494 0 0 1 -8.26194,3.93004 h -0.18517 a 11.01494,11.01494 0 0 1 -8.18513,-3.64833 l -39.65497,-44.05977 a 11.01494,11.01494 0 1 1 16.37221,-14.73321 l 31.1783,34.64146 84.39435,-100.44743 a 11.01494,11.01494 0 0 1 6.51265,-3.65818 z M 255.47553,29.81436 A 16.137779,16.137779 0 0 0 239.33775,45.952139 V 336.43216 a 16.137779,16.137779 0 0 0 16.13778,16.13778 16.137779,16.137779 0 0 0 16.13778,-16.13778 V 45.952139 A 16.137779,16.137779 0 0 0 255.47553,29.81436 Z m -84.86518,226.47852 a 16.137779,16.137779 0 0 0 -7.23559,4.17628 16.137779,16.137779 0 0 0 0,22.82376 l 80.68889,80.6889 a 16.139393,16.139393 0 0 0 22.82376,0 l 80.6889,-80.6889 a 16.137779,16.137779 0 0 0 0,-22.82376 16.137779,16.137779 0 0 0 -22.82376,0 l -69.27702,69.27701 -69.27701,-69.27701 a 16.137779,16.137779 0 0 0 -15.58817,-4.17628 z m -36.16816,-97.37629 c -31.00309,0 -56.482223,25.47913 -56.482223,56.48223 v 209.79112 c 0,31.0031 25.479133,56.48223 56.482223,56.48223 H 334.1472 A 16.137779,16.137779 0 0 0 350.28498,465.53439 16.137779,16.137779 0 0 0 334.1472,449.39661 H 134.44219 c -13.5601,0 -24.20667,-10.64657 -24.20667,-24.20667 V 215.39882 c 0,-13.5601 10.64657,-24.20667 24.20667,-24.20667 h 40.34445 a 16.137779,16.137779 0 0 0 16.13778,-16.13778 16.137779,16.137779 0 0 0 -16.13778,-16.13778 z m 201.72224,0 a 16.137779,16.137779 0 0 0 -16.13778,16.13778 16.137779,16.137779 0 0 0 16.13778,16.13778 h 40.34444 c 13.56011,0 24.20667,10.64657 24.20667,24.20667 v 139.18834 a 16.137779,16.137779 0 0 0 16.13778,16.13778 16.137779,16.137779 0 0 0 16.13778,-16.13778 V 215.39882 c 0,-31.0031 -25.47913,-56.48223 -56.48223,-56.48223 z"
     transform="translate(-60.905465,-29.814255)" />
</svg>
