<?xml version="1.0" encoding="UTF-8" standalone="no"?>
<svg
   width="512"
   height="512"
   viewBox="0 0 512 512"
   version="1.1"
   id="svg4"
   sodipodi:docname="equalizer.svg"
   inkscape:version="1.3 (0e150ed6c4, 2023-07-21)"
   xmlns:inkscape="http://www.inkscape.org/namespaces/inkscape"
   xmlns:sodipodi="http://sodipodi.sourceforge.net/DTD/sodipodi-0.dtd"
   xmlns="http://www.w3.org/2000/svg"
   xmlns:svg="http://www.w3.org/2000/svg">
  <defs
     id="defs4" />
  <sodipodi:namedview
     id="namedview4"
     pagecolor="#ffffff"
     bordercolor="#000000"
     borderopacity="0.25"
     inkscape:showpageshadow="2"
     inkscape:pageopacity="0.0"
     inkscape:pagecheckerboard="0"
     inkscape:deskcolor="#d1d1d1"
     inkscape:zoom="0.23374575"
     inkscape:cx="284.49715"
     inkscape:cy="971.14065"
     inkscape:window-width="2560"
     inkscape:window-height="1351"
     inkscape:window-x="2551"
     inkscape:window-y="-9"
     inkscape:window-maximized="1"
     inkscape:current-layer="svg4" />
  <path
     id="path1-9-0-6"
     style="fill:#000000;stroke-width:0.266603"
     d="M 499.20278,184.9502 H 413.88973 A 12.810289,12.810289 0 0 1 401.09276,172.15323 V 86.840186 a 12.810289,12.810289 0 0 1 12.79697,-12.796967 h 85.31305 a 12.810289,12.810289 0 0 1 12.79696,12.796967 v 85.313044 a 12.810289,12.810289 0 0 1 -12.79696,12.79697 z m -66.91743,8.66461 v 277.26745 c 0,15.31304 8.94785,27.72673 24.2609,27.72673 15.31305,0 24.2609,-12.41369 24.2609,-27.72673 0,0 -3.5e-4,-269.75813 -4.2e-4,-277.26745 m 4.2e-4,-128.236206 c 1.1e-4,-74.5156136 0,-24.26086 0,-24.26086 0,-15.313055 -8.94785,-27.726741 -24.2609,-27.726741 -15.31305,0 -24.2609,12.413686 -24.2609,27.726741 v 24.26086 M 365.50527,354.77655 h -85.31305 a 12.810289,12.810289 0 0 1 -12.79696,-12.79697 v -85.31305 a 12.810289,12.810289 0 0 1 12.79696,-12.79696 h 85.31305 a 12.810289,12.810289 0 0 1 12.79696,12.79696 v 85.31305 a 12.810289,12.810289 0 0 1 -12.79696,12.79697 z m -67.84413,8.6646 v 107.44111 c 0,15.31304 8.94784,27.72674 24.26089,27.72674 15.31305,0 24.2609,-12.4137 24.2609,-27.72674 0,0 -3.5e-4,-99.93179 -4.2e-4,-107.44111 m 4.2e-4,-128.2362 c 1.1e-4,-74.51561 0,-194.08721 0,-194.08721 0,-15.313055 -8.94785,-27.72674 -24.2609,-27.72674 -15.31305,0 -24.26089,12.413685 -24.26089,27.72674 v 194.08721 m -65.85337,5.19874 h -85.31305 a 12.810289,12.810289 0 0 1 -12.79696,-12.79697 v -85.31304 a 12.810289,12.810289 0 0 1 12.79696,-12.79697 h 85.31305 a 12.810289,12.810289 0 0 1 12.79697,12.79697 v 85.31304 a 12.810289,12.810289 0 0 1 -12.79697,12.79697 z m -66.91742,8.66461 1.5e-4,221.81396 c 1e-5,15.31304 8.94785,27.72673 24.2609,27.72673 15.31305,0 24.2609,-12.41369 24.2609,-27.72673 0,0 -5.1e-4,-214.30464 -5.7e-4,-221.81396 m 4.2e-4,-128.2362 c 1.1e-4,-74.515618 0,-79.714356 0,-79.714356 0,-15.313055 -8.94785,-27.726741 -24.2609,-27.726741 -15.31305,0 -24.2609,12.413686 -24.2609,27.726741 V 120.8321 M 98.110269,434.49094 H 12.797223 A 12.810289,12.810289 0 0 1 2.5540033e-4,421.69397 V 336.38093 A 12.810289,12.810289 0 0 1 12.797223,323.58396 h 85.313046 a 12.810289,12.810289 0 0 1 12.796961,12.79697 v 85.31304 a 12.810289,12.810289 0 0 1 -12.796961,12.79697 z m -66.917416,8.66461 v 27.72671 c 0,15.31304 8.947845,27.72674 24.260893,27.72674 15.313048,0 24.260893,-12.4137 24.260893,-27.72674 0,0 -3.46e-4,-20.21739 -4.07e-4,-27.72671 m 4.07e-4,-128.23621 c 1.22e-4,-74.51561 0,-273.801599 0,-273.801599 0,-15.313055 -8.947845,-27.72674 -24.260893,-27.72674 -15.313048,0 -24.260893,12.413685 -24.260893,27.72674 V 314.91934" />
</svg>
