<?xml version="1.0" encoding="UTF-8" standalone="no"?>
<svg
   width="512"
   height="512"
   viewBox="0 0 512 512"
   version="1.1"
   id="svg5"
   sodipodi:docname="featured-playlist.svg"
   xml:space="preserve"
   inkscape:version="1.3 (0e150ed6c4, 2023-07-21)"
   xmlns:inkscape="http://www.inkscape.org/namespaces/inkscape"
   xmlns:sodipodi="http://sodipodi.sourceforge.net/DTD/sodipodi-0.dtd"
   xmlns="http://www.w3.org/2000/svg"
   xmlns:svg="http://www.w3.org/2000/svg"><defs
     id="defs5" /><sodipodi:namedview
     id="namedview5"
     pagecolor="#ffffff"
     bordercolor="#000000"
     borderopacity="0.25"
     inkscape:showpageshadow="2"
     inkscape:pageopacity="0.0"
     inkscape:pagecheckerboard="0"
     inkscape:deskcolor="#d1d1d1"
     inkscape:zoom="0.23374575"
     inkscape:cx="186.09964"
     inkscape:cy="902.69021"
     inkscape:window-width="2560"
     inkscape:window-height="1351"
     inkscape:window-x="2551"
     inkscape:window-y="-9"
     inkscape:window-maximized="1"
     inkscape:current-layer="svg5" /><path
     id="path1-7"
     style="stroke-width:0.443727"
     d="m 455.90394,399.91925 -57.06773,-41.3731 -57.06773,41.3731 c -5.60048,4.06207 -13.11093,-1.46906 -10.8935,-8.02258 l 22.25734,-65.92452 -57.6845,-39.55826 c -5.74927,-3.93824 -2.97521,-12.93852 3.99353,-12.95685 h 71.16495 l 21.47638,-66.09312 c 2.12259,-6.54662 11.38446,-6.54662 13.50705,0 l 21.47639,66.11532 h 71.16494 c 6.98013,-0.004 9.77434,9.01214 4.01573,12.95682 l -57.70669,39.53609 22.24403,65.90677 c 2.24885,6.65811 -5.46194,11.92796 -10.88019,8.04033 z M 30.652519,334.69504 c -13.254834,0 -24.0000002,10.74517 -24.0000002,24 0,13.25483 10.7451662,24 24.0000002,24 H 228.65301 c 13.25483,0 24,-10.74517 24,-24 0,-13.25483 -10.74517,-24 -24,-24 z m 0,-112 c -13.254834,1e-5 -24.0000002,10.74517 -24.0000002,24 0,13.25483 10.7451662,24.00001 24.0000002,24 l 198.000491,-1.1e-4 c 13.25483,0 24,-10.74517 24,-24 0,-13.25483 -10.74517,-24 -24,-24 z m 0,-112 c -13.254834,0 -24.0000002,10.74517 -24.0000002,24 0,13.25483 10.7451662,24 24.0000002,24 H 387.84801 c 13.25483,0 24,-10.74517 24,-24 0,-13.25483 -10.74517,-24 -24,-24 z" /></svg>
