<?xml version="1.0" encoding="UTF-8" standalone="no"?>
<svg
   width="512"
   height="512"
   viewBox="0 0 512 512"
   version="1.1"
   id="svg1"
   sodipodi:docname="partially-downloaded.svg"
   inkscape:version="1.3 (0e150ed6c4, 2023-07-21)"
   xmlns:inkscape="http://www.inkscape.org/namespaces/inkscape"
   xmlns:sodipodi="http://sodipodi.sourceforge.net/DTD/sodipodi-0.dtd"
   xmlns="http://www.w3.org/2000/svg"
   xmlns:svg="http://www.w3.org/2000/svg">
  <defs
     id="defs1" />
  <sodipodi:namedview
     id="namedview1"
     pagecolor="#ffffff"
     bordercolor="#000000"
     borderopacity="0.25"
     inkscape:showpageshadow="2"
     inkscape:pageopacity="0.0"
     inkscape:pagecheckerboard="0"
     inkscape:deskcolor="#d1d1d1"
     inkscape:zoom="0.3935"
     inkscape:cx="306.22618"
     inkscape:cy="10.165184"
     inkscape:window-width="2560"
     inkscape:window-height="1351"
     inkscape:window-x="2551"
     inkscape:window-y="-9"
     inkscape:window-maximized="1"
     inkscape:current-layer="svg1" />
  <path
     id="path2"
     style="color:#000000;fill:#000000;stroke-width:0.630382;stroke-linecap:round;stroke-linejoin:round;stroke-miterlimit:10;stroke-dasharray:20.1722, 40.3444;-inkscape-stroke:none"
     d="m 424.73167,279.57524 c -7.27484,-2.8e-4 -14.55461,0.59535 -21.74572,1.7988 a 10.086108,10.086108 0 0 0 -8.28239,11.61282 10.086108,10.086108 0 0 0 11.61282,8.28237 c 6.0729,-1.01629 12.2422,-1.52202 18.41529,-1.52178 a 10.086108,10.086108 0 0 0 10.0861,-10.08611 10.086108,10.086108 0 0 0 -10.0861,-10.0861 z m -57.79444,14.80412 a 10.086108,10.086108 0 0 0 -5.0726,1.23615 c -6.39326,3.49933 -12.48722,7.53079 -18.2072,12.03879 a 10.086108,10.086108 0 0 0 -1.67938,14.16513 10.086108,10.086108 0 0 0 14.16512,1.67814 c 4.84202,-3.81608 10.00282,-7.22955 15.40619,-10.18707 a 10.086108,10.086108 0 0 0 4.00512,-13.69109 10.086108,10.086108 0 0 0 -8.61725,-5.24005 z m -43.56159,40.83938 a 10.086108,10.086108 0 0 0 -8.96941,4.61335 c -3.94454,6.12578 -7.37673,12.57971 -10.24739,19.28081 a 10.086108,10.086108 0 0 0 5.29915,13.24295 10.086108,10.086108 0 0 0 13.24295,-5.29914 c 2.42485,-5.6605 5.32919,-11.12289 8.66526,-16.30375 a 10.086108,10.086108 0 0 0 -3.01893,-13.93981 10.086108,10.086108 0 0 0 -4.97163,-1.59441 z m -18.67383,56.83654 a 10.086108,10.086108 0 0 0 -10.76574,9.35722 c -0.50784,7.25801 -0.41932,14.55678 0.2684,21.80481 a 10.086108,10.086108 0 0 0 10.99352,9.08883 10.086108,10.086108 0 0 0 9.08759,-10.99352 c -0.58257,-6.13992 -0.65735,-12.33448 -0.22654,-18.4916 a 10.086108,10.086108 0 0 0 -9.35723,-10.76574 z m 10.89133,58.95301 a 10.086108,10.086108 0 0 0 -5.14772,0.87294 10.086108,10.086108 0 0 0 -4.96671,13.37098 c 3.03669,6.62607 6.62743,12.9925 10.72264,19.01857 a 10.086108,10.086108 0 0 0 14.01122,2.67296 10.086108,10.086108 0 0 0 2.67297,-14.01121 c -3.46356,-5.09658 -6.503,-10.4853 -9.06913,-16.0846 a 10.086108,10.086108 0 0 0 -8.22327,-5.83964 z m 37.88692,46.61992 a 10.086108,10.086108 0 0 0 -9.27228,3.96944 10.086108,10.086108 0 0 0 2.02904,14.11834 c 5.82958,4.36477 12.02195,8.246 18.50146,11.58573 a 10.086108,10.086108 0 0 0 13.58522,-4.34496 10.086108,10.086108 0 0 0 -4.34374,-13.58522 c -5.47425,-2.82158 -10.71707,-6.10768 -15.65241,-9.80292 a 10.086108,10.086108 0 0 0 -4.84729,-1.94041 z m 55.55608,22.91168 a 10.086108,10.086108 0 0 0 -11.40351,8.56924 10.086108,10.086108 0 0 0 8.56926,11.40229 c 6.14324,0.87172 12.33924,1.30258 18.52978,1.30262 a 10.086108,10.086108 0 0 0 10.0861,-10.08611 10.086108,10.086108 0 0 0 -10.0861,-10.08611 c -5.25525,-2e-5 -10.50618,-0.36557 -15.69553,-1.10193 z m 15.69553,-240.96465 v 20.17221 c 61.36501,0 110.94718,49.58217 110.94718,110.94719 0,61.36502 -49.58218,110.94718 -110.94719,110.94718 v 20.17222 c 72.27577,0 131.1194,-58.84363 131.1194,-131.1194 0,-72.27576 -58.84363,-131.1194 -131.11939,-131.1194 z m 66.721,66.44559 a 10.806518,10.806518 0 0 0 -10.15747,3.69099 l -82.78097,98.55011 -30.58986,-33.98935 a 10.806518,10.806518 0 0 0 -15.26132,-0.80336 10.806518,10.806518 0 0 0 -0.80336,15.2613 l 38.90319,43.22609 a 10.807599,10.807599 0 0 0 16.30742,-0.27835 l 90.775,-108.06518 a 10.806518,10.806518 0 0 0 -1.32443,-15.22569 10.806518,10.806518 0 0 0 -5.0682,-2.36656 z M 255.47556,29.814461 A 16.137772,16.137772 0 0 0 239.33778,45.952233 V 336.43214 a 16.137772,16.137772 0 0 0 16.13778,16.13777 16.137772,16.137772 0 0 0 16.13777,-16.13777 V 45.952233 A 16.137772,16.137772 0 0 0 255.47556,29.814461 Z M 170.61041,256.29289 a 16.137772,16.137772 0 0 0 -7.23559,4.17628 16.137772,16.137772 0 0 0 0,22.82375 l 80.68886,80.68887 a 16.139386,16.139386 0 0 0 22.82375,0 l 80.68886,-80.68887 a 16.137772,16.137772 0 0 0 0,-22.82375 16.137772,16.137772 0 0 0 -22.82375,0 l -69.27698,69.27698 -69.27699,-69.27698 a 16.137772,16.137772 0 0 0 -15.58816,-4.17628 z m -36.16815,-97.37625 c -31.00308,0 -56.4822,25.47912 -56.4822,56.48221 v 209.79104 c 0,31.00308 25.47912,56.4822 56.4822,56.4822 h 175.49828 a 16.137772,16.137772 0 0 0 16.13777,-16.13777 16.137772,16.137772 0 0 0 -16.13777,-16.13778 H 134.44226 c -13.56009,0 -24.20666,-10.64656 -24.20666,-24.20665 V 215.39885 c 0,-13.5601 10.64657,-24.20666 24.20666,-24.20666 h 40.34443 a 16.137772,16.137772 0 0 0 16.13778,-16.13778 16.137772,16.137772 0 0 0 -16.13778,-16.13777 z m 201.72216,0 a 16.137772,16.137772 0 0 0 -16.13777,16.13777 16.137772,16.137772 0 0 0 16.13777,16.13778 h 40.34443 c 13.56009,0 24.20666,10.64656 24.20666,24.20666 v 64.55108 a 16.137772,16.137772 0 0 0 16.13777,16.13778 16.137772,16.137772 0 0 0 16.13777,-16.13778 v -64.55108 c 0,-31.00309 -25.47912,-56.48221 -56.4822,-56.48221 z"
     transform="translate(-60.90556,-29.81425)" />
</svg>
