<?xml version="1.0" encoding="UTF-8" standalone="no"?>
<svg
   width="512"
   height="512"
   viewBox="0 0 512 512"
   version="1.1"
   id="svg1"
   sodipodi:docname="partially-download.svg"
   inkscape:version="1.3 (0e150ed6c4, 2023-07-21)"
   xmlns:inkscape="http://www.inkscape.org/namespaces/inkscape"
   xmlns:sodipodi="http://sodipodi.sourceforge.net/DTD/sodipodi-0.dtd"
   xmlns="http://www.w3.org/2000/svg"
   xmlns:svg="http://www.w3.org/2000/svg">
  <defs
     id="defs1" />
  <sodipodi:namedview
     id="namedview1"
     pagecolor="#ffffff"
     bordercolor="#000000"
     borderopacity="0.25"
     inkscape:showpageshadow="2"
     inkscape:pageopacity="0.0"
     inkscape:pagecheckerboard="0"
     inkscape:deskcolor="#d1d1d1"
     inkscape:zoom="0.33056641"
     inkscape:cx="-213.27031"
     inkscape:cy="931.73411"
     inkscape:window-width="2560"
     inkscape:window-height="1351"
     inkscape:window-x="2551"
     inkscape:window-y="-9"
     inkscape:window-maximized="1"
     inkscape:current-layer="g1" />
  <g
     id="g1"
     transform="translate(-41.811125,-27.6285)">
    <path
       id="path2"
       style="color:#000000;fill:#000000;stroke-width:0.5;stroke-linecap:round;stroke-linejoin:round;stroke-miterlimit:10;stroke-dasharray:16, 32;-inkscape-stroke:none"
       d="m 411.62225,327.257 c -5.77017,-2.2e-4 -11.54427,0.47222 -17.24805,1.42676 a 8,8 0 0 0 -6.56934,9.21094 8,8 0 0 0 9.21094,6.56933 c 4.81684,-0.8061 9.71014,-1.20722 14.60645,-1.20703 a 8,8 0 0 0 8,-8 8,8 0 0 0 -8,-8 z m -45.84082,11.74219 a 8,8 0 0 0 -4.02344,0.98047 c -5.07094,2.77557 -9.90449,5.9732 -14.44141,9.54882 a 8,8 0 0 0 -1.33203,11.23535 8,8 0 0 0 11.23535,1.33106 c 3.84055,-3.0268 7.93394,-5.73426 12.21973,-8.08008 a 8,8 0 0 0 3.17676,-10.85937 8,8 0 0 0 -6.83496,-4.15625 z m -34.55176,32.39258 a 8,8 0 0 0 -7.11426,3.65917 c -3.1287,4.85879 -5.85101,9.97785 -8.12793,15.29297 a 8,8 0 0 0 4.20313,10.50391 8,8 0 0 0 10.50391,-4.20313 c 1.92332,-4.48973 4.22696,-8.82234 6.87304,-12.93164 a 8,8 0 0 0 -2.39453,-11.05664 8,8 0 0 0 -3.94336,-1.26464 z m -14.81152,45.08105 a 8,8 0 0 0 -8.53906,7.42187 c -0.40281,5.75683 -0.33259,11.546 0.21289,17.29492 a 8,8 0 0 0 8.71972,7.20899 8,8 0 0 0 7.20801,-8.71973 c -0.46208,-4.87 -0.52139,-9.78334 -0.17969,-14.66699 a 8,8 0 0 0 -7.42187,-8.53906 z m 8.63867,46.75977 a 8,8 0 0 0 -4.08301,0.69238 8,8 0 0 0 -3.93945,10.60547 c 2.40862,5.2556 5.25668,10.30526 8.50488,15.08496 a 8,8 0 0 0 11.11328,2.12012 8,8 0 0 0 2.12012,-11.11328 c -2.74719,-4.04246 -5.15798,-8.31662 -7.19336,-12.75782 a 8,8 0 0 0 -6.52246,-4.63183 z m 30.05078,36.97753 a 8,8 0 0 0 -7.35449,3.14844 8,8 0 0 0 1.60937,11.19825 c 4.62385,3.46201 9.53546,6.54048 14.67481,9.18945 a 8,8 0 0 0 10.77539,-3.44629 8,8 0 0 0 -3.44532,-10.77539 c -4.34201,-2.238 -8.50046,-4.84443 -12.41503,-7.77539 a 8,8 0 0 0 -3.84473,-1.53907 z m 44.06543,18.17286 a 8,8 0 0 0 -9.04492,6.79687 8,8 0 0 0 6.79687,9.04395 c 4.87264,0.69142 9.78713,1.03317 14.69727,1.0332 a 8,8 0 0 0 8,-8 8,8 0 0 0 -8,-8 c -4.1683,-2e-5 -8.33318,-0.28996 -12.44922,-0.87402 z M 411.62225,327.257 v 16 c 48.6729,0 88,39.32709 88,88 0,48.67291 -39.3271,88 -88,88 v 16 c 57.32698,0 104,-46.67301 104,-104 0,-57.32698 -46.67302,-104 -104,-104 z m 49.39355,56.12207 a 8,8 0 0 0 -7.51953,2.73242 l -61.28223,72.95605 -22.6455,-25.16211 a 8,8 0 0 0 -11.29786,-0.59472 8,8 0 0 0 -0.59472,11.29785 l 28.7998,32 a 8.0008,8.0008 0 0 0 12.07227,-0.20605 l 67.20019,-80 a 8,8 0 0 0 -0.98046,-11.27148 8,8 0 0 0 -3.75196,-1.75196 z M 256,32 a 16,16 0 0 0 -16,16 v 288 a 16,16 0 0 0 16,16 16,16 0 0 0 16,-16 V 48 A 16,16 0 0 0 256,32 Z m -84.14063,224.54492 a 16,16 0 0 0 -7.17382,4.14063 16,16 0 0 0 0,22.6289 l 80,80 a 16.0016,16.0016 0 0 0 22.6289,0 l 80,-80 a 16,16 0 0 0 0,-22.6289 16,16 0 0 0 -22.6289,0 L 256,329.37109 187.31445,260.68555 a 16,16 0 0 0 -15.45508,-4.14063 z M 136,160 c -30.7384,0 -56,25.2616 -56,56 v 208 c 0,30.7384 25.2616,56 56,56 h 176 a 16,16 0 0 0 16,-16 16,16 0 0 0 -16,-16 H 136 c -13.44433,0 -24,-10.55567 -24,-24 V 216 c 0,-13.44433 10.55567,-24 24,-24 h 40 a 16,16 0 0 0 16,-16 16,16 0 0 0 -16,-16 z m 200,0 a 16,16 0 0 0 -16,16 16,16 0 0 0 16,16 h 40 c 13.44433,0 24,10.55567 24,24 v 108 a 16,16 0 0 0 16,16 16,16 0 0 0 16,-16 V 216 c 0,-30.7384 -25.2616,-56 -56,-56 z" />
  </g>
</svg>
