<?xml version="1.0" encoding="UTF-8" standalone="no"?>
<svg
   width="512"
   height="512"
   viewBox="0 0 512 512"
   version="1.1"
   id="svg1"
   sodipodi:docname="title-edit.svg"
   inkscape:version="1.3 (0e150ed6c4, 2023-07-21)"
   xmlns:inkscape="http://www.inkscape.org/namespaces/inkscape"
   xmlns:sodipodi="http://sodipodi.sourceforge.net/DTD/sodipodi-0.dtd"
   xmlns="http://www.w3.org/2000/svg"
   xmlns:svg="http://www.w3.org/2000/svg">
  <defs
     id="defs1" />
  <sodipodi:namedview
     id="namedview1"
     pagecolor="#ffffff"
     bordercolor="#000000"
     borderopacity="0.25"
     inkscape:showpageshadow="2"
     inkscape:pageopacity="0.0"
     inkscape:pagecheckerboard="0"
     inkscape:deskcolor="#d1d1d1"
     inkscape:zoom="0.50000001"
     inkscape:cx="526.99999"
     inkscape:cy="441.99999"
     inkscape:window-width="2560"
     inkscape:window-height="1351"
     inkscape:window-x="2551"
     inkscape:window-y="-9"
     inkscape:window-maximized="1"
     inkscape:current-layer="svg1" />
  <path
     id="path1-1"
     style="color:#000000;fill:#000000;stroke-linecap:round;stroke-linejoin:round;-inkscape-stroke:none"
     d="m 424.74414,48.142578 c -9.90233,0 -19.80291,3.714171 -27.23047,11.142578 l 0.006,-0.0078 -11.78906,11.779297 a 22.0022,22.0022 0 0 0 -0.006,31.119137 l 24.09961,24.09961 a 22.0022,22.0022 0 0 0 31.11133,0 l 11.79101,-11.78906 a 22.0022,22.0022 0 0 0 0.006,-0.006 c 14.84184,-14.852859 14.84184,-39.588546 0,-54.441406 a 22.0022,22.0022 0 0 0 -0.006,-0.0059 l -0.75,-0.748047 C 444.549,51.856749 434.64647,48.142578 424.74414,48.142578 Z m -60.43945,59.884762 a 22.0022,22.0022 0 0 0 -21.25977,5.71485 L 70.914062,386.54297 a 22.0022,22.0022 0 0 0 -4.757812,7.13867 l -16.490234,39.91992 a 22.0022,22.0022 0 0 0 28.732421,28.73242 l 39.919923,-16.49023 a 22.0022,22.0022 0 0 0 7.13867,-4.75781 L 398.25781,168.95508 a 22.0022,22.0022 0 0 0 0.0176,-31.13086 L 374.1758,113.72461 a 22.0022,22.0022 0 0 0 -9.87109,-5.69727 z m -752.19446,19.95787 c -43.69468,0.12231 -79.64761,36.07535 -79.77002,79.77002 a 26.617454,26.617454 0 0 0 0,0.0749 v 532.29768 a 26.617454,26.617454 0 0 0 0,0.0749 c 0.12248,43.69466 36.07537,79.64759 79.77002,79.77 a 26.617454,26.617454 0 0 0 0.0749,0 h 532.29446 a 26.617454,26.617454 0 0 0 0.0749,0 c 43.69467,-0.12231 79.64761,-36.07534 79.77002,-79.77 a 26.617454,26.617454 0 0 0 0,-0.0749 V 473.97901 A 26.614793,26.614793 0 0 0 197.7106,447.3651 26.614793,26.614793 0 0 0 171.0967,473.97901 V 740.0529 c -0.0421,15.03286 -11.6593,26.64677 -26.69212,26.68887 h -532.14451 c -15.03285,-0.0421 -26.65002,-11.65603 -26.69212,-26.68887 V 207.90514 c 0.0421,-15.03287 11.6593,-26.64676 26.69212,-26.68886 H 197.7106 a 26.614793,26.614793 0 0 0 26.61391,-26.61391 26.614793,26.614793 0 0 0 -26.61391,-26.61716 h -585.52545 a 26.617454,26.617454 0 0 0 -0.0749,0 z m 127.16671,234.74958 a 27.811087,27.811087 0 0 1 -27.8111,-27.81107 27.811087,27.811087 0 0 1 27.8111,-27.81109 H 17.387775 a 27.811087,27.811087 0 0 1 27.811092,27.81109 27.811087,27.811087 0 0 1 -27.811092,27.81107 z m 139.05542,278.11088 a 27.811087,27.811087 0 0 1 -27.8111,-27.8111 V 334.92372 a 27.811087,27.811087 0 0 1 27.8111,-27.81109 27.811087,27.811087 0 0 1 27.81108,27.81109 v 278.11085 a 27.811087,27.811087 0 0 1 -27.81108,27.8111 z"
     transform="matrix(0.54963661,0,0,0.54963661,257.04344,17.426438)" />
</svg>
