<?xml version="1.0" encoding="UTF-8" standalone="no"?>
<svg
   width="512"
   height="512"
   viewBox="0 0 512 512"
   version="1.1"
   id="svg1"
   sodipodi:docname="ui.svg"
   inkscape:version="1.3 (0e150ed6c4, 2023-07-21)"
   xmlns:inkscape="http://www.inkscape.org/namespaces/inkscape"
   xmlns:sodipodi="http://sodipodi.sourceforge.net/DTD/sodipodi-0.dtd"
   xmlns="http://www.w3.org/2000/svg"
   xmlns:svg="http://www.w3.org/2000/svg">
  <defs
     id="defs1" />
  <sodipodi:namedview
     id="namedview1"
     pagecolor="#ffffff"
     bordercolor="#000000"
     borderopacity="0.25"
     inkscape:showpageshadow="2"
     inkscape:pageopacity="0.0"
     inkscape:pagecheckerboard="0"
     inkscape:deskcolor="#d1d1d1"
     inkscape:zoom="0.4674915"
     inkscape:cx="-41.711988"
     inkscape:cy="737.98133"
     inkscape:window-width="2560"
     inkscape:window-height="1351"
     inkscape:window-x="2551"
     inkscape:window-y="-9"
     inkscape:window-maximized="1"
     inkscape:current-layer="svg1" />
  <path
     id="path1"
     d="M 421.39346,1.5101014e-7 A 46.230238,46.230238 0 0 0 388.74893,13.494141 c -0.16344,0.163443 -0.32715,0.335836 -0.48242,0.515624 L 278.81729,135.9082 C 274.11878,111.88501 252.84066,93.582035 227.50284,93.582035 H 96.746982 c -28.74919,0 -52.300781,23.553545 -52.300781,52.302725 V 459.69727 C 44.446201,488.44645 67.997792,512 96.746982,512 H 227.50284 c 28.74919,0 52.30274,-23.55355 52.30274,-52.30273 V 259.38086 L 454.12784,78.693357 A 46.181204,46.181204 0 0 0 454.03799,13.494141 46.230238,46.230238 0 0 0 421.39346,1.5101014e-7 Z M 96.746982,119.73438 h 14.027348 c 2.96584,11.17577 13.17675,19.61328 25.19921,19.61328 h 52.30274 c 12.02247,0 22.23337,-8.43751 25.19922,-19.61328 h 14.02734 c 14.71385,0 26.15234,11.43653 26.15234,26.15038 v 18.04884 l -37.89452,42.20507 a 13.075549,13.075549 0 0 0 7.10155,21.51758 c 13.62308,2.77038 28.16876,17.03856 29.92578,29.29688 a 13.075549,13.075549 0 0 0 0.86719,1.94726 v 200.79688 c 0,14.71385 -11.43849,26.15234 -26.15234,26.15234 H 96.746982 c -14.713852,0 -26.150391,-11.43849 -26.150391,-26.15234 V 145.88476 c 0,-14.71385 11.436539,-26.15038 26.150391,-26.15038 z M 187.8837,235.54297 c -31.54473,0 -57.20508,25.97938 -57.20508,57.9082 0,12.83037 -11.97979,16.8086 -16.34375,16.8086 a 13.075549,13.075549 0 0 0 -10.50195,20.87304 c 15.85409,21.33764 43.07631,35.14062 69.34179,35.14062 39.65157,0 71.91602,-32.68036 71.91602,-72.82226 0,-31.92882 -25.6623,-57.9082 -57.20703,-57.9082 z"
     style="stroke-width:0.817222" />
</svg>
