<?xml version="1.0" encoding="UTF-8" standalone="no"?>
<svg
   width="512"
   height="512"
   viewBox="0 0 512 512"
   version="1.1"
   id="svg1"
   sodipodi:docname="film.svg"
   inkscape:version="1.3 (0e150ed6c4, 2023-07-21)"
   xmlns:inkscape="http://www.inkscape.org/namespaces/inkscape"
   xmlns:sodipodi="http://sodipodi.sourceforge.net/DTD/sodipodi-0.dtd"
   xmlns="http://www.w3.org/2000/svg"
   xmlns:svg="http://www.w3.org/2000/svg">
  <defs
     id="defs1" />
  <sodipodi:namedview
     id="namedview1"
     pagecolor="#ffffff"
     bordercolor="#000000"
     borderopacity="0.25"
     inkscape:showpageshadow="2"
     inkscape:pageopacity="0.0"
     inkscape:pagecheckerboard="0"
     inkscape:deskcolor="#d1d1d1"
     inkscape:zoom="0.23374575"
     inkscape:cx="-10.695382"
     inkscape:cy="1997.8973"
     inkscape:window-width="2560"
     inkscape:window-height="1351"
     inkscape:window-x="2551"
     inkscape:window-y="-9"
     inkscape:window-maximized="1"
     inkscape:current-layer="svg1" />
  <path
     id="path10"
     d="M 76 80 A 44.05 44.05 0 0 0 32 124 L 32 388 A 44.05 44.05 0 0 0 76 432 L 436 432 A 44.05 44.05 0 0 0 480 388 L 480 124 A 44.05 44.05 0 0 0 436 80 L 76 80 z M 76 112 L 100 112 A 12 12 0 0 1 112 124 L 112 148 A 12 12 0 0 1 100 160 L 76 160 A 12 12 0 0 1 64 148 L 64 124 A 12 12 0 0 1 76 112 z M 412 112 L 436 112 A 12 12 0 0 1 448 124 L 448 148 A 12 12 0 0 1 436 160 L 412 160 A 12 12 0 0 1 400 148 L 400 124 A 12 12 0 0 1 412 112 z M 197.13281 170.06836 C 201.2549 169.96074 205.28857 171.0061 206.89258 171.98242 C 209.45898 173.54453 323.08789 241.53516 323.08789 241.53516 C 333.63647 248.1495 333.63647 263.52042 323.08789 270.13477 C 323.08789 270.13477 208.4021 338.78067 206.87305 339.70508 C 205.34398 340.62949 197.50044 344.10903 190.12305 339.91602 C 186.06095 337.60728 181 327.18133 181 323.82227 L 181 187.86523 C 181 184.4968 184.70524 174.86251 190.12305 171.77148 C 192.15472 170.61234 194.65956 170.13293 197.13281 170.06836 z M 76 192 L 100 192 A 12 12 0 0 1 112 204 L 112 228 A 12 12 0 0 1 100 240 L 76 240 A 12 12 0 0 1 64 228 L 64 204 A 12 12 0 0 1 76 192 z M 412 192 L 436 192 A 12 12 0 0 1 448 204 L 448 228 A 12 12 0 0 1 436 240 L 412 240 A 12 12 0 0 1 400 228 L 400 204 A 12 12 0 0 1 412 192 z M 76 272 L 100 272 A 12 12 0 0 1 112 284 L 112 308 A 12 12 0 0 1 100 320 L 76 320 A 12 12 0 0 1 64 308 L 64 284 A 12 12 0 0 1 76 272 z M 412 272 L 436 272 A 12 12 0 0 1 448 284 L 448 308 A 12 12 0 0 1 436 320 L 412 320 A 12 12 0 0 1 400 308 L 400 284 A 12 12 0 0 1 412 272 z M 76 352 L 100 352 A 12 12 0 0 1 112 364 L 112 388 A 12 12 0 0 1 100 400 L 76 400 A 12 12 0 0 1 64 388 L 64 364 A 12 12 0 0 1 76 352 z M 412 352 L 436 352 A 12 12 0 0 1 448 364 L 448 388 A 12 12 0 0 1 436 400 L 412 400 A 12 12 0 0 1 400 388 L 400 364 A 12 12 0 0 1 412 352 z " />
</svg>
